<?xml version="1.0" standalone="no"?>
<!DOCTYPE svg PUBLIC "-//W3C//DTD SVG 1.1//EN" "http://www.w3.org/Graphics/SVG/1.1/DTD/svg11.dtd">
<svg xmlns="http://www.w3.org/2000/svg">
<defs >
<font id="Krub" horiz-adv-x="561" ><font-face
    font-family="Krub Medium"
    units-per-em="1000"
    panose-1="0 0 6 0 0 0 0 0 0 0"
    ascent="1007"
    descent="-293"
    alphabetic="0" />
<glyph unicode=" " glyph-name="space" horiz-adv-x="258" />
<glyph unicode="!" glyph-name="exclam" horiz-adv-x="246" d="M67 700H179L158 213H88L67 700ZM62 -2T62 54V65Q62 121 118 121H128Q184 121 184 65V54Q184 -2 128 -2H118Q62 -2 62 54Z" />
<glyph unicode="&quot;" glyph-name="quotedbl" horiz-adv-x="324" d="M45 737H136L123 505H59L45 737ZM188 737H279L265 505H201L188 737Z" />
<glyph unicode="#" glyph-name="numbersign" horiz-adv-x="540" d="M422 426L398 272H489V208H387L354 0H287L320 208H184L151 0H84L117 208H25V272H128L152 426H51V490H162L196 700H263L229 490H365L399 700H466L432 490H515V426H422ZM355 426H219L195 272H331L355 426Z" />
<glyph unicode="$" glyph-name="dollar" horiz-adv-x="609" d="M565 118T505 61T341 -8V-120H279V-10Q210 -8 155 13T70 70T39 150Q39 175 58 190T112 206Q124 143 166 108T279 69V328Q197 351 149 377T78 439T56 524Q56 606 115 655T279 710V809H341V708Q421
698 475 654T549 538Q539 528 522 522T489 515Q474 515 464 522T446 545Q430 577 403 598T341 628V400Q431 372 479 346T546 288T565 206Q565 118 505 61ZM156 490T182 467T279 419V632Q218 629 187 603T156 529Q156 490 182 467ZM399 80T431 112T463 192Q463 233
435 260T341 310V71Q399 80 431 112Z" />
<glyph unicode="%" glyph-name="percent" horiz-adv-x="910" d="M614 710H703L299 -10H210L614 710ZM165 349T122 396T79 523Q79 604 122 652T237 700Q310 700 353 652T397 523Q397 443 354 396T237 349Q165 349 122 396ZM319 411T319 524Q319 582 299 610T237
638Q157 638 157 528Q157 411 237 411Q319 411 319 524ZM598 -3T555 44T512 171Q512 252 555 300T670 348Q743 348 786 300T830 171Q830 91 787 44T670 -3Q598 -3 555 44ZM752 59T752 172Q752 230 732 258T670 286Q590 286 590 176Q590 59 670 59Q752 59 752 172Z"
/>
<glyph unicode="&amp;" glyph-name="ampersand" horiz-adv-x="687" d="M546 81T571 74T630 65V31Q630 -10 575 -10Q544 -10 514 3T449 47Q365 -10 259 -10Q202 -10 151 10T69 72T37 171Q37 240 70 285T181 380Q151 430 137 469T122 548Q122 596 144 633T204 690T288
710Q355 710 401 671T447 565Q447 506 409 463T285 366Q320 317 368 259T454 160Q481 202 495 253T510 358Q553 358 571 343T589 290Q589 249 570 199T513 106Q546 81 571 74ZM251 644T228 620T204 550Q204 520 215 490T249 421Q313 459 340 492T368 569Q368 602
348 623T289 644Q251 644 228 620ZM128 119T169 87T268 55Q342 55 398 98Q291 219 218 323Q168 288 148 256T128 174Q128 119 169 87Z" />
<glyph unicode="&apos;" glyph-name="quotesingle" horiz-adv-x="223" d="M66 737H157L144 505H79L66 737Z" />
<glyph unicode="(" glyph-name="parenleft" horiz-adv-x="390" d="M156 4T117 130T77 380Q77 503 116 628T234 857H318Q245 748 210 627T174 380Q174 115 318 -99H234Q156 4 117 130Z" />
<glyph unicode=")" glyph-name="parenright" horiz-adv-x="390" d="M72 -99Q216 115 216 380Q216 506 181 627T72 857H156Q234 754 273 629T313 380Q313 256 274 130T156 -99H72Z" />
<glyph unicode="*" glyph-name="asterisk" horiz-adv-x="618" d="M154 563L274 698L98 736L124 812L285 743L268 923H351L337 743L497 813L523 737L348 698L467 565L399 519L311 673L222 519L154 563Z" />
<glyph unicode="+" glyph-name="plus" horiz-adv-x="600" d="M265 291H50V357H265V578H335V357H550V291H335V70H265V291Z" />
<glyph unicode="," glyph-name="comma" horiz-adv-x="308" d="M185 121T200 106T215 63V49Q215 -23 169 -93Q154 -116 142 -126T118 -136Q97 -136 83 -124Q115 -87 130 -60T151 -2H144Q120 -2 107 13T93 53V66Q93 91 107 106T145 121H160Q185 121 200 106Z" />
<glyph unicode="-" glyph-name="hyphen" horiz-adv-x="480" d="M60 340H420V274H60V340Z" />
<glyph unicode="." glyph-name="period" horiz-adv-x="309" d="M93 -2T93 54V65Q93 121 149 121H159Q215 121 215 65V54Q215 -2 159 -2H149Q93 -2 93 54Z" />
<glyph unicode="/" glyph-name="slash" horiz-adv-x="334" d="M273 811H351L61 -55H-17L273 811Z" />
<glyph unicode="0" glyph-name="zero" horiz-adv-x="620" d="M178 -12T111 79T43 338Q43 516 110 613T310 710Q442 710 509 613T577 338Q577 171 510 80T310 -12Q178 -12 111 79ZM398 63T440 135T482 338Q482 481 440 558T310 635Q138 635 138 338Q138 63 310
63Q398 63 440 135Z" />
<glyph unicode="1" glyph-name="one" horiz-adv-x="459" d="M395 68V0H65V68H187V588Q162 569 133 556T80 542Q58 542 45 554T32 587Q32 602 37 612Q79 616 130 639T220 700H278V68H395Z" />
<glyph unicode="2" glyph-name="two" horiz-adv-x="537" d="M489 388T413 290T188 72H481V0H52V49Q182 155 255 229T363 366T398 496Q398 559 365 594T271 629Q142 629 127 473Q86 473 70 486T53 529Q53 574 79 613T155 676T271 700Q372 700 430 647T489 488Q489
388 413 290Z" />
<glyph unicode="3" glyph-name="three" horiz-adv-x="550" d="M425 348T460 311T495 200Q495 103 429 47T250 -9Q182 -9 131 7T51 49T23 107Q23 131 39 145T76 160Q105 113 144 88T253 63Q325 63 364 99T403 199Q403 262 368 293T274 325L242 324Q220 322 207
322Q190 322 178 340T165 376Q165 392 176 392H258Q319 392 351 424T384 521Q384 572 351 600T254 629Q198 629 164 602T103 521Q74 521 58 534T41 572Q41 599 68 629T144 679T256 700Q357 700 416 654T476 521Q476 459 447 419T373 361Q425 348 460 311Z" />
<glyph unicode="4" glyph-name="four" horiz-adv-x="522" d="M324 160H20V206Q116 339 164 452T222 700Q231 702 248 702Q313 702 313 633Q313 548 254 434T120 232H324V425H415V232H503V160H415V0H324V160Z" />
<glyph unicode="5" glyph-name="five" horiz-adv-x="556" d="M355 460T406 433T485 354T514 232Q514 121 450 56T278 -9Q213 -9 165 9T92 57T66 116Q66 164 117 171Q159 62 275 62Q347 62 384 107T422 228Q422 309 385 348T278 387Q232 387 199 369T139 313L74
324L98 700H466V629H177L163 423Q214 460 289 460Q355 460 406 433Z" />
<glyph unicode="6" glyph-name="six" horiz-adv-x="577" d="M362 449T412 422T491 343T520 216Q520 150 492 100T411 21T289 -7Q211 -7 156 30T72 132T43 278Q43 394 86 492T204 647T366 705Q400 705 414 688T429 636Q321 636 248 572T148 397Q178 420 218 434T299
449Q362 449 412 422ZM357 65T392 107T428 219Q428 300 392 338T289 377Q245 377 206 359T136 309Q135 299 135 278Q135 182 173 124T291 65Q357 65 392 107Z" />
<glyph unicode="7" glyph-name="seven" horiz-adv-x="482" d="M463 700V653Q354 479 310 349T258 72L254 0H208Q150 0 153 57L154 86Q159 214 217 359T370 625H90Q64 625 51 637T38 671Q38 689 42 700H463Z" />
<glyph unicode="8" glyph-name="eight" horiz-adv-x="564" d="M462 329T491 284T520 176Q520 86 457 39T282 -9Q172 -9 109 38T45 176Q45 239 75 284T178 360Q120 390 92 428T63 523Q63 606 123 655T282 705Q382 705 441 656T500 523Q500 466 473 427T388 360Q462
329 491 284ZM224 635T189 606T154 526Q154 481 187 448T282 393Q354 416 381 447T409 526Q409 576 375 605T282 635Q224 635 189 606ZM349 62T388 92T428 176Q428 210 416 233T372 277T282 319Q205 290 171 258T137 176Q137 123 176 93T282 62Q349 62 388 92Z"
/>
<glyph unicode="9" glyph-name="nine" horiz-adv-x="577" d="M402 702T461 625T520 420Q520 303 476 206T354 51T184 -7Q150 -7 135 10T120 62Q234 62 309 124T413 293Q384 273 347 260T269 247Q168 247 106 306T43 472Q43 539 74 591T158 673T277 702Q402 702
461 625ZM365 319T427 381Q428 394 428 420Q428 519 394 574T275 629Q208 629 172 585T135 468Q135 393 172 356T279 319Q365 319 427 381Z" />
<glyph unicode=":" glyph-name="colon" horiz-adv-x="324" d="M93 360T93 416V427Q93 483 149 483H159Q215 483 215 427V416Q215 360 159 360H149Q93 360 93 416ZM93 -2T93 54V65Q93 121 149 121H159Q215 121 215 65V54Q215 -2 159 -2H149Q93 -2 93 54Z" />
<glyph unicode=";" glyph-name="semicolon" horiz-adv-x="324" d="M185 121T200 106T215 63V49Q215 -23 169 -93Q154 -116 142 -126T118 -136Q97 -136 83 -124Q115 -87 130 -60T151 -2H144Q120 -2 107 13T93 53V66Q93 91 107 106T145 121H160Q185 121 200 106ZM93
360T93 416V427Q93 483 149 483H159Q215 483 215 427V416Q215 360 159 360H149Q93 360 93 416Z" />
<glyph unicode="&lt;" glyph-name="less" horiz-adv-x="600" d="M550 525L138 304L550 81V-7L50 265V343L550 613V525Z" />
<glyph unicode="=" glyph-name="equal" horiz-adv-x="600" d="M70 468H530V400H70V468ZM70 264H530V196H70V264Z" />
<glyph unicode="&gt;" glyph-name="greater" horiz-adv-x="600" d="M550 343V265L50 -7V81L462 304L50 525V613L550 343Z" />
<glyph unicode="?" glyph-name="question" horiz-adv-x="475" d="M175 236Q175 283 199 317T270 394Q312 433 333 462T354 529Q354 579 324 606T239 634Q139 634 112 522L30 551Q42 621 100 665T242 709Q300 709 347 688T421 625T448 529Q448 487 434 455T399
401T345 352Q302 316 282 290T261 222V199H175V236ZM159 -2T159 54V65Q159 121 215 121H225Q281 121 281 65V54Q281 -2 225 -2H215Q159 -2 159 54Z" />
<glyph unicode="@" glyph-name="at" horiz-adv-x="834" d="M559 274Q558 267 556 255T554 234Q554 201 587 201Q620 201 650 227T699 300T718 405Q718 482 682 540T582 630T433 662Q342 662 273 622T165 511T126 350Q126 253 165 182T276 73T445 35Q514 35 561
50T651 94Q675 81 675 59Q675 39 644 21T559 -8T445 -20Q330 -20 245 23T112 150T65 352Q65 453 112 536T244 668T432 717Q535 717 613 677T735 566T779 403Q779 326 751 267T678 175T582 143Q552 143 530 159T499 203Q463 143 386 143Q320 143 281 186T241 309Q241
376 263 428T327 510T422 539Q495 539 525 483L532 523H599L559 274ZM445 201T474 252T504 372Q504 425 483 453T424 481Q373 481 347 433T320 311Q320 258 338 230T394 201Q445 201 474 252Z" />
<glyph unicode="A" glyph-name="A" horiz-adv-x="633" d="M499 109T476 193H157Q134 109 114 0H15Q56 202 116 371T266 700H368Q457 542 517 373T618 0H519Q499 109 476 193ZM455 270Q401 454 317 614Q232 456 178 270H455Z" />
<glyph unicode="B" glyph-name="B" horiz-adv-x="618" d="M510 347T544 302T579 197Q579 103 514 52T329 0H83V700H319Q424 700 485 650T547 513Q547 460 522 420T455 362Q510 347 544 302ZM447 567T411 596T306 625H182V393H303Q376 393 411 422T447 513Q447
567 411 596ZM404 75T441 103T479 197Q479 262 440 291T311 320H182V75H313Q404 75 441 103Z" />
<glyph unicode="C" glyph-name="C" horiz-adv-x="609" d="M213 -10T133 83T52 350Q52 522 133 616T362 710Q422 710 474 690T563 632Q557 609 543 593T514 577Q500 577 488 586Q458 609 428 619T360 630Q258 630 206 560T154 350Q154 213 206 142T360 71Q406 71
445 85T519 131Q535 127 546 114T557 85Q557 60 530 39T458 4T362 -10Q213 -10 133 83Z" />
<glyph unicode="D" glyph-name="D" horiz-adv-x="675" d="M453 700T539 609T625 350Q625 243 585 164T471 43T296 0H79V700H296Q453 700 539 609ZM404 75T464 145T524 349Q524 488 466 556T290 625H179V75H290Q404 75 464 145Z" />
<glyph unicode="E" glyph-name="E" horiz-adv-x="560" d="M508 75Q508 30 498 15T456 0H79V700H504V625H179V397H456V321H179V75H508Z" />
<glyph unicode="F" glyph-name="F" horiz-adv-x="530" d="M179 625V398H455V323H179V0H79V700H498V625H179Z" />
<glyph unicode="G" glyph-name="G" horiz-adv-x="673" d="M614 377V73Q574 33 513 12T379 -10Q221 -10 140 81T59 350Q59 463 97 544T208 667T382 710Q454 710 515 686T611 621Q602 599 587 584T559 568Q544 568 528 581Q494 607 459 619T381 631Q273 631 217
560T161 350Q161 208 214 139T377 69Q422 69 459 79T515 108V300H401Q377 300 367 317T357 377H614Z" />
<glyph unicode="H" glyph-name="H" horiz-adv-x="687" d="M607 700V0H508V320H179V0H79V700H179V397H508V700H607Z" />
<glyph unicode="I" glyph-name="I" horiz-adv-x="350" d="M125 700H225V0H125V700Z" />
<glyph unicode="J" glyph-name="J" horiz-adv-x="434" d="M117 -10T78 -2T21 17Q21 85 51 85Q58 85 76 80Q117 68 149 68Q202 68 229 98T256 186V700H355V186Q355 97 301 44T154 -10Q117 -10 78 -2Z" />
<glyph unicode="K" glyph-name="K" horiz-adv-x="630" d="M608 4Q585 -9 546 -9Q525 -9 512 -2T488 22L343 258Q319 296 297 308T224 320H196V0H97V700H196V395H251Q263 395 269 394L491 700H600L354 369Q396 344 432 286L608 4Z" />
<glyph unicode="L" glyph-name="L" horiz-adv-x="513" d="M498 75V0H86V700H185V75H498Z" />
<glyph unicode="M" glyph-name="M" horiz-adv-x="835" d="M667 0Q663 323 617 579Q580 487 549 393T454 83H379Q325 272 291 374T217 576Q173 324 166 0H67Q76 399 149 700H260Q318 565 351 473T416 265Q450 382 484 475T575 700H686Q761 394 767 0H667Z" />
<glyph unicode="N" glyph-name="N" horiz-adv-x="693" d="M610 106T612 64Q614 36 614 27Q614 0 588 0H511V47Q511 104 472 158L178 562V0H79V700H164Q177 700 185 697T202 680L511 256V700H610V137Q610 106 612 64Z" />
<glyph unicode="O" glyph-name="O" horiz-adv-x="680" d="M198 -10T122 84T45 354Q45 525 121 617T340 710Q482 710 558 618T635 354Q635 179 559 85T340 -10Q198 -10 122 84ZM533 69T533 354Q533 494 486 562T340 631Q242 631 195 563T147 354Q147 69 340 69Q533
69 533 354Z" />
<glyph unicode="P" glyph-name="P" horiz-adv-x="615" d="M431 700T501 643T572 475Q572 362 501 303T294 244H182V0H83V700H294Q431 700 501 643ZM386 324T429 360T472 475Q472 553 429 588T291 624H182V324H291Q386 324 429 360Z" />
<glyph unicode="Q" glyph-name="Q" horiz-adv-x="680" d="M635 232T597 148T487 24Q525 -22 555 -55Q532 -85 490 -85Q454 -85 430 -53Q411 -25 398 -5Q368 -10 340 -10Q198 -10 122 84T45 354Q45 525 121 617T340 710Q482 710 558 618T635 354Q635 232 597 148ZM353
69Q342 90 333 105T317 132L301 159H391Q410 126 435 92Q533 151 533 354Q533 494 486 562T340 631Q242 631 195 563T147 354Q147 69 340 69H353Z" />
<glyph unicode="R" glyph-name="R" horiz-adv-x="633" d="M595 6Q585 0 569 -4T537 -8Q514 -8 501 -1T477 25L377 211Q355 252 326 268T245 284H182V0H83V700H313Q439 700 509 645T579 492Q579 421 536 370T420 298Q449 271 467 237L595 6ZM307 361Q390 361 433
394T477 492Q477 623 310 623H182V361H307Z" />
<glyph unicode="S" glyph-name="S" horiz-adv-x="642" d="M252 -10T194 10T102 67T69 150Q69 175 88 190T142 206Q155 139 202 104T327 68Q404 68 448 101T493 192Q493 241 453 270T313 327Q229 350 180 376T109 438T86 524Q86 610 151 660T329 710Q425 710 490
665T579 538Q569 528 552 522T519 515Q504 515 494 522T476 545Q455 587 417 610T329 633Q258 633 222 607T186 529Q186 500 199 481T245 445T339 410Q444 379 498 352T573 292T595 206Q595 141 562 92T467 17T325 -10Q252 -10 194 10Z" />
<glyph unicode="T" glyph-name="T" horiz-adv-x="534" d="M523 680T523 669Q523 647 513 635T484 623H316V0H218V623H15V700H519Q523 680 523 669Z" />
<glyph unicode="U" glyph-name="U" horiz-adv-x="709" d="M219 -10T151 55T83 251V700H182V237Q182 151 225 110T356 68Q445 68 487 109T529 237V700H628V251Q628 117 562 54T356 -10Q219 -10 151 55Z" />
<glyph unicode="V" glyph-name="V" horiz-adv-x="638" d="M611 700Q583 508 524 336T367 0H272Q175 165 115 337T27 700H130Q177 364 319 106Q461 364 508 700H611Z" />
<glyph unicode="W" glyph-name="W" horiz-adv-x="869" d="M854 700Q832 532 795 377T686 0H577Q516 198 488 303T440 507Q417 397 387 287T302 0H193Q121 208 81 367T15 700H114Q133 549 162 424T248 115Q288 240 319 358T403 700H472Q548 404 574 309T632 116Q687
299 714 423T760 700H854Z" />
<glyph unicode="X" glyph-name="X" horiz-adv-x="589" d="M468 0Q453 91 410 162T294 308Q223 232 180 162T121 0H17Q32 82 64 147T136 262T234 370Q179 427 142 472T76 574T32 700H134Q151 621 190 560T294 431Q358 498 398 559T455 700H556Q542 632 513 575T447
473T355 370Q413 312 452 263T524 148T571 0H468Z" />
<glyph unicode="Y" glyph-name="Y" horiz-adv-x="590" d="M573 700L344 294V0H246V294L17 700H121L296 383L470 700H573Z" />
<glyph unicode="Z" glyph-name="Z" horiz-adv-x="580" d="M531 73V0H51V73L417 627H49V700H523V623L163 73H531Z" />
<glyph unicode="[" glyph-name="bracketleft" horiz-adv-x="389" d="M92 845H315V782H189V-25H315V-88H92V845Z" />
<glyph unicode="\" glyph-name="backslash" horiz-adv-x="334" d="M273 -55L-17 811H61L351 -55H273Z" />
<glyph unicode="]" glyph-name="bracketright" horiz-adv-x="389" d="M74 -88V-25H200V782H74V845H297V-88H74Z" />
<glyph unicode="^" glyph-name="asciicircum" horiz-adv-x="657" d="M285 791H370L602 324H503L325 678L154 324H55L285 791Z" />
<glyph unicode="_" glyph-name="underscore" horiz-adv-x="684" d="M0 -102H684V-175H0V-102Z" />
<glyph unicode="`" glyph-name="grave" horiz-adv-x="243" d="M-17 780H92L180 629H101L-17 780Z" />
<glyph unicode="a" glyph-name="a" d="M486 102T493 72T520 20Q506 9 486 2T449 -6Q403 -6 394 76Q364 35 318 13T213 -10Q138 -10 93 29T47 133Q47 317 391 334V373Q391 431 362 459T272 487Q232 487 197 471T117 415Q110 410 104 410Q91 410 76 423T48 461Q90
508 152 534T281 560Q377 560 431 511T486 373V160Q486 102 493 72ZM280 59T320 86T391 165V272Q143 261 143 139Q143 100 166 80T234 59Q280 59 320 86Z" />
<glyph unicode="b" glyph-name="b" horiz-adv-x="610" d="M449 560T509 486T570 281Q570 145 508 68T338 -10Q237 -10 179 57Q170 -2 138 -2Q98 -2 65 17Q78 40 83 71T88 157V791H184V507Q252 560 341 560Q449 560 509 486ZM400 61T436 117T473 281Q473 383 436
437T329 491Q289 491 252 477T184 435V137Q238 61 329 61Q400 61 436 117Z" />
<glyph unicode="c" glyph-name="c" horiz-adv-x="560" d="M173 -10T105 64T37 278Q37 364 68 428T157 526T294 560Q388 560 448 513T520 385Q504 376 486 371T454 365Q442 365 436 372T424 398Q411 444 378 467T294 491Q220 491 177 434T133 278Q133 175 177 118T299
61Q417 61 456 183Q483 183 497 169T512 128Q512 92 483 60T404 9T299 -10Q173 -10 105 64Z" />
<glyph unicode="d" glyph-name="d" horiz-adv-x="598" d="M517 58T537 14Q501 -5 467 -5Q434 -5 425 63Q395 25 357 8T266 -10Q159 -10 98 65T37 273Q37 407 104 483T289 560Q323 560 360 549T422 520V791H517V154Q517 58 537 14ZM324 59T359 79T422 143V443Q401
465 366 479T294 493Q216 493 175 437T133 273Q133 167 170 113T278 59Q324 59 359 79Z" />
<glyph unicode="e" glyph-name="e" horiz-adv-x="567" d="M530 293T527 261H143Q147 166 187 114T297 61Q344 61 375 80T437 146Q445 157 459 157Q482 157 519 130Q493 64 435 27T297 -10Q220 -10 164 24T77 123T47 276Q47 409 114 484T301 560Q410 560 470 495T530
313Q530 293 527 261ZM433 325Q433 490 298 490Q231 490 192 448T145 325H433Z" />
<glyph unicode="f" glyph-name="f" horiz-adv-x="345" d="M305 785T333 772T361 734Q361 723 357 713T348 699Q315 714 276 714Q239 714 220 690T200 620V550H317V485H200V0H105V485H9V550H105V621Q105 698 145 741T256 785Q305 785 333 772Z" />
<glyph unicode="g" glyph-name="g" horiz-adv-x="585" d="M550 589T560 576T571 531Q571 516 570 508Q498 508 469 489Q507 442 507 376Q507 281 449 233T279 184Q218 184 192 176T165 148Q165 127 198 118T309 108Q424 108 486 69T549 -41Q549 -118 481 -161T289
-204Q170 -204 107 -167T43 -58Q43 -16 72 13T157 55V58Q124 66 105 87T85 138Q85 163 105 183T161 212Q116 236 91 275T65 364Q65 460 124 510T298 560Q364 560 415 533Q439 559 469 574T527 589Q550 589 560 576ZM351 253T380 281T409 372Q409 435 380 464T285
493Q222 493 192 464T162 372Q162 253 285 253Q351 253 380 281ZM141 36T141 -47Q141 -134 289 -134Q371 -134 413 -112T455 -47Q455 -4 417 16T293 36Q141 36 141 -47Z" />
<glyph unicode="h" glyph-name="h" horiz-adv-x="630" d="M447 560T494 513T542 383V0H448V372Q448 429 422 458T344 487Q303 487 258 469T172 417V0H78V791H172V489Q213 522 264 541T366 560Q447 560 494 513Z" />
<glyph unicode="i" glyph-name="i" horiz-adv-x="288" d="M97 550H191V0H97V550ZM339 651T339 707V718Q339 774 395 774H405Q461 774 461 718V707Q461 651 405 651H395Q339 651 339 707Z" />
<glyph unicode="j" glyph-name="j" horiz-adv-x="270" d="M8 -199T-18 -192T-56 -174Q-65 -165 -65 -152Q-65 -141 -60 -131T-48 -119Q-18 -134 24 -134Q54 -134 70 -116T87 -62V550H181V-53Q181 -122 143 -160T34 -199Q8 -199 -18 -192ZM329 651T329 707V718Q329
774 385 774H395Q451 774 451 718V707Q451 651 395 651H385Q329 651 329 707Z" />
<glyph unicode="k" glyph-name="k" horiz-adv-x="570" d="M555 0Q533 0 505 -2Q483 -4 478 -4Q462 -4 452 2T435 20L323 205Q308 230 284 241T218 251L179 249V0H84V791H179V324L212 325Q239 326 254 335T284 367L411 550H522L366 339Q356 324 348 315T327 298Q377
286 401 246L555 0Z" />
<glyph unicode="l" glyph-name="l" horiz-adv-x="268" d="M87 791H181V0H87V791Z" />
<glyph unicode="m" glyph-name="m" horiz-adv-x="912" d="M738 560T783 514T828 392V0H732V389Q732 444 711 468T640 493Q566 493 503 424Q504 417 504 404V0H410V399Q410 444 387 468T322 493Q285 493 251 475T180 417V0H85V360Q85 505 73 535Q90 543 108 548T141
554Q161 554 170 539T180 489Q217 526 257 543T348 560Q394 560 430 540T485 483Q522 523 565 541T664 560Q738 560 783 514Z" />
<glyph unicode="n" glyph-name="n" horiz-adv-x="610" d="M527 75T529 52T539 10Q503 -5 464 -5Q445 -5 439 17T432 102V370Q432 434 410 461T335 489Q258 489 175 414V0H80V365Q80 503 68 536Q115 554 142 554Q175 554 175 496V486Q223 525 265 542T356 560Q442
560 484 514T527 372V131Q527 75 529 52Z" />
<glyph unicode="o" glyph-name="o" horiz-adv-x="555" d="M159 -10T98 63T37 276Q37 416 98 488T277 560Q395 560 456 488T518 276Q518 136 457 63T277 -10Q159 -10 98 63ZM352 59T386 111T421 276Q421 388 387 439T277 491Q202 491 168 440T133 276Q133 163 168
111T277 59Q352 59 386 111Z" />
<glyph unicode="p" glyph-name="p" horiz-adv-x="598" d="M446 560T504 488T562 279Q562 192 531 127T443 26T308 -10Q239 -10 177 14V-223H82V355Q82 500 63 533Q82 543 102 548T137 554Q170 554 176 495Q243 560 336 560Q446 560 504 488ZM379 59T421 116T464
279Q464 386 430 438T325 491Q284 491 245 472T177 420V85Q203 73 235 66T301 59Q379 59 421 116Z" />
<glyph unicode="q" glyph-name="q" horiz-adv-x="608" d="M505 554T541 533Q529 513 523 465T517 355V-223H422V37Q386 11 351 1T268 -10Q159 -10 98 66T37 276Q37 363 65 427T145 525T268 560Q322 560 359 546T429 500Q440 554 470 554Q505 554 541 533ZM366
57T422 110V420V425Q368 493 283 493Q210 493 172 438T134 276Q134 165 172 111T287 57Q366 57 422 110Z" />
<glyph unicode="r" glyph-name="r" horiz-adv-x="413" d="M395 557T395 498Q395 474 382 459Q356 472 314 472Q248 472 211 424T173 290V0H78V550H173V458Q195 503 233 530T316 557Q395 557 395 498Z" />
<glyph unicode="s" glyph-name="s" horiz-adv-x="492" d="M193 -10T145 5T68 44T38 98Q38 116 50 129T83 146Q114 101 153 80T249 59Q306 59 335 84T364 152Q364 179 347 196T303 224T231 247Q172 263 137 278T76 324T50 405Q50 455 78 490T150 542T242 560Q309
560 361 534T443 460Q431 443 417 433T391 423Q376 423 364 437Q316 493 241 493Q195 493 168 472T141 408Q141 381 158 365T201 339T271 318Q331 302 367 287T429 240T455 155Q455 78 399 34T245 -10Q193 -10 145 5Z" />
<glyph unicode="t" glyph-name="t" horiz-adv-x="384" d="M360 73T365 64T370 42Q370 22 355 13Q340 2 314 -4T256 -10Q189 -10 149 26T109 124V483H12V550H109V700H204V550H335V483H204V137Q204 97 220 79T269 60Q309 60 352 77Q360 73 365 64Z" />
<glyph unicode="u" glyph-name="u" horiz-adv-x="617" d="M530 55T545 10Q517 -5 483 -5Q459 -5 449 11T436 70Q407 33 360 12T256 -10Q170 -10 127 36T83 175V550H178V182Q178 116 201 87T278 57Q325 57 366 81T435 151V550H530V120Q530 55 545 10Z" />
<glyph unicode="v" glyph-name="v" horiz-adv-x="517" d="M499 550Q487 394 440 260T305 0H215Q125 125 78 259T18 550H115Q125 415 159 306T260 92Q326 196 359 305T402 550H499Z" />
<glyph unicode="w" glyph-name="w" horiz-adv-x="773" d="M741 550Q708 236 591 0H515Q467 96 437 183T388 366Q370 270 339 183T259 0H182Q122 116 86 249T29 550H125Q140 411 162 308T226 115Q316 303 346 550H432Q464 297 552 112Q593 208 614 316T643 550H741Z" />
<glyph unicode="x" glyph-name="x" horiz-adv-x="496" d="M385 0Q380 61 345 114T248 231Q186 168 151 115T111 0H16Q22 79 67 144T192 286Q115 361 73 420T25 550H120Q124 496 157 447T248 341Q306 398 339 447T376 550H471Q465 480 423 421T304 286Q384 209
429 144T480 0H385Z" />
<glyph unicode="y" glyph-name="y" horiz-adv-x="502" d="M496 550L283 -42Q252 -127 209 -164T95 -201Q53 -201 28 -187T3 -149Q3 -126 23 -107Q34 -115 53 -119T91 -124Q131 -124 157 -93T205 9L9 550H108L253 131L397 550H496Z" />
<glyph unicode="z" glyph-name="z" horiz-adv-x="507" d="M477 71V0H30V61L353 479H56V550H469V490L143 71H477Z" />
<glyph unicode="{" glyph-name="braceleft" horiz-adv-x="364" d="M178 -98T145 -63T111 32V245Q111 282 95 304T41 334V377Q79 384 95 407T111 467V680Q111 739 144 774T233 809H298V745H266Q202 745 202 673V474Q202 421 183 394T123 357V354Q162 345 182 318T202
238V39Q202 -33 266 -33H298V-98H233Q178 -98 145 -63Z" />
<glyph unicode="|" glyph-name="bar" horiz-adv-x="256" d="M85 802H171V-12H85V802Z" />
<glyph unicode="}" glyph-name="braceright" horiz-adv-x="364" d="M66 -98V-33H98Q162 -33 162 39V238Q162 291 182 318T241 354V357Q201 367 182 394T162 474V673Q162 745 98 745H66V809H131Q186 809 219 774T253 680V467Q253 430 269 407T323 377V334Q285 327
269 305T253 245V32Q253 -28 220 -63T131 -98H66Z" />
<glyph unicode="~" glyph-name="asciitilde" horiz-adv-x="600" d="M50 266Q71 306 107 331T196 356Q227 356 251 346T308 317Q337 299 358 291T406 282Q443 282 463 300T502 357L552 316Q537 270 500 242T406 214Q373 214 348 224T291 254Q261 271 242 279T197
288Q136 288 98 213L50 266Z" />
<glyph unicode="&#xa0;" glyph-name="uni00A0" horiz-adv-x="258" />
<glyph unicode="&#xa1;" glyph-name="exclamdown" horiz-adv-x="243" d="M184 562T184 506V495Q184 439 128 439H118Q62 439 62 495V506Q62 562 118 562H128Q184 562 184 506ZM179 -140H67L88 347H158L179 -140Z" />
<glyph unicode="&#xa2;" glyph-name="cent" horiz-adv-x="547" d="M483 183T497 169T512 128Q512 92 483 60T404 9T299 -10Q254 -10 213 1L186 -80H126L160 22Q100 54 69 119T37 278Q37 364 68 428T157 526T294 560Q316 560 337 557L364 638H423L392 544Q446 524
479 483T520 385Q504 376 486 371T454 365Q442 365 436 372T424 398Q409 451 369 473L236 73Q265 61 299 61Q417 61 456 183Q483 183 497 169ZM133 163T188 106L315 490Q308 491 294 491Q220 491 177 434T133 278Q133 163 188 106Z" />
<glyph unicode="&#xa3;" glyph-name="sterling" horiz-adv-x="609" d="M538 174Q531 93 478 42T341 -10Q282 -10 240 3T160 46Q106 1 16 -10V72Q81 85 109 118T138 219Q138 257 126 317H14V382H113Q98 461 98 504Q98 567 125 613T201 685T312 710Q400 710 457
665T529 537Q518 528 501 521T471 513Q449 513 440 540Q424 589 395 614T311 639Q252 639 221 604T190 504Q190 459 205 382H361V317H218Q231 252 231 218Q231 152 206 104Q266 61 331 61Q383 61 414 89T456 186L538 174Z" />
<glyph unicode="&#xa4;" glyph-name="currency" horiz-adv-x="609" d="M33 122L92 181Q33 248 33 353Q33 451 92 523L33 582L73 624L135 563Q171 593 214 608T304 624Q399 624 474 563L534 624L576 582L517 523Q576 451 576 353Q576 248 517 181L576 122L534 81L474
140Q397 81 304 81Q208 81 135 140L73 81L33 122ZM356 167T397 190T462 256T485 353Q485 407 462 449T398 515T304 539Q252 539 211 516T147 450T124 353Q124 299 147 257T211 191T304 167Q356 167 397 190Z" />
<glyph unicode="&#xa5;" glyph-name="yen" horiz-adv-x="590" d="M386 369H512V313H355L344 294V224H512V168H344V0H246V168H78V224H246V294L235 313H78V369H204L17 700H121L296 383L470 700H573L386 369Z" />
<glyph unicode="&#xa6;" glyph-name="brokenbar" horiz-adv-x="256" d="M85 802H171V495H85V802ZM85 295H171V-12H85V295Z" />
<glyph unicode="&#xa7;" glyph-name="section" horiz-adv-x="487" d="M349 302T331 330T274 376L148 432Q58 471 58 557Q58 603 82 637T147 689T238 707Q324 707 373 668T428 565L344 556Q339 595 315 617T238 639Q191 639 167 619T143 560Q143 534 157 518T204
487L339 427Q438 386 438 261H349Q349 302 331 330ZM163 -88T113 -49T58 54L142 63Q145 25 170 3T247 -20Q295 -20 319 1T343 61Q343 88 330 105T285 136L150 195Q48 239 48 358H137Q137 318 157 290T218 243L341 187Q387 166 409 137T431 62Q431 -7 380 -47T247
-88Q163 -88 113 -49Z" />
<glyph unicode="&#xa8;" glyph-name="dieresis" horiz-adv-x="315" d="M0 639T0 691V701Q0 753 52 753H61Q113 753 113 701V691Q113 639 61 639H52Q0 639 0 691ZM203 639T203 691V701Q203 753 254 753H264Q315 753 315 701V691Q315 639 264 639H254Q203 639 203 691Z" />
<glyph unicode="&#xa9;" glyph-name="copyright" horiz-adv-x="774" d="M283 -10T201 36T73 164T27 350Q27 454 73 536T201 664T387 710Q491 710 573 664T701 536T747 350Q747 246 701 164T573 36T387 -10Q283 -10 201 36ZM474 39T543 78T651 189T690 350Q690
440 651 511T543 621T387 661Q300 661 231 622T124 511T85 350Q85 260 123 189T231 79T387 39Q474 39 543 78ZM304 132T249 192T194 351Q194 450 247 508T395 567Q471 567 515 532T574 432L507 413Q497 458 471 481T396 505Q271 505 271 351Q271 280 305 237T399
194Q478 194 504 270L571 251Q553 196 510 164T399 132Q304 132 249 192Z" />
<glyph unicode="&#xaa;" glyph-name="ordfeminine" horiz-adv-x="380" d="M340 418T341 403T349 373Q329 360 304 360Q269 360 265 410Q225 359 148 359Q100 359 70 384T39 453Q39 523 97 548T265 575V584Q265 657 194 657Q171 657 155 650T128 636T114 627Q102
618 96 615T82 612Q70 612 61 624T47 652Q104 712 203 712Q261 712 300 680T340 586V446Q340 418 341 403ZM196 413T223 428T265 467V526Q193 525 154 512T114 458Q114 413 167 413Q196 413 223 428Z" />
<glyph unicode="&#xab;" glyph-name="guillemotleft" horiz-adv-x="523" d="M235 288L363 452H451L332 288L451 117H363L235 288ZM60 288L188 452H276L157 288L276 117H188L60 288Z" />
<glyph unicode="&#xac;" glyph-name="logicalnot" horiz-adv-x="600" d="M451 300H50V374H540V110H451V300Z" />
<glyph unicode="&#xad;" glyph-name="uni00AD" horiz-adv-x="380" d="M40 340H340V274H40V340Z" />
<glyph unicode="&#xae;" glyph-name="registered" horiz-adv-x="774" d="M486 710T568 661T699 530T747 350Q747 253 699 171T569 39T387 -10Q289 -10 207 39T76 170T27 350Q27 447 75 529T206 661T387 710Q486 710 568 661ZM472 39T541 80T650 193T690 350Q690
436 651 507T542 619T387 661Q303 661 234 620T125 507T85 350Q85 265 125 194T234 81T387 39Q472 39 541 80ZM563 371T539 340T474 297L560 145H478L400 290H325V145H248V543H418Q491 543 527 510T563 417Q563 371 539 340ZM484 351T484 418Q484 449 465 466T408
483H325V351H404Q484 351 484 418Z" />
<glyph unicode="&#xaf;" glyph-name="overscore" horiz-adv-x="243" d="M-42 724H284V651H-42V724Z" />
<glyph unicode="&#xb0;" glyph-name="degree" horiz-adv-x="438" d="M174 481T138 503T80 561T59 642Q59 685 80 722T137 780T219 802Q264 802 300 781T358 722T379 642Q379 598 358 562T301 503T219 481Q174 481 138 503ZM264 535T293 565T322 642Q322 687 293
717T219 748Q174 748 145 718T115 642Q115 596 144 566T219 535Q264 535 293 565Z" />
<glyph unicode="&#xb1;" glyph-name="plusminus" horiz-adv-x="600" d="M267 345H40V410H267V629H334V410H560V345H334V125H267V345ZM40 66H560V0H40V66Z" />
<glyph unicode="&#xb2;" glyph-name="uni00B2" horiz-adv-x="348" d="M324 508T276 455T145 345H323V282H25V331Q100 380 143 413T217 488T247 577Q247 611 227 629T170 647Q132 647 110 625T86 561Q27 561 27 601Q27 629 45 654T96 694T171 710Q242 710 283 676T324
575Q324 508 276 455Z" />
<glyph unicode="&#xb3;" glyph-name="uni00B3" horiz-adv-x="361" d="M302 497T321 473T340 407Q340 348 298 313T174 278Q130 278 96 288T42 314T22 349Q22 364 31 373T54 382Q79 359 105 348T175 336Q219 336 242 354T265 409Q265 442 245 458T190 475L164 474Q156
473 142 473Q131 473 123 491T114 522Q114 532 124 532H180Q217 532 234 549T251 596Q251 624 234 639T182 655Q146 655 121 640T76 596Q62 596 51 605T40 631Q40 665 80 687T181 710Q247 710 286 680T325 598Q325 568 312 544T270 508Q302 497 321 473Z" />
<glyph unicode="&#xb4;" glyph-name="acute" horiz-adv-x="243" d="M161 780H272L148 629H62L161 780Z" />
<glyph unicode="&#xb6;" glyph-name="paragraph" horiz-adv-x="560" d="M224 328Q168 329 122 357T48 432T20 535Q20 638 83 694T262 750H560V687H484V0H404V687H304V0H224V328Z" />
<glyph unicode="&#xb7;" glyph-name="middot" horiz-adv-x="308" d="M93 236T93 292V303Q93 359 149 359H159Q215 359 215 303V292Q215 236 159 236H149Q93 236 93 292Z" />
<glyph unicode="&#xb8;" glyph-name="cedilla" horiz-adv-x="246" d="M176 -54T203 -76T230 -136Q230 -181 196 -206T102 -232Q54 -232 30 -220T6 -186Q6 -178 9 -170Q50 -181 93 -181Q123 -181 138 -170T154 -138Q154 -125 143 -115T109 -104Q92 -104 73 -110L49
-75L103 0H171L125 -54H133Q176 -54 203 -76Z" />
<glyph unicode="&#xb9;" glyph-name="uni00B9" horiz-adv-x="379" d="M312 343V282H63V343H153V629Q113 593 81 593Q36 593 36 645Q67 648 105 666T166 710H228V343H312Z" />
<glyph unicode="&#xba;" glyph-name="ordmasculine" horiz-adv-x="380" d="M112 357T71 405T29 533Q29 613 70 661T191 710Q269 710 310 662T351 533Q351 454 310 406T191 357Q112 357 71 405ZM233 412T254 441T275 533Q275 596 254 625T191 655Q105 655 105 533Q105
470 127 441T191 412Q233 412 254 441Z" />
<glyph unicode="&#xbb;" glyph-name="guillemotright" horiz-adv-x="523" d="M72 117L191 288L72 452H160L288 288L160 117H72ZM247 117L366 288L247 452H335L463 288L335 117H247Z" />
<glyph unicode="&#xbc;" glyph-name="onequarter" horiz-adv-x="1003" d="M312 343V282H63V343H153V629Q113 593 81 593Q36 593 36 645Q67 648 105 666T166 710H228V343H312ZM625 700H697L383 0H311L625 700ZM979 91H925V0H850V91H642V125Q701 204 730 271T764
423Q780 425 788 425Q837 425 837 382Q837 328 807 264T735 149H850V258H925V149H979V91Z" />
<glyph unicode="&#xbd;" glyph-name="onehalf" horiz-adv-x="963" d="M312 343V282H63V343H153V629Q113 593 81 593Q36 593 36 645Q67 648 105 666T166 710H228V343H312ZM625 700H697L383 0H311L625 700ZM940 227T892 174T761 64H939V1H641V50Q716 99 759 132T833
207T863 296Q863 330 843 348T786 366Q748 366 726 344T702 280Q643 280 643 320Q643 348 661 373T712 413T787 429Q858 429 899 395T940 294Q940 227 892 174Z" />
<glyph unicode="&#xbe;" glyph-name="threequarters" horiz-adv-x="981" d="M302 497T321 473T340 407Q340 348 298 313T174 278Q130 278 96 288T42 314T22 349Q22 364 31 373T54 382Q79 359 105 348T175 336Q219 336 242 354T265 409Q265 442 245 458T190 475L164
474Q156 473 142 473Q131 473 123 491T114 522Q114 532 124 532H180Q217 532 234 549T251 596Q251 624 234 639T182 655Q146 655 121 640T76 596Q62 596 51 605T40 631Q40 665 80 687T181 710Q247 710 286 680T325 598Q325 568 312 544T270 508Q302 497 321 473ZM607
700H679L365 0H293L607 700ZM957 91H903V0H828V91H620V125Q679 204 708 271T742 423Q758 425 766 425Q815 425 815 382Q815 328 785 264T713 149H828V258H903V149H957V91Z" />
<glyph unicode="&#xbf;" glyph-name="questiondown" horiz-adv-x="475" d="M316 554T316 498V487Q316 431 260 431H250Q194 431 194 487V498Q194 554 250 554H260Q316 554 316 498ZM300 316Q300 269 276 235T205 158Q163 119 142 90T121 23Q121 -27 151 -54T236
-82Q336 -82 363 30L445 1Q433 -69 375 -113T233 -157Q175 -157 128 -136T54 -73T27 23Q27 65 41 97T76 151T130 200Q173 236 193 262T214 330V353H300V316Z" />
<glyph unicode="&#xc0;" glyph-name="Agrave" horiz-adv-x="633" d="M499 109T476 193H157Q134 109 114 0H15Q56 202 116 371T266 700H368Q457 542 517 373T618 0H519Q499 109 476 193ZM455 270Q401 454 317 614Q232 456 178 270H455ZM442 890H551L639 739H560L442 890Z" />
<glyph unicode="&#xc1;" glyph-name="Aacute" horiz-adv-x="633" d="M499 109T476 193H157Q134 109 114 0H15Q56 202 116 371T266 700H368Q457 542 517 373T618 0H519Q499 109 476 193ZM455 270Q401 454 317 614Q232 456 178 270H455ZM351 890H462L338 739H252L351 890Z" />
<glyph unicode="&#xc2;" glyph-name="Acircumflex" horiz-adv-x="633" d="M499 109T476 193H157Q134 109 114 0H15Q56 202 116 371T266 700H368Q457 542 517 373T618 0H519Q499 109 476 193ZM455 270Q401 454 317 614Q232 456 178 270H455ZM524 878H623L728 739H650L574
822L496 739H418L524 878Z" />
<glyph unicode="&#xc3;" glyph-name="Atilde" horiz-adv-x="633" d="M499 109T476 193H157Q134 109 114 0H15Q56 202 116 371T266 700H368Q457 542 517 373T618 0H519Q499 109 476 193ZM455 270Q401 454 317 614Q232 456 178 270H455ZM445 748T433 757T421 785Q421
821 445 841T508 861Q530 861 546 855T583 838Q598 829 609 825T633 821Q672 821 677 864Q727 864 727 824Q727 794 704 772T642 750Q619 750 602 756T564 773Q546 782 535 786T510 791Q472 791 467 748Q445 748 433 757Z" />
<glyph unicode="&#xc4;" glyph-name="Adieresis" horiz-adv-x="633" d="M499 109T476 193H157Q134 109 114 0H15Q56 202 116 371T266 700H368Q457 542 517 373T618 0H519Q499 109 476 193ZM455 270Q401 454 317 614Q232 456 178 270H455ZM160 749T160 801V811Q160
863 212 863H221Q273 863 273 811V801Q273 749 221 749H212Q160 749 160 801ZM363 749T363 801V811Q363 863 414 863H424Q475 863 475 811V801Q475 749 424 749H414Q363 749 363 801Z" />
<glyph unicode="&#xc5;" glyph-name="Aring" horiz-adv-x="633" d="M499 109T476 193H157Q134 109 114 0H15Q56 202 116 371T266 700H368Q457 542 517 373T618 0H519Q499 109 476 193ZM455 270Q401 454 317 614Q232 456 178 270H455ZM524 741T490 774T456 857Q456
907 490 940T573 974Q622 974 656 941T690 857Q690 807 656 774T573 741Q524 741 490 774ZM596 801T612 817T629 857Q629 882 613 897T573 913Q549 913 533 898T516 857Q516 834 532 818T573 801Q596 801 612 817Z" />
<glyph unicode="&#xc6;" glyph-name="AE" horiz-adv-x="943" d="M563 627V403H847V330H563V73H888Q888 31 877 16T830 0H472V206H176Q136 106 116 0H15Q54 194 154 378T413 700H890V627H563ZM472 279V627H463Q387 562 322 473T208 279H472Z" />
<glyph unicode="&#xc7;" glyph-name="Ccedilla" horiz-adv-x="609" d="M535 127T546 114T557 85Q557 52 509 25T392 -9L353 -54H362Q405 -54 432 -76T459 -136Q459 -181 425 -206T331 -232Q282 -232 258 -220T234 -186Q234 -177 238 -170Q279 -181 322 -181Q382
-181 382 -138Q382 -125 371 -115T337 -104Q322 -104 301 -110L278 -75L325 -8Q194 3 123 95T52 350Q52 522 133 616T362 710Q422 710 474 690T563 632Q557 609 543 593T514 577Q500 577 488 586Q458 609 428 619T360 630Q258 630 206 560T154 350Q154 213 206
142T360 71Q406 71 445 85T519 131Q535 127 546 114Z" />
<glyph unicode="&#xc8;" glyph-name="Egrave" horiz-adv-x="560" d="M508 75Q508 30 498 15T456 0H79V700H504V625H179V397H456V321H179V75H508ZM405 893H514L602 742H523L405 893Z" />
<glyph unicode="&#xc9;" glyph-name="Eacute" horiz-adv-x="560" d="M508 75Q508 30 498 15T456 0H79V700H504V625H179V397H456V321H179V75H508ZM314 893H425L301 742H215L314 893Z" />
<glyph unicode="&#xca;" glyph-name="Ecircumflex" horiz-adv-x="560" d="M508 75Q508 30 498 15T456 0H79V700H504V625H179V397H456V321H179V75H508ZM487 881H586L691 742H613L537 825L459 742H381L487 881Z" />
<glyph unicode="&#xcb;" glyph-name="Edieresis" horiz-adv-x="560" d="M508 75Q508 30 498 15T456 0H79V700H504V625H179V397H456V321H179V75H508ZM123 752T123 804V814Q123 866 175 866H184Q236 866 236 814V804Q236 752 184 752H175Q123 752 123 804ZM326 752T326
804V814Q326 866 377 866H387Q438 866 438 814V804Q438 752 387 752H377Q326 752 326 804Z" />
<glyph unicode="&#xcc;" glyph-name="Igrave" horiz-adv-x="350" d="M125 700H225V0H125V700ZM300 893H409L497 742H418L300 893Z" />
<glyph unicode="&#xcd;" glyph-name="Iacute" horiz-adv-x="350" d="M125 700H225V0H125V700ZM209 893H320L196 742H110L209 893Z" />
<glyph unicode="&#xce;" glyph-name="Icircumflex" horiz-adv-x="350" d="M125 700H225V0H125V700ZM382 881H481L586 742H508L432 825L354 742H276L382 881Z" />
<glyph unicode="&#xcf;" glyph-name="Idieresis" horiz-adv-x="350" d="M125 700H225V0H125V700ZM18 752T18 804V814Q18 866 70 866H79Q131 866 131 814V804Q131 752 79 752H70Q18 752 18 804ZM221 752T221 804V814Q221 866 272 866H282Q333 866 333 814V804Q333
752 282 752H272Q221 752 221 804Z" />
<glyph unicode="&#xd0;" glyph-name="Eth" horiz-adv-x="672" d="M453 700T539 609T625 350Q625 243 585 164T471 43T296 0H79V320H1V391H79V700H296Q453 700 539 609ZM404 75T464 145T524 349Q524 488 466 556T290 625H179V391H346V320H179V75H290Q404 75 464 145Z" />
<glyph unicode="&#xd1;" glyph-name="Ntilde" horiz-adv-x="693" d="M610 106T612 64Q614 36 614 27Q614 0 588 0H511V47Q511 104 472 158L178 562V0H79V700H164Q177 700 185 697T202 680L511 256V700H610V137Q610 106 612 64ZM474 748T462 757T450 785Q450 821
474 841T537 861Q559 861 575 855T612 838Q627 829 638 825T662 821Q701 821 706 864Q756 864 756 824Q756 794 733 772T671 750Q648 750 631 756T593 773Q575 782 564 786T539 791Q501 791 496 748Q474 748 462 757Z" />
<glyph unicode="&#xd2;" glyph-name="Ograve" horiz-adv-x="680" d="M198 -10T122 84T45 354Q45 525 121 617T340 710Q482 710 558 618T635 354Q635 179 559 85T340 -10Q198 -10 122 84ZM533 69T533 354Q533 494 486 562T340 631Q242 631 195 563T147 354Q147
69 340 69Q533 69 533 354ZM465 893H574L662 742H583L465 893Z" />
<glyph unicode="&#xd3;" glyph-name="Oacute" horiz-adv-x="680" d="M198 -10T122 84T45 354Q45 525 121 617T340 710Q482 710 558 618T635 354Q635 179 559 85T340 -10Q198 -10 122 84ZM533 69T533 354Q533 494 486 562T340 631Q242 631 195 563T147 354Q147
69 340 69Q533 69 533 354ZM374 893H485L361 742H275L374 893Z" />
<glyph unicode="&#xd4;" glyph-name="Ocircumflex" horiz-adv-x="680" d="M198 -10T122 84T45 354Q45 525 121 617T340 710Q482 710 558 618T635 354Q635 179 559 85T340 -10Q198 -10 122 84ZM533 69T533 354Q533 494 486 562T340 631Q242 631 195 563T147 354Q147
69 340 69Q533 69 533 354ZM547 881H646L751 742H673L597 825L519 742H441L547 881Z" />
<glyph unicode="&#xd5;" glyph-name="Otilde" horiz-adv-x="680" d="M198 -10T122 84T45 354Q45 525 121 617T340 710Q482 710 558 618T635 354Q635 179 559 85T340 -10Q198 -10 122 84ZM533 69T533 354Q533 494 486 562T340 631Q242 631 195 563T147 354Q147
69 340 69Q533 69 533 354ZM468 751T456 760T444 788Q444 824 468 844T531 864Q553 864 569 858T606 841Q621 832 632 828T656 824Q695 824 700 867Q750 867 750 827Q750 797 727 775T665 753Q642 753 625 759T587 776Q569 785 558 789T533 794Q495 794 490 751Q468
751 456 760Z" />
<glyph unicode="&#xd6;" glyph-name="Odieresis" horiz-adv-x="680" d="M198 -10T122 84T45 354Q45 525 121 617T340 710Q482 710 558 618T635 354Q635 179 559 85T340 -10Q198 -10 122 84ZM533 69T533 354Q533 494 486 562T340 631Q242 631 195 563T147 354Q147
69 340 69Q533 69 533 354ZM183 752T183 804V814Q183 866 235 866H244Q296 866 296 814V804Q296 752 244 752H235Q183 752 183 804ZM386 752T386 804V814Q386 866 437 866H447Q498 866 498 814V804Q498 752 447 752H437Q386 752 386 804Z" />
<glyph unicode="&#xd7;" glyph-name="multiply" horiz-adv-x="600" d="M100 171L253 324L100 477L147 524L300 371L453 524L500 477L347 324L500 171L453 124L300 277L147 124L100 171Z" />
<glyph unicode="&#xd8;" glyph-name="Oslash" horiz-adv-x="680" d="M635 523T635 354Q635 179 559 85T340 -10Q231 -10 159 48L125 0H53L117 90Q45 185 45 354Q45 525 121 617T340 710Q447 710 518 657L549 701H621L560 615Q635 523 635 354ZM147 244T176 174L467
585Q421 631 340 631Q242 631 195 563T147 354Q147 244 176 174ZM533 69T533 354Q533 468 502 533L210 121Q258 69 340 69Q533 69 533 354Z" />
<glyph unicode="&#xd9;" glyph-name="Ugrave" horiz-adv-x="709" d="M219 -10T151 55T83 251V700H182V237Q182 151 225 110T356 68Q445 68 487 109T529 237V700H628V251Q628 117 562 54T356 -10Q219 -10 151 55ZM479 893H588L676 742H597L479 893Z" />
<glyph unicode="&#xda;" glyph-name="Uacute" horiz-adv-x="709" d="M219 -10T151 55T83 251V700H182V237Q182 151 225 110T356 68Q445 68 487 109T529 237V700H628V251Q628 117 562 54T356 -10Q219 -10 151 55ZM388 893H499L375 742H289L388 893Z" />
<glyph unicode="&#xdb;" glyph-name="Ucircumflex" horiz-adv-x="709" d="M219 -10T151 55T83 251V700H182V237Q182 151 225 110T356 68Q445 68 487 109T529 237V700H628V251Q628 117 562 54T356 -10Q219 -10 151 55ZM561 881H660L765 742H687L611 825L533 742H455L561
881Z" />
<glyph unicode="&#xdc;" glyph-name="Udieresis" horiz-adv-x="709" d="M219 -10T151 55T83 251V700H182V237Q182 151 225 110T356 68Q445 68 487 109T529 237V700H628V251Q628 117 562 54T356 -10Q219 -10 151 55ZM197 752T197 804V814Q197 866 249 866H258Q310
866 310 814V804Q310 752 258 752H249Q197 752 197 804ZM400 752T400 804V814Q400 866 451 866H461Q512 866 512 814V804Q512 752 461 752H451Q400 752 400 804Z" />
<glyph unicode="&#xdd;" glyph-name="Yacute" horiz-adv-x="590" d="M573 700L344 294V0H246V294L17 700H121L296 383L470 700H573ZM329 890H440L316 739H230L329 890Z" />
<glyph unicode="&#xde;" glyph-name="Thorn" horiz-adv-x="641" d="M452 599T517 537T583 366Q583 257 517 193T316 129H196V0H98V700H196V599H316Q452 599 517 537ZM402 206T442 247T483 366Q483 443 443 482T313 521H196V206H313Q402 206 442 247Z" />
<glyph unicode="&#xdf;" glyph-name="germandbls" horiz-adv-x="624" d="M496 349T529 305T563 199Q563 96 505 41T352 -14Q290 -14 247 4T204 61Q204 74 210 83T227 96Q254 75 283 65T349 55Q410 55 444 89T478 191Q478 253 444 288T343 323Q335 323 315 321L291
320Q278 320 268 342T258 381Q258 390 265 390H328Q380 390 416 428T452 530Q452 590 417 627T314 664Q244 664 205 626T165 515V0H77V515Q77 583 109 631T195 705T316 731Q383 731 433 704T511 631T539 530Q539 467 512 425T438 363Q496 349 529 305Z" />
<glyph unicode="&#xe0;" glyph-name="agrave" d="M486 102T493 72T520 20Q506 9 486 2T449 -6Q403 -6 394 76Q364 35 318 13T213 -10Q138 -10 93 29T47 133Q47 317 391 334V373Q391 431 362 459T272 487Q232 487 197 471T117 415Q110 410 104 410Q91 410 76 423T48
461Q90 508 152 534T281 560Q377 560 431 511T486 373V160Q486 102 493 72ZM280 59T320 86T391 165V272Q143 261 143 139Q143 100 166 80T234 59Q280 59 320 86ZM402 780H511L599 629H520L402 780Z" />
<glyph unicode="&#xe1;" glyph-name="aacute" d="M486 102T493 72T520 20Q506 9 486 2T449 -6Q403 -6 394 76Q364 35 318 13T213 -10Q138 -10 93 29T47 133Q47 317 391 334V373Q391 431 362 459T272 487Q232 487 197 471T117 415Q110 410 104 410Q91 410 76 423T48
461Q90 508 152 534T281 560Q377 560 431 511T486 373V160Q486 102 493 72ZM280 59T320 86T391 165V272Q143 261 143 139Q143 100 166 80T234 59Q280 59 320 86ZM311 780H422L298 629H212L311 780Z" />
<glyph unicode="&#xe2;" glyph-name="acircumflex" d="M486 102T493 72T520 20Q506 9 486 2T449 -6Q403 -6 394 76Q364 35 318 13T213 -10Q138 -10 93 29T47 133Q47 317 391 334V373Q391 431 362 459T272 487Q232 487 197 471T117 415Q110 410 104 410Q91 410
76 423T48 461Q90 508 152 534T281 560Q377 560 431 511T486 373V160Q486 102 493 72ZM280 59T320 86T391 165V272Q143 261 143 139Q143 100 166 80T234 59Q280 59 320 86ZM484 768H583L688 629H610L534 712L456 629H378L484 768Z" />
<glyph unicode="&#xe3;" glyph-name="atilde" d="M486 102T493 72T520 20Q506 9 486 2T449 -6Q403 -6 394 76Q364 35 318 13T213 -10Q138 -10 93 29T47 133Q47 317 391 334V373Q391 431 362 459T272 487Q232 487 197 471T117 415Q110 410 104 410Q91 410 76 423T48
461Q90 508 152 534T281 560Q377 560 431 511T486 373V160Q486 102 493 72ZM280 59T320 86T391 165V272Q143 261 143 139Q143 100 166 80T234 59Q280 59 320 86ZM405 638T393 647T381 675Q381 711 405 731T468 751Q490 751 506 745T543 728Q558 719 569 715T593
711Q632 711 637 754Q687 754 687 714Q687 684 664 662T602 640Q579 640 562 646T524 663Q506 672 495 676T470 681Q432 681 427 638Q405 638 393 647Z" />
<glyph unicode="&#xe4;" glyph-name="adieresis" d="M486 102T493 72T520 20Q506 9 486 2T449 -6Q403 -6 394 76Q364 35 318 13T213 -10Q138 -10 93 29T47 133Q47 317 391 334V373Q391 431 362 459T272 487Q232 487 197 471T117 415Q110 410 104 410Q91 410 76
423T48 461Q90 508 152 534T281 560Q377 560 431 511T486 373V160Q486 102 493 72ZM280 59T320 86T391 165V272Q143 261 143 139Q143 100 166 80T234 59Q280 59 320 86ZM120 639T120 691V701Q120 753 172 753H181Q233 753 233 701V691Q233 639 181 639H172Q120
639 120 691ZM323 639T323 691V701Q323 753 374 753H384Q435 753 435 701V691Q435 639 384 639H374Q323 639 323 691Z" />
<glyph unicode="&#xe5;" glyph-name="aring" d="M486 102T493 72T520 20Q506 9 486 2T449 -6Q403 -6 394 76Q364 35 318 13T213 -10Q138 -10 93 29T47 133Q47 317 391 334V373Q391 431 362 459T272 487Q232 487 197 471T117 415Q110 410 104 410Q91 410 76 423T48
461Q90 508 152 534T281 560Q377 560 431 511T486 373V160Q486 102 493 72ZM280 59T320 86T391 165V272Q143 261 143 139Q143 100 166 80T234 59Q280 59 320 86ZM484 631T450 664T416 747Q416 797 450 830T533 864Q582 864 616 831T650 747Q650 697 616 664T533
631Q484 631 450 664ZM556 691T572 707T589 747Q589 772 573 787T533 803Q509 803 493 788T476 747Q476 724 492 708T533 691Q556 691 572 707Z" />
<glyph unicode="&#xe6;" glyph-name="ae" horiz-adv-x="909" d="M872 291T867 261H490Q496 59 639 59Q695 59 726 80T779 144Q786 156 800 156Q822 156 861 128Q839 63 784 26T639 -12Q572 -12 521 13T438 89Q401 41 347 15T223 -12Q145 -12 96 26T47 132Q47 327
393 332V373Q393 487 277 487Q228 487 195 469T116 414Q110 408 102 408Q90 408 75 422T48 461Q91 505 150 532T281 560Q340 560 385 540T457 481Q490 520 538 540T645 560Q754 560 813 500T872 321Q872 291 867 261ZM775 325Q775 493 642 493Q578 493 540 451T492
325H775ZM288 57T334 89T403 177Q395 215 393 266Q260 261 202 229T143 138Q143 99 166 78T234 57Q288 57 334 89Z" />
<glyph unicode="&#xe7;" glyph-name="ccedilla" horiz-adv-x="560" d="M483 183T497 169T512 128Q512 95 487 66T420 16T327 -9L288 -54H297Q340 -54 367 -76T394 -136Q394 -181 360 -206T266 -232Q217 -232 193 -220T169 -186Q169 -177 173 -170Q214 -181 257
-181Q317 -181 317 -138Q317 -125 306 -115T272 -104Q257 -104 236 -110L213 -75L260 -8Q152 3 95 77T37 278Q37 364 68 428T157 526T294 560Q388 560 448 513T520 385Q504 376 486 371T454 365Q442 365 436 372T424 398Q411 444 378 467T294 491Q220 491 177 434T133
278Q133 175 177 118T299 61Q417 61 456 183Q483 183 497 169Z" />
<glyph unicode="&#xe8;" glyph-name="egrave" horiz-adv-x="567" d="M530 293T527 261H143Q147 166 187 114T297 61Q344 61 375 80T437 146Q445 157 459 157Q482 157 519 130Q493 64 435 27T297 -10Q220 -10 164 24T77 123T47 276Q47 409 114 484T301 560Q410
560 470 495T530 313Q530 293 527 261ZM433 325Q433 490 298 490Q231 490 192 448T145 325H433ZM414 780H523L611 629H532L414 780Z" />
<glyph unicode="&#xe9;" glyph-name="eacute" horiz-adv-x="567" d="M530 293T527 261H143Q147 166 187 114T297 61Q344 61 375 80T437 146Q445 157 459 157Q482 157 519 130Q493 64 435 27T297 -10Q220 -10 164 24T77 123T47 276Q47 409 114 484T301 560Q410
560 470 495T530 313Q530 293 527 261ZM433 325Q433 490 298 490Q231 490 192 448T145 325H433ZM323 780H434L310 629H224L323 780Z" />
<glyph unicode="&#xea;" glyph-name="ecircumflex" horiz-adv-x="567" d="M530 293T527 261H143Q147 166 187 114T297 61Q344 61 375 80T437 146Q445 157 459 157Q482 157 519 130Q493 64 435 27T297 -10Q220 -10 164 24T77 123T47 276Q47 409 114 484T301 560Q410
560 470 495T530 313Q530 293 527 261ZM433 325Q433 490 298 490Q231 490 192 448T145 325H433ZM496 768H595L700 629H622L546 712L468 629H390L496 768Z" />
<glyph unicode="&#xeb;" glyph-name="edieresis" horiz-adv-x="567" d="M530 293T527 261H143Q147 166 187 114T297 61Q344 61 375 80T437 146Q445 157 459 157Q482 157 519 130Q493 64 435 27T297 -10Q220 -10 164 24T77 123T47 276Q47 409 114 484T301 560Q410
560 470 495T530 313Q530 293 527 261ZM433 325Q433 490 298 490Q231 490 192 448T145 325H433ZM132 639T132 691V701Q132 753 184 753H193Q245 753 245 701V691Q245 639 193 639H184Q132 639 132 691ZM335 639T335 691V701Q335 753 386 753H396Q447 753 447 701V691Q447
639 396 639H386Q335 639 335 691Z" />
<glyph unicode="&#xec;" glyph-name="igrave" horiz-adv-x="288" d="M97 550H191V0H97V550ZM269 780H378L466 629H387L269 780Z" />
<glyph unicode="&#xed;" glyph-name="iacute" horiz-adv-x="288" d="M97 550H191V0H97V550ZM178 780H289L165 629H79L178 780Z" />
<glyph unicode="&#xee;" glyph-name="icircumflex" horiz-adv-x="288" d="M97 550H191V0H97V550ZM351 768H450L555 629H477L401 712L323 629H245L351 768Z" />
<glyph unicode="&#xef;" glyph-name="idieresis" horiz-adv-x="288" d="M97 550H191V0H97V550ZM-13 639T-13 691V701Q-13 753 39 753H48Q100 753 100 701V691Q100 639 48 639H39Q-13 639 -13 691ZM190 639T190 691V701Q190 753 241 753H251Q302 753 302 701V691Q302
639 251 639H241Q190 639 190 691Z" />
<glyph unicode="&#xf0;" glyph-name="eth" horiz-adv-x="567" d="M452 604T489 505T527 285Q527 149 469 69T284 -12Q159 -12 100 67T40 272Q40 347 65 410T144 513T284 553Q331 553 368 538Q337 592 294 637L210 585L172 639L245 684Q214 711 172 740L238 797Q291
761 323 733L423 795L459 740L373 686Q452 604 489 505ZM362 55T396 108T430 272Q430 376 396 431T284 486Q207 486 172 431T137 272Q137 162 171 109T284 55Q362 55 396 108Z" />
<glyph unicode="&#xf1;" glyph-name="ntilde" horiz-adv-x="610" d="M527 75T529 52T539 10Q503 -5 464 -5Q445 -5 439 17T432 102V370Q432 434 410 461T335 489Q258 489 175 414V0H80V365Q80 503 68 536Q115 554 142 554Q175 554 175 496V486Q223 525 265 542T356
560Q442 560 484 514T527 372V131Q527 75 529 52ZM433 638T421 647T409 675Q409 711 433 731T496 751Q518 751 534 745T571 728Q586 719 597 715T621 711Q660 711 665 754Q715 754 715 714Q715 684 692 662T630 640Q607 640 590 646T552 663Q534 672 523 676T498
681Q460 681 455 638Q433 638 421 647Z" />
<glyph unicode="&#xf2;" glyph-name="ograve" horiz-adv-x="555" d="M159 -10T98 63T37 276Q37 416 98 488T277 560Q395 560 456 488T518 276Q518 136 457 63T277 -10Q159 -10 98 63ZM352 59T386 111T421 276Q421 388 387 439T277 491Q202 491 168 440T133 276Q133
163 168 111T277 59Q352 59 386 111ZM402 780H511L599 629H520L402 780Z" />
<glyph unicode="&#xf3;" glyph-name="oacute" horiz-adv-x="555" d="M159 -10T98 63T37 276Q37 416 98 488T277 560Q395 560 456 488T518 276Q518 136 457 63T277 -10Q159 -10 98 63ZM352 59T386 111T421 276Q421 388 387 439T277 491Q202 491 168 440T133 276Q133
163 168 111T277 59Q352 59 386 111ZM311 780H422L298 629H212L311 780Z" />
<glyph unicode="&#xf4;" glyph-name="ocircumflex" horiz-adv-x="555" d="M159 -10T98 63T37 276Q37 416 98 488T277 560Q395 560 456 488T518 276Q518 136 457 63T277 -10Q159 -10 98 63ZM352 59T386 111T421 276Q421 388 387 439T277 491Q202 491 168 440T133
276Q133 163 168 111T277 59Q352 59 386 111ZM484 768H583L688 629H610L534 712L456 629H378L484 768Z" />
<glyph unicode="&#xf5;" glyph-name="otilde" horiz-adv-x="555" d="M159 -10T98 63T37 276Q37 416 98 488T277 560Q395 560 456 488T518 276Q518 136 457 63T277 -10Q159 -10 98 63ZM352 59T386 111T421 276Q421 388 387 439T277 491Q202 491 168 440T133 276Q133
163 168 111T277 59Q352 59 386 111ZM405 638T393 647T381 675Q381 711 405 731T468 751Q490 751 506 745T543 728Q558 719 569 715T593 711Q632 711 637 754Q687 754 687 714Q687 684 664 662T602 640Q579 640 562 646T524 663Q506 672 495 676T470 681Q432 681
427 638Q405 638 393 647Z" />
<glyph unicode="&#xf6;" glyph-name="odieresis" horiz-adv-x="555" d="M159 -10T98 63T37 276Q37 416 98 488T277 560Q395 560 456 488T518 276Q518 136 457 63T277 -10Q159 -10 98 63ZM352 59T386 111T421 276Q421 388 387 439T277 491Q202 491 168 440T133
276Q133 163 168 111T277 59Q352 59 386 111ZM120 639T120 691V701Q120 753 172 753H181Q233 753 233 701V691Q233 639 181 639H172Q120 639 120 691ZM323 639T323 691V701Q323 753 374 753H384Q435 753 435 701V691Q435 639 384 639H374Q323 639 323 691Z" />
<glyph unicode="&#xf7;" glyph-name="divide" horiz-adv-x="600" d="M266 467T249 483T232 523Q232 546 249 562T289 579Q313 579 330 563T347 523Q347 500 330 484T289 467Q266 467 249 483ZM70 357H530V291H70V357ZM266 73T249 89T232 129Q232 153 249 169T289
186Q313 186 330 170T347 129Q347 106 330 90T289 73Q266 73 249 89Z" />
<glyph unicode="&#xf8;" glyph-name="oslash" horiz-adv-x="555" d="M464 479Q518 407 518 276Q518 136 457 63T277 -10Q185 -10 127 35L101 0H30L88 76Q37 148 37 276Q37 416 98 488T277 560Q365 560 423 519L447 550H518L464 479ZM133 203T148 155L375 454Q339
491 277 491Q202 491 168 440T133 276Q133 203 148 155ZM421 354T405 401L176 100Q211 59 277 59Q352 59 386 111T421 276Q421 354 405 401Z" />
<glyph unicode="&#xf9;" glyph-name="ugrave" horiz-adv-x="616" d="M530 55T545 10Q517 -5 483 -5Q459 -5 449 11T436 70Q407 33 360 12T256 -10Q170 -10 127 36T83 175V550H178V182Q178 116 201 87T278 57Q325 57 366 81T435 151V550H530V120Q530 55 545 10ZM433
780H542L630 629H551L433 780Z" />
<glyph unicode="&#xfa;" glyph-name="uacute" horiz-adv-x="616" d="M530 55T545 10Q517 -5 483 -5Q459 -5 449 11T436 70Q407 33 360 12T256 -10Q170 -10 127 36T83 175V550H178V182Q178 116 201 87T278 57Q325 57 366 81T435 151V550H530V120Q530 55 545 10ZM342
780H453L329 629H243L342 780Z" />
<glyph unicode="&#xfb;" glyph-name="ucircumflex" horiz-adv-x="616" d="M530 55T545 10Q517 -5 483 -5Q459 -5 449 11T436 70Q407 33 360 12T256 -10Q170 -10 127 36T83 175V550H178V182Q178 116 201 87T278 57Q325 57 366 81T435 151V550H530V120Q530 55 545
10ZM515 768H614L719 629H641L565 712L487 629H409L515 768Z" />
<glyph unicode="&#xfc;" glyph-name="udieresis" horiz-adv-x="616" d="M530 55T545 10Q517 -5 483 -5Q459 -5 449 11T436 70Q407 33 360 12T256 -10Q170 -10 127 36T83 175V550H178V182Q178 116 201 87T278 57Q325 57 366 81T435 151V550H530V120Q530 55 545
10ZM151 639T151 691V701Q151 753 203 753H212Q264 753 264 701V691Q264 639 212 639H203Q151 639 151 691ZM354 639T354 691V701Q354 753 405 753H415Q466 753 466 701V691Q466 639 415 639H405Q354 639 354 691Z" />
<glyph unicode="&#xfd;" glyph-name="yacute" horiz-adv-x="502" d="M496 550L283 -42Q252 -127 209 -164T95 -201Q53 -201 28 -187T3 -149Q3 -126 23 -107Q34 -115 53 -119T91 -124Q131 -124 157 -93T205 9L9 550H108L253 131L397 550H496ZM285 780H396L272 629H186L285
780Z" />
<glyph unicode="&#xfe;" glyph-name="thorn" horiz-adv-x="609" d="M437 560T499 494T562 281Q562 186 530 121T440 22T309 -12Q240 -12 178 13V-223H82V787H178V500Q240 560 331 560Q437 560 499 494ZM377 57T420 112T464 281Q464 392 428 441T323 491Q241 491
178 423V85Q234 57 301 57Q377 57 420 112Z" />
<glyph unicode="&#xff;" glyph-name="ydieresis" horiz-adv-x="502" d="M496 550L283 -42Q252 -127 209 -164T95 -201Q53 -201 28 -187T3 -149Q3 -126 23 -107Q34 -115 53 -119T91 -124Q131 -124 157 -93T205 9L9 550H108L253 131L397 550H496ZM94 639T94 691V701Q94
753 146 753H155Q207 753 207 701V691Q207 639 155 639H146Q94 639 94 691ZM297 639T297 691V701Q297 753 348 753H358Q409 753 409 701V691Q409 639 358 639H348Q297 639 297 691Z" />
<glyph unicode="&#x2013;" glyph-name="endash" horiz-adv-x="623" d="M50 340H573V274H50V340Z" />
<glyph unicode="&#x2014;" glyph-name="emdash" horiz-adv-x="1100" d="M50 340H1050V274H50V340Z" />
<glyph unicode="&#x2018;" glyph-name="quoteleft" horiz-adv-x="243" d="M150 627T163 612T177 572V559Q177 534 163 519T125 504H110Q85 504 70 519T55 562V576Q55 648 101 718Q130 761 153 761Q173 761 187 749Q156 712 141 685T120 627H126Q150 627 163 612Z" />
<glyph unicode="&#x2019;" glyph-name="quoteright" horiz-adv-x="243" d="M165 780T180 765T195 722V708Q195 636 149 566Q120 523 97 523Q77 523 63 535Q94 572 109 599T130 657H124Q100 657 87 672T73 712V725Q73 750 87 765T125 780H140Q165 780 180 765Z" />
<glyph unicode="&#x201a;" glyph-name="quotesinglbase" horiz-adv-x="257" d="M165 121T180 106T195 63V49Q195 -23 149 -93Q120 -136 97 -136Q77 -136 63 -124Q94 -87 109 -60T130 -2H124Q100 -2 87 13T73 53V66Q73 91 87 106T125 121H140Q165 121 180 106Z" />
<glyph unicode="&#x201c;" glyph-name="quotedblleft" horiz-adv-x="423" d="M180 761T194 749Q162 712 147 685T126 627H133Q157 627 170 612T184 572V559Q184 534 170 519T132 504H117Q92 504 77 519T62 562V576Q62 648 108 718Q123 741 135 751T159 761Q180
761 194 749ZM324 627T337 612T351 572V559Q351 534 337 519T298 504H283Q259 504 244 519T229 562V576Q229 651 275 718Q290 741 302 751T326 761Q345 761 361 749Q329 712 314 685T293 627H300Q324 627 337 612Z" />
<glyph unicode="&#x201d;" glyph-name="quotedblright" horiz-adv-x="423" d="M332 780T347 765T362 722V708Q362 636 316 566Q287 523 264 523Q244 523 230 535Q261 572 276 599T297 657H291Q267 657 254 672T240 712V725Q240 750 254 765T292 780H307Q332 780
347 765ZM165 780T180 765T195 722V708Q195 636 149 566Q120 523 97 523Q77 523 63 535Q94 572 109 599T130 657H124Q100 657 87 672T73 712V725Q73 750 87 765T125 780H140Q165 780 180 765Z" />
<glyph unicode="&#x201e;" glyph-name="quotedblbase" horiz-adv-x="423" d="M332 121T347 106T362 63V49Q362 -23 316 -93Q287 -136 264 -136Q244 -136 230 -124Q261 -87 276 -60T297 -2H291Q267 -2 254 13T240 53V66Q240 91 254 106T292 121H307Q332 121 347
106ZM165 121T180 106T195 63V49Q195 -23 149 -93Q120 -136 97 -136Q77 -136 63 -124Q94 -87 109 -60T130 -2H124Q100 -2 87 13T73 53V66Q73 91 87 106T125 121H140Q165 121 180 106Z" />
<glyph unicode="&#x2022;" glyph-name="bullet" horiz-adv-x="560" d="M228 197T187 220T123 284T100 377Q100 429 123 470T187 534T280 557Q332 557 373 534T437 470T460 377Q460 325 437 284T373 220T280 197Q228 197 187 220Z" />
<glyph unicode="&#x2039;" glyph-name="guilsinglleft" horiz-adv-x="340" d="M57 288L185 452H273L154 288L273 117H185L57 288Z" />
<glyph unicode="&#x203a;" glyph-name="guilsinglright" horiz-adv-x="340" d="M67 117L186 288L67 452H155L283 288L155 117H67Z" />
</font>
</defs>
</svg>
