<?xml version="1.0" standalone="no"?>
<!DOCTYPE svg PUBLIC "-//W3C//DTD SVG 1.1//EN" "http://www.w3.org/Graphics/SVG/1.1/DTD/svg11.dtd">
<svg xmlns="http://www.w3.org/2000/svg">
<defs >
<font id="Krub" horiz-adv-x="562" ><font-face
    font-family="Krub Medium"
    units-per-em="1000"
    panose-1="0 0 6 0 0 0 0 0 0 0"
    ascent="1007"
    descent="-293"
    alphabetic="0" />
<glyph unicode=" " glyph-name="space" horiz-adv-x="258" />
<glyph unicode="!" glyph-name="exclam" horiz-adv-x="246" d="M108 700H220L130 213H61L108 700ZM11 -2T11 42Q11 50 12 54L14 65Q22 121 78 121H88Q137 121 137 77Q137 69 136 65L134 54Q126 -2 71 -2H61Q11 -2 11 42Z" />
<glyph unicode="&quot;" glyph-name="quotedbl" horiz-adv-x="324" d="M91 737H182L137 505H73L91 737ZM234 737H325L279 505H215L234 737Z" />
<glyph unicode="#" glyph-name="numbersign" horiz-adv-x="540" d="M425 426L379 272H470L461 208H359L297 0H230L292 208H156L94 0H27L89 208H-3L6 272H109L155 426H54L63 490H174L237 700H304L241 490H377L440 700H507L444 490H527L518 426H425ZM358 426H222L176
272H312L358 426Z" />
<glyph unicode="$" glyph-name="dollar" horiz-adv-x="609" d="M417 379T460 354T521 298T539 223Q539 120 472 59T283 -9L267 -120H205L221 -9Q123 -3 63 36T2 135Q2 168 23 186T84 206Q87 145 125 110T231 69L268 332Q161 363 116 407T70 523Q70 578 101 620T190
686T321 710L335 809H397L383 706Q460 694 510 653T571 550Q558 538 541 530T511 522Q497 522 489 528T472 551Q442 610 372 627L340 404Q417 379 460 354ZM172 491T195 468T281 423L310 633Q245 631 209 604T172 531Q172 491 195 468ZM362 78T398 111T434 201Q434
243 412 267T328 313L294 70Q362 78 398 111Z" />
<glyph unicode="%" glyph-name="percent" horiz-adv-x="910" d="M656 710H745L240 -10H151L656 710ZM169 349T131 387T93 494Q93 552 115 599T179 673T275 700Q341 700 378 662T416 558Q416 467 369 408T234 349Q169 349 131 387ZM291 411T314 452T338 558Q338
598 322 618T269 638Q219 638 195 597T171 494Q171 454 189 433T241 411Q291 411 314 452ZM553 -3T515 35T476 141Q476 232 525 290T659 348Q725 348 762 310T800 205Q800 114 753 56T617 -3Q553 -3 515 35ZM675 59T698 100T722 206Q722 246 706 266T652 286Q603
286 579 245T554 143Q554 102 572 81T625 59Q675 59 698 100Z" />
<glyph unicode="&amp;" glyph-name="ampersand" horiz-adv-x="687" d="M507 78T529 72T582 65L577 31Q571 -10 516 -10Q487 -10 461 1T406 39Q323 -10 216 -10Q117 -10 60 35T2 162Q2 216 23 254T80 320T177 381Q140 461 140 529Q140 581 164 622T232 687T328
710Q390 710 431 677T472 585Q472 537 447 499T382 431T280 366Q310 314 351 254T425 155Q458 196 478 247T503 355Q536 355 555 341T574 298Q574 252 550 198T482 97Q507 78 529 72ZM276 644T250 612T223 529Q223 483 251 421Q320 459 355 495T391 582Q391 610
374 627T322 644Q276 644 250 612ZM94 116T128 86T222 55Q294 55 357 94Q316 147 276 209T206 324Q148 290 121 257T94 170Q94 116 128 86Z" />
<glyph unicode="&apos;" glyph-name="quotesingle" horiz-adv-x="223" d="M112 737H203L158 505H93L112 737Z" />
<glyph unicode="(" glyph-name="parenleft" horiz-adv-x="390" d="M65 66T65 269Q65 436 126 585T298 857H382Q276 722 219 570T162 261Q162 66 247 -99H163Q65 66 65 269Z" />
<glyph unicode=")" glyph-name="parenright" horiz-adv-x="390" d="M325 692T325 489Q325 322 264 173T92 -99H8Q114 36 171 188T228 497Q228 692 143 857H227Q325 692 325 489Z" />
<glyph unicode="*" glyph-name="asterisk" horiz-adv-x="618" d="M176 563L315 698L144 736L181 812L333 743L341 923H423L384 743L554 813L570 737L389 698L489 565L415 519L348 673L238 519L176 563Z" />
<glyph unicode="+" glyph-name="plus" horiz-adv-x="600" d="M248 291H34L43 357H257L289 578H359L328 357H543L534 291H319L288 70H218L248 291Z" />
<glyph unicode="," glyph-name="comma" horiz-adv-x="308" d="M143 121T155 109T168 75Q168 54 164 38Q158 2 142 -29T99 -94Q80 -116 67 -126T41 -136Q20 -136 8 -122Q43 -87 63 -60T93 -2H90Q68 -2 55 10T42 43Q42 53 43 62T46 76Q50 100 64 110T104 121H120Q143
121 155 109Z" />
<glyph unicode="-" glyph-name="hyphen" horiz-adv-x="480" d="M50 340H410L401 274H41L50 340Z" />
<glyph unicode="." glyph-name="period" horiz-adv-x="309" d="M43 -2T43 42Q43 50 44 54L45 65Q54 121 109 121H119Q168 121 168 79Q168 70 167 65L166 54Q158 -2 102 -2H92Q43 -2 43 42Z" />
<glyph unicode="/" glyph-name="slash" horiz-adv-x="334" d="M330 811H408L-4 -55H-82L330 811Z" />
<glyph unicode="0" glyph-name="zero" horiz-adv-x="620" d="M139 -12T83 54T26 244Q26 292 33 338Q58 516 139 613T352 710Q463 710 519 641T575 443Q575 399 567 338Q543 170 463 79T251 -12Q139 -12 83 54ZM350 63T402 135T472 338Q481 408 481 444Q481 635
342 635Q170 635 128 338Q121 280 121 245Q121 63 262 63Q350 63 402 135Z" />
<glyph unicode="1" glyph-name="one" horiz-adv-x="459" d="M347 68L338 0H8L17 68H139L211 584Q184 565 155 552T103 539Q82 539 70 551T57 587Q57 599 60 612Q114 614 168 637T261 700H319L230 68H347Z" />
<glyph unicode="2" glyph-name="two" horiz-adv-x="537" d="M504 437T455 361T329 217T141 72H434L424 0H-5L2 49L23 64Q157 162 234 227T362 365T413 516Q413 572 384 600T300 629Q171 629 137 473Q101 473 85 484T69 521Q69 572 102 613T189 677T305 700Q393
700 448 652T504 520Q504 437 455 361Z" />
<glyph unicode="3" glyph-name="three" horiz-adv-x="549" d="M407 338T436 305T465 216Q465 142 430 92T334 16T200 -9Q137 -9 89 4T14 38T-13 84Q-13 101 -4 113T21 131Q92 62 203 62Q276 62 324 102T373 210Q373 261 341 289T257 318Q244 318 224 316L193 315Q178
315 167 335T156 372Q156 380 159 383T169 386H261Q328 386 365 425T403 526Q403 573 374 601T286 629Q230 629 189 601T121 522Q97 522 82 533T66 565Q66 596 96 627T178 679T289 700Q350 700 397 678T469 617T495 528Q495 461 460 416T363 353Q407 338 436 305Z"
/>
<glyph unicode="4" glyph-name="four" horiz-adv-x="522" d="M289 160H-11L-4 206Q109 337 171 450T263 700Q272 702 289 702Q346 702 346 649Q346 594 306 516T209 361T99 232H299L327 425H417L390 232H478L468 160H380L358 0H267L289 160Z" />
<glyph unicode="5" glyph-name="five" horiz-adv-x="556" d="M208 629L165 423Q220 460 296 460Q385 460 438 409T492 270Q492 190 458 127T361 27T219 -9Q158 -9 114 9T47 56T24 112Q24 165 84 171Q107 63 227 63Q308 63 354 121T400 267Q400 327 368 357T275
387Q229 387 193 369T126 313L62 324L139 700H507L497 629H208Z" />
<glyph unicode="6" glyph-name="six" horiz-adv-x="577" d="M358 449T402 425T471 357T496 251Q496 173 465 115T374 25T236 -7Q170 -7 121 23T47 105T21 223Q21 337 73 449T214 633T403 705Q438 705 453 689T469 636Q357 636 272 571T145 398Q177 420 218 434T302
449Q358 449 402 425ZM319 65T361 115T404 248Q404 312 373 344T285 377Q240 377 198 360T120 312Q113 274 113 229Q113 156 145 111T243 65Q319 65 361 115Z" />
<glyph unicode="7" glyph-name="seven" horiz-adv-x="482" d="M504 700L497 653Q364 480 302 350T211 72L197 0H151Q102 0 102 40Q102 45 104 57L109 86Q132 213 210 359T401 625H121Q98 625 86 635T74 663Q74 671 76 682T83 700H504Z" />
<glyph unicode="8" glyph-name="eight" horiz-adv-x="564" d="M490 305T490 199Q490 94 419 43T223 -9Q125 -9 68 36T11 159Q11 237 51 284T173 362Q77 419 77 510Q77 571 109 615T197 682T324 705Q383 705 427 683T494 623T518 538Q518 469 484 428T382 358Q490
305 490 199ZM250 635T210 602T169 513Q169 473 198 442T281 393Q353 415 390 448T427 539Q427 582 397 608T314 635Q250 635 210 602ZM307 62T352 97T397 196Q397 235 369 262T270 318Q184 289 144 254T103 162Q103 116 138 89T234 62Q307 62 352 97Z" />
<glyph unicode="9" glyph-name="nine" horiz-adv-x="577" d="M425 702T476 642T527 482Q527 362 473 249T326 64T126 -7Q71 -7 71 43Q71 56 72 62Q185 62 270 125T399 295Q367 274 327 261T246 247Q156 247 103 297T49 439Q49 516 85 576T183 669T319 702Q425
702 476 642ZM354 319T425 383Q435 430 435 486Q435 554 406 591T307 629Q230 629 186 577T141 445Q141 319 267 319Q354 319 425 383Z" />
<glyph unicode=":" glyph-name="colon" horiz-adv-x="324" d="M94 360T94 404Q94 412 95 416L96 427Q105 483 160 483H170Q219 483 219 441Q219 432 218 427L217 416Q209 360 153 360H143Q94 360 94 404ZM43 -2T43 42Q43 50 44 54L45 65Q54 121 109 121H119Q168
121 168 79Q168 70 167 65L166 54Q158 -2 102 -2H92Q43 -2 43 42Z" />
<glyph unicode=";" glyph-name="semicolon" horiz-adv-x="324" d="M143 121T155 109T168 75Q168 54 164 38Q158 2 142 -29T99 -94Q80 -116 67 -126T41 -136Q20 -136 8 -122Q43 -87 63 -60T93 -2H90Q68 -2 55 10T42 43Q42 53 43 62T46 76Q50 100 64 110T104 121H120Q143
121 155 109ZM94 360T94 404Q94 412 95 416L96 427Q105 483 160 483H170Q219 483 219 441Q219 432 218 427L217 416Q209 360 153 360H143Q94 360 94 404Z" />
<glyph unicode="&lt;" glyph-name="less" horiz-adv-x="600" d="M608 -7L70 265L59 343L521 613L534 525L152 304L596 81L608 -7Z" />
<glyph unicode="=" glyph-name="equal" horiz-adv-x="600" d="M78 468H538L529 400H69L78 468ZM50 264H510L500 196H40L50 264Z" />
<glyph unicode="&gt;" glyph-name="greater" horiz-adv-x="600" d="M541 343L530 265L-8 -7L4 81L448 304L66 525L79 613L541 343Z" />
<glyph unicode="?" glyph-name="question" horiz-adv-x="475" d="M151 236Q159 289 191 327T281 409Q328 446 350 475T372 547Q372 588 346 611T269 634Q213 634 180 604T128 522L50 551Q72 622 133 665T279 709Q363 709 415 665T467 548Q467 504 452 472T412
417T342 361Q293 324 268 296T235 223L231 199H145L151 236ZM108 -2T108 41Q108 46 111 70Q120 121 175 121H185Q234 121 234 79Q234 63 231 52Q224 -2 168 -2H158Q108 -2 108 41Z" />
<glyph unicode="@" glyph-name="at" horiz-adv-x="834" d="M540 274Q538 267 534 251T529 225Q529 201 558 201Q602 201 639 239T699 336T721 447Q721 546 653 604T469 662Q367 662 286 613T160 479T114 291Q114 170 188 103T393 35Q462 35 510 50T607 94Q629
80 626 59Q624 39 590 21T500 -8T385 -20Q229 -20 141 58T52 281Q52 401 108 501T262 659T475 717Q568 717 637 684T744 590T781 451Q781 376 750 305T664 188T545 143Q514 143 494 160T471 204Q451 177 421 160T349 143Q291 143 258 177T225 273Q225 340 252 401T329
501T440 539Q513 539 536 483L548 523H615L540 274ZM403 201T434 232T483 310T501 402Q501 441 484 461T434 481Q395 481 365 451T319 373T303 278Q303 240 318 221T365 201Q403 201 434 232Z" />
<glyph unicode="A" glyph-name="A" horiz-adv-x="633" d="M456 112T446 193H125Q96 118 57 0H-42Q27 209 111 378T307 700H409Q475 542 512 373T561 0H462Q456 112 446 193ZM436 270Q409 454 345 614Q233 451 157 270H436Z" />
<glyph unicode="B" glyph-name="B" horiz-adv-x="618" d="M497 342T524 302T551 212Q551 111 481 56T282 0H26L124 700H357Q453 700 508 656T563 532Q563 471 533 424T454 359Q497 342 524 302ZM462 579T432 602T337 625H212L180 393H308Q387 393 424 427T462
532Q462 579 432 602ZM369 75T410 107T451 217Q451 272 417 296T305 320H170L135 75H273Q369 75 410 107Z" />
<glyph unicode="C" glyph-name="C" horiz-adv-x="609" d="M179 -10T108 65T37 277Q37 409 79 507T200 657T386 710Q450 710 505 689T593 629Q583 607 568 591T539 575Q526 575 512 584Q478 609 448 619T383 630Q308 630 253 588T169 465T140 274Q140 71 320 71Q365
71 402 84T476 127Q492 126 502 114T511 85Q509 60 480 38T406 3T310 -10Q179 -10 108 65Z" />
<glyph unicode="D" glyph-name="D" horiz-adv-x="675" d="M470 700T546 625T623 416Q623 291 577 197T446 52T249 0H22L120 700H334Q470 700 546 625ZM330 75T393 115T489 232T522 413Q522 517 471 571T320 625H209L132 75H243Q330 75 393 115Z" />
<glyph unicode="E" glyph-name="E" horiz-adv-x="560" d="M209 625L177 397H454L444 321H166L132 75H462Q455 31 443 16T399 0H22L120 700H545L535 625H209Z" />
<glyph unicode="F" glyph-name="F" horiz-adv-x="530" d="M209 625L177 398H454L443 323H167L122 0H22L120 700H539L529 625H209Z" />
<glyph unicode="G" glyph-name="G" horiz-adv-x="673" d="M283 631T215 538T146 279Q146 176 192 123T330 69Q377 69 414 79T473 109L500 300H386Q367 300 359 310T350 343Q350 355 353 377H610L567 73Q479 -10 330 -10Q195 -10 120 66T44 280Q44 413 88 510T214
658T411 710Q485 710 548 685T640 619Q626 596 611 581T583 566Q574 566 569 568T555 578Q490 631 406 631Q283 631 215 538Z" />
<glyph unicode="H" glyph-name="H" horiz-adv-x="687" d="M648 700L550 0H451L496 320H167L122 0H22L120 700H220L178 397H507L549 700H648Z" />
<glyph unicode="I" glyph-name="I" horiz-adv-x="350" d="M166 700H266L168 0H68L166 700Z" />
<glyph unicode="J" glyph-name="J" horiz-adv-x="434" d="M58 -10T20 -2T-34 17Q-29 53 -19 69T6 85Q13 85 30 80Q50 74 65 71T101 68Q154 68 185 98T224 186L297 700H396L324 186Q311 97 249 44T95 -10Q58 -10 20 -2Z" />
<glyph unicode="K" glyph-name="K" horiz-adv-x="630" d="M386 343T415 286L551 4Q525 -9 488 -9Q466 -9 454 -2T434 22L321 258Q303 296 282 308T212 320H184L139 0H40L138 700H237L194 395H249Q261 395 266 394L532 700H641L349 369Q386 343 415 286Z" />
<glyph unicode="L" glyph-name="L" horiz-adv-x="513" d="M451 75L441 0H29L127 700H226L138 75H451Z" />
<glyph unicode="M" glyph-name="M" horiz-adv-x="835" d="M735 590T735 448Q735 247 710 0H610Q641 309 641 513L640 573Q585 471 536 366T410 83H335Q314 232 293 342T241 576Q159 315 109 0H10Q75 399 189 700H299Q341 543 361 454T396 265Q443 378 489 470T613
700H724Q735 590 735 448Z" />
<glyph unicode="N" glyph-name="N" horiz-adv-x="693" d="M651 700L572 137Q561 66 560 27Q559 14 551 7T531 0H454L461 48Q462 55 462 70Q462 118 438 159L200 562L121 0H22L120 700H205Q218 700 225 696T240 680L491 256L552 700H651Z" />
<glyph unicode="O" glyph-name="O" horiz-adv-x="687" d="M171 -10T101 67T30 280Q30 410 72 507T193 657T376 710Q501 710 571 637T641 430Q641 293 600 194T481 43T296 -10Q171 -10 101 67ZM414 69T476 162T539 427Q539 525 496 578T372 631Q297 631 243 589T160
468T131 280Q131 179 175 124T299 69Q414 69 476 162Z" />
<glyph unicode="P" glyph-name="P" horiz-adv-x="615" d="M458 700T521 650T585 503Q585 378 508 311T286 244H159L125 0H26L124 700H335Q458 700 521 650ZM386 324T435 367T484 503Q484 564 444 594T321 624H212L170 324H281Q386 324 435 367Z" />
<glyph unicode="Q" glyph-name="Q" horiz-adv-x="680" d="M641 274T588 168T437 18Q466 -24 490 -55Q478 -69 460 -77T421 -85Q384 -85 365 -53Q350 -26 342 -7Q320 -10 296 -10Q171 -10 101 67T30 280Q30 410 72 507T193 657T376 710Q501 710 571 637T641 430Q641
274 588 168ZM464 122T501 208T539 427Q539 525 496 578T372 631Q297 631 243 589T160 468T131 280Q131 179 175 124T299 69H306L266 159H357Q374 121 393 89Q464 122 501 208Z" />
<glyph unicode="R" glyph-name="R" horiz-adv-x="633" d="M428 272T443 237L539 6Q513 -8 479 -8Q456 -8 443 0T424 25L349 211Q333 251 306 267T227 284H165L125 0H26L124 700H354Q469 700 531 655T593 524Q593 442 541 381T404 298Q428 272 443 237ZM300 361Q392
361 441 401T491 518Q491 623 340 623H212L176 361H300Z" />
<glyph unicode="S" glyph-name="S" horiz-adv-x="642" d="M210 -10T153 8T64 60T32 135Q32 168 53 186T114 206Q117 140 161 104T284 68Q370 68 417 102T464 201Q464 235 450 256T402 295T302 331Q193 362 147 406T100 523Q100 578 132 620T221 686T354 710Q454
710 521 667T601 550Q588 538 571 530T541 522Q527 522 519 528T502 551Q482 591 442 612T346 633Q279 633 241 606T202 531Q202 501 214 482T256 446T343 413Q431 385 479 360T548 302T569 223Q569 114 493 52T283 -10Q210 -10 153 8Z" />
<glyph unicode="T" glyph-name="T" horiz-adv-x="534" d="M561 696T561 685Q561 674 560 669Q553 623 514 623H346L259 0H161L248 623H46L56 700H560Q561 696 561 685Z" />
<glyph unicode="U" glyph-name="U" horiz-adv-x="709" d="M56 -10T56 191Q56 216 61 251L124 700H223L158 237Q155 218 155 199Q155 133 193 101T308 68Q397 68 445 109T505 237L570 700H669L606 251Q588 118 513 54T297 -10Q56 -10 56 191Z" />
<glyph unicode="V" glyph-name="V" horiz-adv-x="638" d="M652 700Q598 509 514 337T310 0H215Q142 164 106 335T68 700H171Q171 366 277 106Q455 366 549 700H652Z" />
<glyph unicode="W" glyph-name="W" horiz-adv-x="869" d="M895 700Q850 532 792 378T629 0H520Q488 189 474 297T453 508Q416 399 371 290T245 0H136Q94 210 76 369T56 700H155V644Q155 514 166 399T206 114Q262 234 309 349T444 700H513Q546 419 559 319T591
117Q670 294 715 419T801 700H895Z" />
<glyph unicode="X" glyph-name="X" horiz-adv-x="589" d="M574 632T537 575T456 472T349 370Q398 313 431 263T488 148T514 0H411Q409 91 375 161T280 308Q198 233 145 162T64 0H-40Q-14 82 27 147T116 263T229 370Q182 427 151 472T99 574T73 700H175Q181 620
212 559T298 431Q372 498 420 559T496 700H597Q574 632 537 575Z" />
<glyph unicode="Y" glyph-name="Y" horiz-adv-x="590" d="M614 700L328 294L287 0H189L230 294L58 700H162L292 383L511 700H614Z" />
<glyph unicode="Z" glyph-name="Z" horiz-adv-x="580" d="M553 623L117 73H484L474 0H-6L4 73L447 627H80L90 700H564L553 623Z" />
<glyph unicode="[" glyph-name="bracketleft" horiz-adv-x="389" d="M153 845H376L368 782H241L128 -25H254L245 -88H22L153 845Z" />
<glyph unicode="\" glyph-name="backslash" horiz-adv-x="334" d="M338 -55L-74 811H4L416 -55H338Z" />
<glyph unicode="]" glyph-name="bracketright" horiz-adv-x="389" d="M236 -88H13L21 -25H148L261 782H135L144 845H367L236 -88Z" />
<glyph unicode="^" glyph-name="asciicircum" horiz-adv-x="657" d="M339 791H424L590 324H491L363 678L142 324H43L339 791Z" />
<glyph unicode="_" glyph-name="underscore" horiz-adv-x="684" d="M-72 -102H612L602 -175H-82L-72 -102Z" />
<glyph unicode="`" glyph-name="grave" horiz-adv-x="243" d="M35 780H143L209 629H132L35 780Z" />
<glyph unicode="a" glyph-name="a" horiz-adv-x="561" d="M451 160Q445 118 445 92Q445 68 450 52T465 20Q449 9 429 2T391 -6Q345 -6 348 77Q275 -10 161 -10Q93 -10 51 27T8 133Q8 230 103 278T381 334L386 373Q388 393 388 401Q388 444 363 465T284 487Q236
487 199 469T118 415Q112 410 104 410Q91 410 78 424T55 461Q101 505 165 532T302 560Q388 560 435 519T483 406Q483 384 481 373L451 160ZM237 59T279 87T357 165L372 272Q230 267 168 235T106 139Q106 59 192 59Q237 59 279 87Z" />
<glyph unicode="b" glyph-name="b" horiz-adv-x="610" d="M445 560T501 500T557 337Q557 238 526 159T435 35T289 -10Q238 -10 197 8T131 58Q112 -2 80 -2Q41 -2 9 17Q24 37 34 67T53 157L142 791H238L199 514Q268 560 352 560Q445 560 501 500ZM367 61T413 138T460
335Q460 410 425 450T331 491Q258 491 188 437L146 136Q190 61 281 61Q367 61 413 138Z" />
<glyph unicode="c" glyph-name="c" horiz-adv-x="557" d="M141 -10T78 53T14 226Q14 327 49 402T150 519T304 560Q400 560 455 512T509 381Q470 363 446 363Q423 363 420 396Q418 442 386 467T298 492Q211 492 161 423T111 232Q111 153 149 107T252 61Q308 61
344 87T410 176Q436 176 450 163T465 125Q465 87 438 56T361 8T252 -10Q141 -10 78 53Z" />
<glyph unicode="d" glyph-name="d" horiz-adv-x="598" d="M482 154Q474 98 474 67Q474 42 482 14Q442 -5 409 -5Q377 -5 377 57V61Q307 -10 207 -10Q116 -10 65 47T13 205Q13 310 50 390T154 515T310 560Q344 560 379 549T438 520L476 791H571L482 154ZM427 443Q409
465 376 479T306 493Q248 493 203 458T134 358T109 208Q109 59 225 59Q272 59 311 80T385 144L427 443Z" />
<glyph unicode="e" glyph-name="e" horiz-adv-x="567" d="M121 261Q120 249 120 224Q120 146 155 104T254 61Q308 61 343 79T407 140Q416 153 429 153Q451 153 487 125Q454 58 394 24T248 -10Q145 -10 84 52T23 221Q23 326 57 402T156 519T310 560Q412 560 463
509T515 359Q515 319 507 261H121ZM236 493T191 450T129 325H422Q425 346 425 371Q425 431 395 462T305 493Q236 493 191 450Z" />
<glyph unicode="f" glyph-name="f" horiz-adv-x="345" d="M358 785T382 772T407 734Q407 722 402 712T389 699Q359 714 318 714Q244 714 229 620L219 550H337L328 485H210L143 0H48L116 485H20L29 550H125L135 621Q145 697 192 741T310 785Q358 785 382 772Z" />
<glyph unicode="g" glyph-name="g" horiz-adv-x="585" d="M590 526T584 508Q507 508 476 487Q505 449 505 399Q505 184 255 184Q189 184 159 175T128 144Q128 125 160 117T267 108Q374 108 430 74T487 -25Q487 -110 415 -157T211 -204Q98 -204 38 -169T-23 -70Q-23
-20 12 13T108 55V58Q79 65 63 83T46 127Q46 158 70 181T137 213Q99 234 78 268T57 346Q57 450 120 505T304 560Q377 560 428 529Q458 556 491 572T552 589Q572 589 581 579T590 548Q590 526 584 508ZM336 253T371 289T407 401Q407 448 380 470T296 493Q155 493
155 349Q155 253 263 253Q336 253 371 289ZM160 36T118 12T76 -60Q76 -98 109 -116T214 -134Q301 -134 346 -109T392 -34Q392 3 356 19T241 36Q160 36 118 12Z" />
<glyph unicode="h" glyph-name="h" horiz-adv-x="630" d="M459 560T500 522T541 415Q541 394 539 383L485 0H391L443 372Q445 392 445 399Q445 487 355 487Q315 487 267 469T174 418L115 0H21L132 791H226L184 489Q229 522 282 541T387 560Q459 560 500 522Z" />
<glyph unicode="i" glyph-name="i" horiz-adv-x="288" d="M117 550H211L134 0H40L117 550ZM380 651T380 695Q380 703 381 707L383 718Q391 774 446 774H456Q506 774 506 730Q506 722 505 718L503 707Q495 651 439 651H429Q380 651 380 695Z" />
<glyph unicode="j" glyph-name="j" horiz-adv-x="270" d="M-77 -199T-102 -192T-138 -174Q-144 -167 -144 -157Q-144 -145 -136 -133T-122 -119Q-94 -134 -52 -134Q-22 -134 -3 -116T21 -62L107 550H201L116 -53Q106 -123 63 -161T-51 -199Q-77 -199 -102 -192ZM370
651T370 695Q370 703 371 707L373 718Q381 774 436 774H446Q496 774 496 730Q496 722 495 718L493 707Q485 651 429 651H419Q370 651 370 695Z" />
<glyph unicode="k" glyph-name="k" horiz-adv-x="570" d="M359 286T378 246L498 0Q469 0 446 -3L420 -4Q404 -4 395 2T380 20L295 205Q283 230 260 241T196 251L157 249L122 0H27L138 791H233L168 324L200 325Q227 326 244 335T279 367L431 550H542L356 339Q353
336 346 327T330 310T311 298Q359 286 378 246Z" />
<glyph unicode="l" glyph-name="l" horiz-adv-x="268" d="M141 791H235L124 0H30L141 791Z" />
<glyph unicode="m" glyph-name="m" horiz-adv-x="912" d="M751 560T789 523T827 423Q827 403 825 392L771 0H675L729 389Q732 406 732 420Q732 457 713 475T652 493Q577 493 505 423L503 404L447 0H353L408 399Q410 413 410 420Q410 455 390 474T334 493Q296 493
259 475T182 418L123 0H28L79 360Q93 455 93 513Q93 530 92 535Q110 543 129 548T162 554Q193 554 193 510Q193 497 192 490Q234 527 276 543T369 560Q416 560 449 540T496 482Q539 522 584 541T685 560Q751 560 789 523Z" />
<glyph unicode="n" glyph-name="n" horiz-adv-x="610" d="M526 560T526 420Q526 406 522 372L488 131Q479 65 479 43Q479 23 483 10Q446 -5 406 -5Q394 -5 388 4T382 35Q382 51 389 102L427 370Q430 391 430 408Q430 450 410 469T347 489Q271 489 175 413L118
0H23L74 365Q88 468 88 509Q88 524 86 536Q137 554 163 554Q189 554 189 518Q189 512 187 496L186 486Q240 526 284 543T377 560Q526 560 526 420Z" />
<glyph unicode="o" glyph-name="o" horiz-adv-x="555" d="M119 -10T66 44T12 205Q12 314 46 394T144 517T295 560Q398 560 451 507T505 349Q505 239 471 158T372 34T222 -10Q119 -10 66 44ZM313 59T360 135T408 349Q408 421 379 456T289 491Q204 491 156 415T108
203Q108 130 137 95T228 59Q313 59 360 135Z" />
<glyph unicode="p" glyph-name="p" horiz-adv-x="598" d="M446 560T497 502T549 336Q549 231 513 153T411 33T257 -10Q220 -10 184 -4T122 14L89 -223H-6L75 357Q88 448 88 493Q88 516 81 533Q125 554 157 554Q188 554 188 504V499Q257 560 352 560Q446 560 497
502ZM344 59T397 133T451 335Q451 412 421 451T331 491Q249 491 178 418L132 85Q184 59 252 59Q344 59 397 133Z" />
<glyph unicode="q" glyph-name="q" horiz-adv-x="608" d="M527 554T559 533Q545 512 532 464T510 355L429 -223H334L370 31Q306 -10 227 -10Q163 -10 115 18T40 99T13 222Q13 324 47 400T143 518T287 560Q391 560 442 503Q460 554 490 554Q527 554 559 533ZM424
420L425 427Q403 459 370 476T293 493Q238 493 197 460T133 366T110 221Q110 144 146 101T245 57Q282 57 317 70T381 110L424 420Z" />
<glyph unicode="r" glyph-name="r" horiz-adv-x="413" d="M409 557T409 508L408 498Q403 473 389 459Q365 472 323 472Q258 472 214 424T156 290L116 0H21L98 550H193L180 459Q209 503 251 530T337 557Q409 557 409 508Z" />
<glyph unicode="s" glyph-name="s" horiz-adv-x="492" d="M137 -10T92 3T20 40T-6 90Q-6 112 7 127T47 146Q67 105 105 82T200 59Q260 59 294 83T328 153Q328 187 300 205T211 246Q159 264 127 280T71 326T48 402Q48 453 77 488T153 542T256 560Q327 560 377 534T451
460Q436 443 421 433T393 423Q379 423 368 437Q329 493 253 493Q202 493 171 472T140 414Q140 377 170 357T262 314Q314 295 345 279T399 235T421 162Q421 82 360 36T193 -10Q137 -10 92 3Z" />
<glyph unicode="t" glyph-name="t" horiz-adv-x="384" d="M166 137Q164 121 164 115Q164 60 220 60Q260 60 305 77Q319 69 319 49Q319 36 315 28T299 13Q284 2 257 -4T197 -10Q137 -10 102 20T67 102Q67 110 69 124L119 483H22L32 550H129L150 700H245L224 550H355L345
483H215L166 137Z" />
<glyph unicode="u" glyph-name="u" horiz-adv-x="617" d="M490 120Q484 83 484 57Q484 31 490 10Q457 -5 425 -5Q404 -5 395 6T386 46Q386 58 387 65Q355 29 309 10T210 -10Q132 -10 90 29T48 140Q48 159 51 180L103 550H198L146 182Q143 163 143 147Q143 101
165 79T235 57Q328 57 398 148L455 550H550L490 120Z" />
<glyph unicode="v" glyph-name="v" horiz-adv-x="517" d="M519 550Q484 391 418 257T248 0H158Q96 108 66 223T36 472Q36 523 38 550H134Q131 508 131 469Q131 362 151 271T216 92Q294 194 343 303T421 550H519Z" />
<glyph unicode="w" glyph-name="w" horiz-adv-x="773" d="M761 550Q688 244 534 0H458Q423 96 405 183T382 366Q350 272 307 185T202 0H125Q85 104 67 223T48 491L49 550H143Q141 511 141 440Q141 338 150 261T182 115Q298 301 364 550H450V516Q450 283 509 113Q560
203 596 309T660 550H761Z" />
<glyph unicode="x" glyph-name="x" horiz-adv-x="496" d="M475 480T425 421T287 286Q356 209 392 144T423 0H328Q331 62 304 116T223 231Q154 170 111 116T54 0H-41Q-24 79 30 144T175 286Q109 361 75 420T45 550H140Q137 497 162 448T238 341Q304 398 344 447T396
550H491Q475 480 425 421Z" />
<glyph unicode="y" glyph-name="y" horiz-adv-x="502" d="M516 550L220 -42Q176 -128 129 -164T14 -201Q-27 -201 -50 -187T-74 -148Q-74 -121 -49 -107Q-39 -115 -21 -119T16 -124Q56 -124 87 -93T149 9L29 550H126L213 131L415 550H516Z" />
<glyph unicode="z" glyph-name="z" horiz-adv-x="507" d="M480 490L108 71H429L420 0H-27L-19 61L354 479H66L76 550H489L480 490Z" />
<glyph unicode="{" glyph-name="braceleft" horiz-adv-x="364" d="M114 -98T85 -70T56 6Q56 14 58 32L88 245Q89 252 89 266Q89 294 76 311T31 334L37 377Q76 384 94 407T119 467L149 680Q157 739 195 774T289 809H354L345 745H314Q250 745 239 673L211 474Q204
421 181 394T116 357L115 354Q147 347 163 327T180 268Q180 249 178 238L150 39Q149 33 149 21Q149 -33 204 -33H236L227 -98H162Q114 -98 85 -70Z" />
<glyph unicode="|" glyph-name="bar" horiz-adv-x="256" d="M140 802H226L112 -12H26L140 802Z" />
<glyph unicode="}" glyph-name="braceright" horiz-adv-x="364" d="M250 809T279 781T308 705Q308 697 306 679L276 466Q275 459 275 445Q275 417 288 400T333 377L327 334Q288 327 270 304T245 244L215 31Q207 -28 169 -63T75 -98H10L19 -34H50Q114 -34 125 38L153
237Q160 290 183 317T248 354L249 357Q217 364 201 384T184 443Q184 462 186 473L214 672Q215 678 215 690Q215 744 160 744H128L137 809H202Q250 809 279 781Z" />
<glyph unicode="~" glyph-name="asciitilde" horiz-adv-x="600" d="M30 266Q57 306 97 331T189 356Q220 356 242 346T295 317Q321 300 341 291T388 282Q425 282 448 300T495 357L539 316Q517 270 476 242T379 214Q345 214 321 224T269 254Q241 272 223 280T180
288Q119 288 71 213L30 266Z" />
<glyph unicode="&#xa0;" glyph-name="uni00A0" horiz-adv-x="258" />
<glyph unicode="&#xa1;" glyph-name="exclamdown" horiz-adv-x="243" d="M214 562T214 518Q214 510 213 506L211 495Q203 439 147 439H137Q88 439 88 483Q88 491 89 495L91 506Q99 562 154 562H164Q214 562 214 518ZM117 -140H5L95 347H164L117 -140Z" />
<glyph unicode="&#xa2;" glyph-name="cent" horiz-adv-x="547" d="M417 449T377 473L190 75Q218 61 252 61Q308 61 344 87T410 176Q436 176 450 163T465 125Q465 87 438 56T361 8T252 -10Q199 -10 157 5L117 -80H57L108 28Q63 58 39 108T14 226Q14 327 49 402T150
519T304 560Q336 560 357 556L396 638H455L409 540Q458 520 484 479T509 381Q470 363 446 363Q423 363 420 396Q417 449 377 473ZM326 490Q308 492 298 492Q211 492 161 423T111 232Q111 155 147 110L326 490Z" />
<glyph unicode="&#xa3;" glyph-name="sterling" horiz-adv-x="609" d="M333 61T369 89T425 186L505 174Q488 91 429 41T282 -10Q224 -10 184 3T110 43Q47 -3 -43 -10L-31 72Q50 83 82 130T115 267L114 317H1L10 382H110Q108 430 108 450Q108 574 167 642T339 710Q429
710 486 664T548 537Q536 528 518 522T485 515Q463 515 458 542Q440 639 335 639Q258 639 229 591T200 450Q200 428 202 382H357L348 317H205Q207 277 207 262Q207 167 164 101Q219 61 278 61Q333 61 369 89Z" />
<glyph unicode="&#xa4;" glyph-name="currency" horiz-adv-x="609" d="M-7 122L60 181Q22 233 22 310Q22 332 25 353Q39 451 108 523L57 582L103 624L157 563Q197 593 242 608T334 624Q429 624 496 563L564 624L600 582L533 523Q571 468 571 396Q571 376 568 353Q562
304 541 260T485 181L536 122L488 81L436 140Q351 81 258 81Q162 81 97 140L27 81L-7 122ZM322 167T367 190T441 256T477 353Q479 364 479 385Q479 454 436 496T322 539Q270 539 226 516T152 450T116 353Q114 331 114 322Q114 253 156 210T270 167Q322 167 367
190Z" />
<glyph unicode="&#xa5;" glyph-name="yen" horiz-adv-x="590" d="M381 369H507L499 313H341L328 294L318 224H486L478 168H310L287 0H189L212 168H44L52 224H220L230 294L222 313H65L73 369H198L58 700H162L292 383L511 700H614L381 369Z" />
<glyph unicode="&#xa6;" glyph-name="brokenbar" horiz-adv-x="256" d="M140 802H226L183 495H97L140 802ZM69 295H155L112 -12H26L69 295Z" />
<glyph unicode="&#xa7;" glyph-name="section" horiz-adv-x="487" d="M330 277T330 284Q330 348 270 376L151 432Q116 448 97 477T77 546Q77 622 133 664T274 707Q361 707 408 668T450 565L365 556Q365 595 344 617T271 639Q221 639 192 616T163 549Q163 528 175
514T215 487L342 427Q420 392 420 301Q420 282 417 261H328Q330 277 330 284ZM99 -88T52 -49T8 54L94 63Q92 25 114 3T187 -20Q237 -20 266 5T295 74Q295 95 284 110T247 136L120 195Q39 233 39 324Q39 336 41 358H130Q128 344 128 338Q128 274 195 243L310 187Q346
170 365 141T384 76Q384 -4 328 -46T184 -88Q99 -88 52 -49Z" />
<glyph unicode="&#xa8;" glyph-name="dieresis" horiz-adv-x="315" d="M39 639T39 679Q39 687 40 691L41 701Q48 753 100 753H109Q155 753 155 713Q155 705 154 701L153 691Q145 639 94 639H85Q39 639 39 679ZM242 639T242 679Q242 687 243 691L244 701Q251 753
303 753H312Q358 753 358 711L357 701L355 691Q349 639 297 639H287Q242 639 242 679Z" />
<glyph unicode="&#xa9;" glyph-name="copyright" horiz-adv-x="774" d="M238 -10T166 30T54 141T15 303Q15 418 67 511T213 657T422 710Q520 710 592 672T704 564T743 403Q743 288 692 194T547 45T335 -10Q238 -10 166 30ZM437 39T516 86T641 216T686 400Q686
478 652 537T558 629T420 661Q320 661 241 615T118 488T73 305Q73 227 107 167T201 73T338 39Q437 39 516 86ZM278 132T231 179T183 309Q183 382 211 440T293 533T416 567Q489 567 529 533T576 432L508 413Q504 458 482 481T410 505Q337 505 299 452T261 316Q261
260 289 227T369 194Q448 194 484 270L550 250Q524 194 478 163T363 132Q278 132 231 179Z" />
<glyph unicode="&#xaa;" glyph-name="ordfeminine" horiz-adv-x="380" d="M367 582T361 545T354 501Q342 431 342 405Q342 385 348 373Q328 360 297 360Q265 360 265 401V409Q222 359 149 359Q103 359 74 382T45 449Q45 524 109 549T290 575L291 601Q291 657 228
657Q183 657 144 631Q132 623 125 621T110 618Q98 618 90 629T80 658Q148 712 245 712Q298 712 332 686T367 608Q367 582 361 545ZM197 413T226 428T273 469L283 526Q204 525 162 511T120 455Q120 436 132 425T168 413Q197 413 226 428Z" />
<glyph unicode="&#xab;" glyph-name="guillemotleft" horiz-adv-x="523" d="M218 288L369 452H457L315 288L410 117H322L218 288ZM43 288L194 452H282L140 288L235 117H147L43 288Z" />
<glyph unicode="&#xac;" glyph-name="logicalnot" horiz-adv-x="600" d="M436 300H35L45 374H535L498 110H409L436 300Z" />
<glyph unicode="&#xad;" glyph-name="uni00AD" horiz-adv-x="380" d="M30 340H330L321 274H21L30 340Z" />
<glyph unicode="&#xae;" glyph-name="registered" horiz-adv-x="774" d="M520 710T592 672T704 564T743 403Q743 288 692 194T547 45T335 -10Q238 -10 166 30T54 141T15 303Q15 418 67 511T213 657T422 710Q520 710 592 672ZM437 39T516 86T641 216T686 400Q686
478 652 537T558 629T420 661Q320 661 241 615T118 488T73 305Q73 227 107 167T201 73T338 39Q437 39 516 86ZM492 543T529 514T566 432Q566 378 537 343T459 296L523 145H440L383 290H309L288 145H211L267 543H430Q492 543 529 514ZM486 351T486 431Q486 483 416
483H336L317 351H397Q486 351 486 431Z" />
<glyph unicode="&#xaf;" glyph-name="overscore" horiz-adv-x="243" d="M2 724H328L318 651H-8L2 724Z" />
<glyph unicode="&#xb0;" glyph-name="degree" horiz-adv-x="438" d="M171 481T131 522T90 628Q90 675 112 715T175 778T269 802Q334 802 374 761T414 655Q414 608 392 568T329 505T235 481Q171 481 131 522ZM295 535T325 567T356 655Q356 698 332 723T265 748Q210
748 179 715T147 628Q147 586 172 561T239 535Q295 535 325 567Z" />
<glyph unicode="&#xb1;" glyph-name="plusminus" horiz-adv-x="600" d="M258 345H31L40 410H267L298 629H365L335 410H560L551 345H326L294 125H227L258 345ZM-8 66H512L503 0H-17L-8 66Z" />
<glyph unicode="&#xb2;" glyph-name="uni00B2" horiz-adv-x="348" d="M353 525T325 484T252 412T142 345H314L305 282H7L15 333L39 346Q118 389 164 419T242 489T274 576Q274 610 257 628T206 647Q168 647 144 625T111 564Q58 564 58 603Q58 630 78 654T134 694T212
710Q279 710 316 673T353 577Q353 525 325 484Z" />
<glyph unicode="&#xb3;" glyph-name="uni00B3" horiz-adv-x="361" d="M308 494T324 471T341 414Q341 350 293 314T161 278Q99 278 57 297T15 346Q15 379 51 386Q72 362 99 349T167 336Q215 336 240 357T266 417Q266 475 199 475L174 474Q166 473 153 473Q144 473
135 490T126 521Q126 526 129 529T137 532H199Q241 532 260 551T280 600Q280 626 263 640T210 655Q173 655 148 641T99 597Q86 597 77 605T67 627Q67 662 112 686T220 710Q280 710 317 680T354 603Q354 568 336 543T281 506Q308 494 324 471Z" />
<glyph unicode="&#xb4;" glyph-name="acute" horiz-adv-x="243" d="M210 780H325L182 629H93L210 780Z" />
<glyph unicode="&#xb6;" glyph-name="paragraph" horiz-adv-x="560" d="M213 328Q162 329 122 352T59 416T36 505Q36 580 70 635T167 720T310 750H608L599 687H523L427 0H347L443 687H343L247 0H167L213 328Z" />
<glyph unicode="&#xb7;" glyph-name="middot" horiz-adv-x="308" d="M76 236T76 280Q76 288 77 292L78 303Q87 359 142 359H152Q201 359 201 317Q201 308 200 303L199 292Q191 236 135 236H125Q76 236 76 280Z" />
<glyph unicode="&#xb8;" glyph-name="cedilla" horiz-adv-x="246" d="M107 -54T131 -72T155 -123Q155 -175 114 -203T13 -232Q-33 -232 -55 -222T-78 -192Q-78 -182 -72 -170Q-33 -181 10 -181Q41 -181 59 -168T77 -134Q77 -121 67 -113T37 -104Q23 -104 0 -110L-19
-75L46 0H114L60 -54H68Q107 -54 131 -72Z" />
<glyph unicode="&#xb9;" glyph-name="uni00B9" horiz-adv-x="379" d="M303 343L294 282H45L54 343H144L184 629Q137 593 107 593Q68 593 68 632Q68 641 69 645Q101 648 141 666T208 710H270L219 343H303Z" />
<glyph unicode="&#xba;" glyph-name="ordmasculine" horiz-adv-x="380" d="M115 357T80 394T44 495Q44 556 66 605T132 682T233 710Q301 710 336 672T371 569Q371 510 348 462T283 385T184 357Q115 357 80 394ZM245 412T270 458T296 573Q296 655 226 655Q172 655
146 608T120 494Q120 451 138 432T191 412Q245 412 270 458Z" />
<glyph unicode="&#xbb;" glyph-name="guillemotright" horiz-adv-x="523" d="M305 281L154 117H66L208 281L113 452H201L305 281ZM480 281L329 117H241L383 281L288 452H376L480 281Z" />
<glyph unicode="&#xbc;" glyph-name="onequarter" horiz-adv-x="1003" d="M303 343L294 282H45L54 343H144L184 629Q137 593 107 593Q68 593 68 632Q68 641 69 645Q101 648 141 666T208 710H270L219 343H303ZM666 700H738L326 0H254L666 700ZM934 91H880L867 0H792L805
91H597L602 125Q672 205 711 272T766 423Q779 426 791 426Q812 426 823 416T833 387Q829 334 790 268T698 149H813L829 258H904L888 149H942L934 91Z" />
<glyph unicode="&#xbd;" glyph-name="onehalf" horiz-adv-x="963" d="M303 343L294 282H45L54 343H144L184 629Q137 593 107 593Q68 593 68 632Q68 641 69 645Q101 648 141 666T208 710H270L219 343H303ZM666 700H738L326 0H254L666 700ZM929 244T901 203T828
131T718 64H890L881 1H583L591 52L615 65Q694 108 740 138T818 208T850 295Q850 329 833 347T782 366Q744 366 720 344T687 283Q634 283 634 322Q634 349 654 373T710 413T788 429Q855 429 892 392T929 296Q929 244 901 203Z" />
<glyph unicode="&#xbe;" glyph-name="threequarters" horiz-adv-x="981" d="M308 494T324 471T341 414Q341 350 293 314T161 278Q99 278 57 297T15 346Q15 379 51 386Q72 362 99 349T167 336Q215 336 240 357T266 417Q266 475 199 475L174 474Q166 473 153 473Q144
473 135 490T126 521Q126 526 129 529T137 532H199Q241 532 260 551T280 600Q280 626 263 640T210 655Q173 655 148 641T99 597Q86 597 77 605T67 627Q67 662 112 686T220 710Q280 710 317 680T354 603Q354 568 336 543T281 506Q308 494 324 471ZM648 700H720L308
0H236L648 700ZM912 91H858L845 0H770L783 91H575L580 125Q650 205 689 272T744 423Q757 426 769 426Q790 426 801 416T811 387Q807 334 768 268T676 149H791L807 258H882L866 149H920L912 91Z" />
<glyph unicode="&#xbf;" glyph-name="questiondown" horiz-adv-x="475" d="M345 554T345 511Q345 506 342 482Q333 431 278 431H268Q219 431 219 473Q219 490 222 500Q229 554 285 554H295Q345 554 345 511ZM302 316Q294 263 262 225T172 143Q125 106 103 77T81
5Q81 -36 107 -59T184 -82Q240 -82 273 -52T325 30L403 1Q381 -70 320 -113T174 -157Q90 -157 38 -113T-14 4Q-14 48 1 80T41 135T111 191Q160 228 185 256T218 329L222 353H308L302 316Z" />
<glyph unicode="&#xc0;" glyph-name="Agrave" horiz-adv-x="633" d="M456 112T446 193H125Q96 118 57 0H-42Q27 209 111 378T307 700H409Q475 542 512 373T561 0H462Q456 112 446 193ZM436 270Q409 454 345 614Q233 451 157 270H436ZM509 890H617L683 739H606L509 890Z" />
<glyph unicode="&#xc1;" glyph-name="Aacute" horiz-adv-x="633" d="M456 112T446 193H125Q96 118 57 0H-42Q27 209 111 378T307 700H409Q475 542 512 373T561 0H462Q456 112 446 193ZM436 270Q409 454 345 614Q233 451 157 270H436ZM415 890H530L387 739H298L415 890Z" />
<glyph unicode="&#xc2;" glyph-name="Acircumflex" horiz-adv-x="633" d="M456 112T446 193H125Q96 118 57 0H-42Q27 209 111 378T307 700H409Q475 542 512 373T561 0H462Q456 112 446 193ZM436 270Q409 454 345 614Q233 451 157 270H436ZM589 878H689L774 739H699L634
822L544 739H465L589 878Z" />
<glyph unicode="&#xc3;" glyph-name="Atilde" horiz-adv-x="633" d="M456 112T446 193H125Q96 118 57 0H-42Q27 209 111 378T307 700H409Q475 542 512 373T561 0H462Q456 112 446 193ZM436 270Q409 454 345 614Q233 451 157 270H436ZM473 748T473 785Q473 822
502 841T571 861Q593 861 608 855T642 838Q658 829 667 825T690 821Q713 821 724 832T741 864Q786 864 786 828Q786 796 758 773T690 750Q667 750 651 756T616 773Q599 782 589 786T564 791Q525 791 514 748Q473 748 473 785Z" />
<glyph unicode="&#xc4;" glyph-name="Adieresis" horiz-adv-x="633" d="M456 112T446 193H125Q96 118 57 0H-42Q27 209 111 378T307 700H409Q475 542 512 373T561 0H462Q456 112 446 193ZM436 270Q409 454 345 614Q233 451 157 270H436ZM214 749T214 789Q214 797
215 801L216 811Q223 863 275 863H284Q330 863 330 823Q330 815 329 811L328 801Q320 749 269 749H260Q214 749 214 789ZM417 749T417 789Q417 797 418 801L419 811Q426 863 478 863H487Q533 863 533 821L532 811L530 801Q524 749 472 749H462Q417 749 417 789Z"
/>
<glyph unicode="&#xc5;" glyph-name="Aring" horiz-adv-x="633" d="M456 112T446 193H125Q96 118 57 0H-42Q27 209 111 378T307 700H409Q475 542 512 373T561 0H462Q456 112 446 193ZM436 270Q409 454 345 614Q233 451 157 270H436ZM575 741T546 769T517 841Q517
899 556 936T651 974Q695 974 724 946T754 873Q754 814 716 778T621 741Q575 741 546 769ZM655 802T673 820T691 867Q691 888 678 900T644 913Q615 913 597 895T579 850Q579 828 592 815T628 802Q655 802 673 820Z" />
<glyph unicode="&#xc6;" glyph-name="AE" horiz-adv-x="943" d="M594 627L562 403H845L835 330H552L516 73H841Q835 31 822 16T772 0H415L444 206H148Q91 97 59 0H-42Q24 194 150 378T454 700H930L920 627H594ZM454 279L503 627H494Q409 562 331 473T190 279H454Z" />
<glyph unicode="&#xc7;" glyph-name="Ccedilla" horiz-adv-x="609" d="M450 710T505 689T593 629Q583 607 568 591T539 575Q526 575 512 584Q478 609 448 619T383 630Q308 630 253 588T169 465T140 274Q140 71 320 71Q365 71 402 84T476 127Q492 126 502 114T511
85Q507 50 455 23T333 -9L288 -54H297Q336 -54 360 -72T384 -123Q384 -175 343 -203T241 -232Q196 -232 173 -222T150 -192Q150 -186 156 -170Q197 -181 239 -181Q270 -181 287 -168T305 -134Q305 -121 295 -113T266 -104Q250 -104 229 -110L210 -75L267 -8Q157
4 97 78T37 277Q37 409 79 507T200 657T386 710Q450 710 505 689Z" />
<glyph unicode="&#xc8;" glyph-name="Egrave" horiz-adv-x="560" d="M209 625L177 397H454L444 321H166L132 75H462Q455 31 443 16T399 0H22L120 700H545L535 625H209ZM474 897H582L648 746H571L474 897Z" />
<glyph unicode="&#xc9;" glyph-name="Eacute" horiz-adv-x="560" d="M209 625L177 397H454L444 321H166L132 75H462Q455 31 443 16T399 0H22L120 700H545L535 625H209ZM380 897H495L352 746H263L380 897Z" />
<glyph unicode="&#xca;" glyph-name="Ecircumflex" horiz-adv-x="560" d="M209 625L177 397H454L444 321H166L132 75H462Q455 31 443 16T399 0H22L120 700H545L535 625H209ZM554 885H654L739 746H664L599 829L509 746H430L554 885Z" />
<glyph unicode="&#xcb;" glyph-name="Edieresis" horiz-adv-x="560" d="M209 625L177 397H454L444 321H166L132 75H462Q455 31 443 16T399 0H22L120 700H545L535 625H209ZM179 756T179 796Q179 804 180 808L181 818Q188 870 240 870H249Q295 870 295 830Q295 822
294 818L293 808Q285 756 234 756H225Q179 756 179 796ZM382 756T382 796Q382 804 383 808L384 818Q391 870 443 870H452Q498 870 498 828L497 818L495 808Q489 756 437 756H427Q382 756 382 796Z" />
<glyph unicode="&#xcc;" glyph-name="Igrave" horiz-adv-x="350" d="M166 700H266L168 0H68L166 700ZM367 890H475L541 739H464L367 890Z" />
<glyph unicode="&#xcd;" glyph-name="Iacute" horiz-adv-x="350" d="M166 700H266L168 0H68L166 700ZM273 890H388L245 739H156L273 890Z" />
<glyph unicode="&#xce;" glyph-name="Icircumflex" horiz-adv-x="350" d="M166 700H266L168 0H68L166 700ZM447 878H547L632 739H557L492 822L402 739H323L447 878Z" />
<glyph unicode="&#xcf;" glyph-name="Idieresis" horiz-adv-x="350" d="M166 700H266L168 0H68L166 700ZM72 749T72 789Q72 797 73 801L74 811Q81 863 133 863H142Q188 863 188 823Q188 815 187 811L186 801Q178 749 127 749H118Q72 749 72 789ZM275 749T275 789Q275
797 276 801L277 811Q284 863 336 863H345Q391 863 391 821L390 811L388 801Q382 749 330 749H320Q275 749 275 789Z" />
<glyph unicode="&#xd0;" glyph-name="Eth" horiz-adv-x="672" d="M470 700T546 625T623 416Q623 291 577 197T446 52T249 0H22L67 320H-11L-1 391H77L120 700H334Q470 700 546 625ZM330 75T393 115T489 232T522 413Q522 517 471 571T320 625H209L176 391H344L334
320H166L132 75H243Q330 75 393 115Z" />
<glyph unicode="&#xd1;" glyph-name="Ntilde" horiz-adv-x="693" d="M651 700L572 137Q561 66 560 27Q559 14 551 7T531 0H454L461 48Q462 55 462 70Q462 118 438 159L200 562L121 0H22L120 700H205Q218 700 225 696T240 680L491 256L552 700H651ZM502 748T502
785Q502 822 531 841T600 861Q622 861 637 855T671 838Q687 829 696 825T719 821Q742 821 753 832T770 864Q815 864 815 828Q815 796 787 773T719 750Q696 750 680 756T645 773Q628 782 618 786T593 791Q554 791 543 748Q502 748 502 785Z" />
<glyph unicode="&#xd2;" glyph-name="Ograve" horiz-adv-x="687" d="M171 -10T101 67T30 280Q30 410 72 507T193 657T376 710Q501 710 571 637T641 430Q641 293 600 194T481 43T296 -10Q171 -10 101 67ZM414 69T476 162T539 427Q539 525 496 578T372 631Q297 631
243 589T160 468T131 280Q131 179 175 124T299 69Q414 69 476 162ZM533 890H641L707 739H630L533 890Z" />
<glyph unicode="&#xd3;" glyph-name="Oacute" horiz-adv-x="687" d="M171 -10T101 67T30 280Q30 410 72 507T193 657T376 710Q501 710 571 637T641 430Q641 293 600 194T481 43T296 -10Q171 -10 101 67ZM414 69T476 162T539 427Q539 525 496 578T372 631Q297 631
243 589T160 468T131 280Q131 179 175 124T299 69Q414 69 476 162ZM439 890H554L411 739H322L439 890Z" />
<glyph unicode="&#xd4;" glyph-name="Ocircumflex" horiz-adv-x="687" d="M171 -10T101 67T30 280Q30 410 72 507T193 657T376 710Q501 710 571 637T641 430Q641 293 600 194T481 43T296 -10Q171 -10 101 67ZM414 69T476 162T539 427Q539 525 496 578T372 631Q297
631 243 589T160 468T131 280Q131 179 175 124T299 69Q414 69 476 162ZM613 878H713L798 739H723L658 822L568 739H489L613 878Z" />
<glyph unicode="&#xd5;" glyph-name="Otilde" horiz-adv-x="687" d="M171 -10T101 67T30 280Q30 410 72 507T193 657T376 710Q501 710 571 637T641 430Q641 293 600 194T481 43T296 -10Q171 -10 101 67ZM414 69T476 162T539 427Q539 525 496 578T372 631Q297 631
243 589T160 468T131 280Q131 179 175 124T299 69Q414 69 476 162ZM497 748T497 785Q497 822 526 841T595 861Q617 861 632 855T666 838Q682 829 691 825T714 821Q737 821 748 832T765 864Q810 864 810 828Q810 796 782 773T714 750Q691 750 675 756T640 773Q623
782 613 786T588 791Q549 791 538 748Q497 748 497 785Z" />
<glyph unicode="&#xd6;" glyph-name="Odieresis" horiz-adv-x="687" d="M171 -10T101 67T30 280Q30 410 72 507T193 657T376 710Q501 710 571 637T641 430Q641 293 600 194T481 43T296 -10Q171 -10 101 67ZM414 69T476 162T539 427Q539 525 496 578T372 631Q297
631 243 589T160 468T131 280Q131 179 175 124T299 69Q414 69 476 162ZM238 749T238 789Q238 797 239 801L240 811Q247 863 299 863H308Q354 863 354 823Q354 815 353 811L352 801Q344 749 293 749H284Q238 749 238 789ZM441 749T441 789Q441 797 442 801L443 811Q450
863 502 863H511Q557 863 557 821L556 811L554 801Q548 749 496 749H486Q441 749 441 789Z" />
<glyph unicode="&#xd7;" glyph-name="multiply" horiz-adv-x="600" d="M66 171L241 324L109 477L159 522L291 371L466 523L510 477L335 324L467 171L417 126L285 277L110 125L66 171Z" />
<glyph unicode="&#xd8;" glyph-name="Oslash" horiz-adv-x="680" d="M589 615Q641 543 641 430Q641 293 600 194T481 43T296 -10Q184 -10 114 54L68 0H-4L78 97Q30 170 30 280Q30 410 72 507T193 657T376 710Q484 710 551 655L590 701H662L589 615ZM131 221T146
177L491 584Q449 631 372 631Q297 631 243 589T160 468T131 280Q131 221 146 177ZM539 490T521 535L174 125Q219 69 299 69Q414 69 476 162T539 427Q539 490 521 535Z" />
<glyph unicode="&#xd9;" glyph-name="Ugrave" horiz-adv-x="709" d="M56 -10T56 191Q56 216 61 251L124 700H223L158 237Q155 218 155 199Q155 133 193 101T308 68Q397 68 445 109T505 237L570 700H669L606 251Q588 118 513 54T297 -10Q56 -10 56 191ZM546 887H654L720
736H643L546 887Z" />
<glyph unicode="&#xda;" glyph-name="Uacute" horiz-adv-x="709" d="M56 -10T56 191Q56 216 61 251L124 700H223L158 237Q155 218 155 199Q155 133 193 101T308 68Q397 68 445 109T505 237L570 700H669L606 251Q588 118 513 54T297 -10Q56 -10 56 191ZM452 887H567L424
736H335L452 887Z" />
<glyph unicode="&#xdb;" glyph-name="Ucircumflex" horiz-adv-x="709" d="M56 -10T56 191Q56 216 61 251L124 700H223L158 237Q155 218 155 199Q155 133 193 101T308 68Q397 68 445 109T505 237L570 700H669L606 251Q588 118 513 54T297 -10Q56 -10 56 191ZM626
875H726L811 736H736L671 819L581 736H502L626 875Z" />
<glyph unicode="&#xdc;" glyph-name="Udieresis" horiz-adv-x="709" d="M56 -10T56 191Q56 216 61 251L124 700H223L158 237Q155 218 155 199Q155 133 193 101T308 68Q397 68 445 109T505 237L570 700H669L606 251Q588 118 513 54T297 -10Q56 -10 56 191ZM251
746T251 786Q251 794 252 798L253 808Q260 860 312 860H321Q367 860 367 820Q367 812 366 808L365 798Q357 746 306 746H297Q251 746 251 786ZM454 746T454 786Q454 794 455 798L456 808Q463 860 515 860H524Q570 860 570 818L569 808L567 798Q561 746 509 746H499Q454
746 454 786Z" />
<glyph unicode="&#xdd;" glyph-name="Yacute" horiz-adv-x="590" d="M614 700L328 294L287 0H189L230 294L58 700H162L292 383L511 700H614ZM393 890H508L365 739H276L393 890Z" />
<glyph unicode="&#xde;" glyph-name="Thorn" horiz-adv-x="641" d="M455 599T517 546T580 398Q580 271 503 200T287 129H157L139 0H41L139 700H237L223 599H333Q455 599 517 546ZM380 206T430 255T480 398Q480 521 328 521H212L168 206H284Q380 206 430 255Z" />
<glyph unicode="&#xdf;" glyph-name="germandbls" horiz-adv-x="624" d="M482 345T509 307T536 213Q536 110 473 48T303 -14Q243 -14 199 3T155 55Q155 72 162 82T183 96Q207 75 234 65T300 55Q371 55 410 97T450 210Q450 323 331 323Q323 323 303 321L279 320Q266
320 257 339T248 376Q248 390 257 390H325Q389 390 430 431T471 544Q471 600 437 632T342 664Q272 664 232 626T180 515L108 0H20L92 515Q107 619 175 675T350 731Q412 731 459 708T532 643T558 548Q558 481 525 431T434 359Q482 345 509 307Z" />
<glyph unicode="&#xe0;" glyph-name="agrave" horiz-adv-x="561" d="M451 160Q445 118 445 92Q445 68 450 52T465 20Q449 9 429 2T391 -6Q345 -6 348 77Q275 -10 161 -10Q93 -10 51 27T8 133Q8 230 103 278T381 334L386 373Q388 393 388 401Q388 444 363 465T284
487Q236 487 199 469T118 415Q112 410 104 410Q91 410 78 424T55 461Q101 505 165 532T302 560Q388 560 435 519T483 406Q483 384 481 373L451 160ZM237 59T279 87T357 165L372 272Q230 267 168 235T106 139Q106 59 192 59Q237 59 279 87ZM454 780H562L628 629H551L454
780Z" />
<glyph unicode="&#xe1;" glyph-name="aacute" horiz-adv-x="561" d="M451 160Q445 118 445 92Q445 68 450 52T465 20Q449 9 429 2T391 -6Q345 -6 348 77Q275 -10 161 -10Q93 -10 51 27T8 133Q8 230 103 278T381 334L386 373Q388 393 388 401Q388 444 363 465T284
487Q236 487 199 469T118 415Q112 410 104 410Q91 410 78 424T55 461Q101 505 165 532T302 560Q388 560 435 519T483 406Q483 384 481 373L451 160ZM237 59T279 87T357 165L372 272Q230 267 168 235T106 139Q106 59 192 59Q237 59 279 87ZM360 780H475L332 629H243L360
780Z" />
<glyph unicode="&#xe2;" glyph-name="acircumflex" horiz-adv-x="561" d="M451 160Q445 118 445 92Q445 68 450 52T465 20Q449 9 429 2T391 -6Q345 -6 348 77Q275 -10 161 -10Q93 -10 51 27T8 133Q8 230 103 278T381 334L386 373Q388 393 388 401Q388 444 363
465T284 487Q236 487 199 469T118 415Q112 410 104 410Q91 410 78 424T55 461Q101 505 165 532T302 560Q388 560 435 519T483 406Q483 384 481 373L451 160ZM237 59T279 87T357 165L372 272Q230 267 168 235T106 139Q106 59 192 59Q237 59 279 87ZM534 768H634L719
629H644L579 712L489 629H410L534 768Z" />
<glyph unicode="&#xe3;" glyph-name="atilde" horiz-adv-x="561" d="M451 160Q445 118 445 92Q445 68 450 52T465 20Q449 9 429 2T391 -6Q345 -6 348 77Q275 -10 161 -10Q93 -10 51 27T8 133Q8 230 103 278T381 334L386 373Q388 393 388 401Q388 444 363 465T284
487Q236 487 199 469T118 415Q112 410 104 410Q91 410 78 424T55 461Q101 505 165 532T302 560Q388 560 435 519T483 406Q483 384 481 373L451 160ZM237 59T279 87T357 165L372 272Q230 267 168 235T106 139Q106 59 192 59Q237 59 279 87ZM418 638T418 675Q418
712 447 731T516 751Q538 751 553 745T587 728Q603 719 612 715T635 711Q658 711 669 722T686 754Q731 754 731 718Q731 686 703 663T635 640Q612 640 596 646T561 663Q544 672 534 676T509 681Q470 681 459 638Q418 638 418 675Z" />
<glyph unicode="&#xe4;" glyph-name="adieresis" horiz-adv-x="561" d="M451 160Q445 118 445 92Q445 68 450 52T465 20Q449 9 429 2T391 -6Q345 -6 348 77Q275 -10 161 -10Q93 -10 51 27T8 133Q8 230 103 278T381 334L386 373Q388 393 388 401Q388 444 363 465T284
487Q236 487 199 469T118 415Q112 410 104 410Q91 410 78 424T55 461Q101 505 165 532T302 560Q388 560 435 519T483 406Q483 384 481 373L451 160ZM237 59T279 87T357 165L372 272Q230 267 168 235T106 139Q106 59 192 59Q237 59 279 87ZM159 639T159 679Q159
687 160 691L161 701Q168 753 220 753H229Q275 753 275 713Q275 705 274 701L273 691Q265 639 214 639H205Q159 639 159 679ZM362 639T362 679Q362 687 363 691L364 701Q371 753 423 753H432Q478 753 478 711L477 701L475 691Q469 639 417 639H407Q362 639 362
679Z" />
<glyph unicode="&#xe5;" glyph-name="aring" horiz-adv-x="561" d="M451 160Q445 118 445 92Q445 68 450 52T465 20Q449 9 429 2T391 -6Q345 -6 348 77Q275 -10 161 -10Q93 -10 51 27T8 133Q8 230 103 278T381 334L386 373Q388 393 388 401Q388 444 363 465T284
487Q236 487 199 469T118 415Q112 410 104 410Q91 410 78 424T55 461Q101 505 165 532T302 560Q388 560 435 519T483 406Q483 384 481 373L451 160ZM237 59T279 87T357 165L372 272Q230 267 168 235T106 139Q106 59 192 59Q237 59 279 87ZM520 631T491 659T462
731Q462 789 501 826T596 864Q640 864 669 836T699 763Q699 704 661 668T566 631Q520 631 491 659ZM600 692T618 710T636 757Q636 778 623 790T589 803Q560 803 542 785T524 740Q524 718 537 705T573 692Q600 692 618 710Z" />
<glyph unicode="&#xe6;" glyph-name="ae" horiz-adv-x="909" d="M468 261Q466 227 466 209Q466 134 499 97T593 59Q643 59 678 80T748 144Q759 156 770 156Q793 156 828 128Q796 63 736 26T585 -12Q524 -12 477 10T402 77Q359 33 305 11T176 -12Q102 -12 56 29T9
136Q9 212 56 253T184 310T381 325Q389 385 389 399Q389 487 284 487Q235 487 198 470T117 420Q110 415 101 415Q77 415 56 470Q162 560 295 560Q355 560 399 540T465 481Q542 560 659 560Q759 560 808 509T858 354Q858 307 845 261H468ZM581 493T539 447T479 325H765Q768
348 768 367Q768 426 738 459T647 493Q581 493 539 447ZM255 57T298 82T373 155Q369 178 369 208Q369 225 371 259Q242 257 175 232T107 141Q107 105 130 81T194 57Q255 57 298 82Z" />
<glyph unicode="&#xe7;" glyph-name="ccedilla" horiz-adv-x="557" d="M211 492T161 423T111 232Q111 153 149 107T252 61Q308 61 344 87T410 176Q436 176 450 163T465 125Q465 88 440 58T369 10T267 -10L223 -54H232Q271 -54 295 -72T319 -123Q319 -175 278 -203T176
-232Q131 -232 108 -222T85 -192Q85 -186 91 -170Q132 -181 174 -181Q205 -181 222 -168T240 -134Q240 -121 230 -113T201 -104Q185 -104 164 -110L145 -75L203 -7Q114 7 64 68T14 226Q14 327 49 402T150 519T304 560Q400 560 455 512T509 381Q470 363 446 363Q423
363 420 396Q418 442 386 467T298 492Q211 492 161 423Z" />
<glyph unicode="&#xe8;" glyph-name="egrave" horiz-adv-x="567" d="M121 261Q120 249 120 224Q120 146 155 104T254 61Q308 61 343 79T407 140Q416 153 429 153Q451 153 487 125Q454 58 394 24T248 -10Q145 -10 84 52T23 221Q23 326 57 402T156 519T310 560Q412
560 463 509T515 359Q515 319 507 261H121ZM236 493T191 450T129 325H422Q425 346 425 371Q425 431 395 462T305 493Q236 493 191 450ZM467 780H575L641 629H564L467 780Z" />
<glyph unicode="&#xe9;" glyph-name="eacute" horiz-adv-x="567" d="M121 261Q120 249 120 224Q120 146 155 104T254 61Q308 61 343 79T407 140Q416 153 429 153Q451 153 487 125Q454 58 394 24T248 -10Q145 -10 84 52T23 221Q23 326 57 402T156 519T310 560Q412
560 463 509T515 359Q515 319 507 261H121ZM236 493T191 450T129 325H422Q425 346 425 371Q425 431 395 462T305 493Q236 493 191 450ZM372 780H487L344 629H255L372 780Z" />
<glyph unicode="&#xea;" glyph-name="ecircumflex" horiz-adv-x="567" d="M121 261Q120 249 120 224Q120 146 155 104T254 61Q308 61 343 79T407 140Q416 153 429 153Q451 153 487 125Q454 58 394 24T248 -10Q145 -10 84 52T23 221Q23 326 57 402T156 519T310
560Q412 560 463 509T515 359Q515 319 507 261H121ZM236 493T191 450T129 325H422Q425 346 425 371Q425 431 395 462T305 493Q236 493 191 450ZM546 768H646L731 629H656L591 712L501 629H422L546 768Z" />
<glyph unicode="&#xeb;" glyph-name="edieresis" horiz-adv-x="567" d="M121 261Q120 249 120 224Q120 146 155 104T254 61Q308 61 343 79T407 140Q416 153 429 153Q451 153 487 125Q454 58 394 24T248 -10Q145 -10 84 52T23 221Q23 326 57 402T156 519T310 560Q412
560 463 509T515 359Q515 319 507 261H121ZM236 493T191 450T129 325H422Q425 346 425 371Q425 431 395 462T305 493Q236 493 191 450ZM171 639T171 679Q171 687 172 691L173 701Q180 753 232 753H241Q287 753 287 713Q287 705 286 701L285 691Q277 639 226 639H217Q171
639 171 679ZM374 639T374 679Q374 687 375 691L376 701Q383 753 435 753H444Q490 753 490 711L489 701L487 691Q481 639 429 639H419Q374 639 374 679Z" />
<glyph unicode="&#xec;" glyph-name="igrave" horiz-adv-x="288" d="M117 550H211L134 0H40L117 550ZM321 780H429L495 629H418L321 780Z" />
<glyph unicode="&#xed;" glyph-name="iacute" horiz-adv-x="288" d="M117 550H211L134 0H40L117 550ZM227 780H342L199 629H110L227 780Z" />
<glyph unicode="&#xee;" glyph-name="icircumflex" horiz-adv-x="288" d="M117 550H211L134 0H40L117 550ZM401 768H501L586 629H511L446 712L356 629H277L401 768Z" />
<glyph unicode="&#xef;" glyph-name="idieresis" horiz-adv-x="288" d="M117 550H211L134 0H40L117 550ZM26 639T26 679Q26 687 27 691L28 701Q35 753 87 753H96Q142 753 142 713Q142 705 141 701L140 691Q132 639 81 639H72Q26 639 26 679ZM229 639T229 679Q229
687 230 691L231 701Q238 753 290 753H299Q345 753 345 711L344 701L342 691Q336 639 284 639H274Q229 639 229 679Z" />
<glyph unicode="&#xf0;" glyph-name="eth" horiz-adv-x="567" d="M463 618T490 536T517 364Q517 -12 242 -12Q168 -12 117 18T41 99T16 214Q16 312 48 388T143 509T300 553Q352 553 389 533Q364 593 327 641L229 585L198 639L283 688Q258 713 219 740L293 797Q330
771 366 735L470 795L500 740L408 687Q463 618 490 536ZM333 55T374 131T416 330Q416 403 387 444T295 486Q200 486 156 411T111 212Q111 138 144 97T241 55Q333 55 374 131Z" />
<glyph unicode="&#xf1;" glyph-name="ntilde" horiz-adv-x="610" d="M526 560T526 420Q526 406 522 372L488 131Q479 65 479 43Q479 23 483 10Q446 -5 406 -5Q394 -5 388 4T382 35Q382 51 389 102L427 370Q430 391 430 408Q430 450 410 469T347 489Q271 489 175
413L118 0H23L74 365Q88 468 88 509Q88 524 86 536Q137 554 163 554Q189 554 189 518Q189 512 187 496L186 486Q240 526 284 543T377 560Q526 560 526 420ZM446 638T446 675Q446 712 475 731T544 751Q566 751 581 745T615 728Q631 719 640 715T663 711Q686 711
697 722T714 754Q759 754 759 718Q759 686 731 663T663 640Q640 640 624 646T589 663Q572 672 562 676T537 681Q498 681 487 638Q446 638 446 675Z" />
<glyph unicode="&#xf2;" glyph-name="ograve" horiz-adv-x="555" d="M119 -10T66 44T12 205Q12 314 46 394T144 517T295 560Q398 560 451 507T505 349Q505 239 471 158T372 34T222 -10Q119 -10 66 44ZM313 59T360 135T408 349Q408 421 379 456T289 491Q204 491
156 415T108 203Q108 130 137 95T228 59Q313 59 360 135ZM455 780H563L629 629H552L455 780Z" />
<glyph unicode="&#xf3;" glyph-name="oacute" horiz-adv-x="555" d="M119 -10T66 44T12 205Q12 314 46 394T144 517T295 560Q398 560 451 507T505 349Q505 239 471 158T372 34T222 -10Q119 -10 66 44ZM313 59T360 135T408 349Q408 421 379 456T289 491Q204 491
156 415T108 203Q108 130 137 95T228 59Q313 59 360 135ZM360 780H475L332 629H243L360 780Z" />
<glyph unicode="&#xf4;" glyph-name="ocircumflex" horiz-adv-x="555" d="M119 -10T66 44T12 205Q12 314 46 394T144 517T295 560Q398 560 451 507T505 349Q505 239 471 158T372 34T222 -10Q119 -10 66 44ZM313 59T360 135T408 349Q408 421 379 456T289 491Q204
491 156 415T108 203Q108 130 137 95T228 59Q313 59 360 135ZM534 768H634L719 629H644L579 712L489 629H410L534 768Z" />
<glyph unicode="&#xf5;" glyph-name="otilde" horiz-adv-x="555" d="M119 -10T66 44T12 205Q12 314 46 394T144 517T295 560Q398 560 451 507T505 349Q505 239 471 158T372 34T222 -10Q119 -10 66 44ZM313 59T360 135T408 349Q408 421 379 456T289 491Q204 491
156 415T108 203Q108 130 137 95T228 59Q313 59 360 135ZM418 638T418 675Q418 712 447 731T516 751Q538 751 553 745T587 728Q603 719 612 715T635 711Q658 711 669 722T686 754Q731 754 731 718Q731 686 703 663T635 640Q612 640 596 646T561 663Q544 672 534
676T509 681Q470 681 459 638Q418 638 418 675Z" />
<glyph unicode="&#xf6;" glyph-name="odieresis" horiz-adv-x="555" d="M119 -10T66 44T12 205Q12 314 46 394T144 517T295 560Q398 560 451 507T505 349Q505 239 471 158T372 34T222 -10Q119 -10 66 44ZM313 59T360 135T408 349Q408 421 379 456T289 491Q204
491 156 415T108 203Q108 130 137 95T228 59Q313 59 360 135ZM159 639T159 679Q159 687 160 691L161 701Q168 753 220 753H229Q275 753 275 713Q275 705 274 701L273 691Q265 639 214 639H205Q159 639 159 679ZM362 639T362 679Q362 687 363 691L364 701Q371 753
423 753H432Q478 753 478 711L477 701L475 691Q469 639 417 639H407Q362 639 362 679Z" />
<glyph unicode="&#xf7;" glyph-name="divide" horiz-adv-x="600" d="M276 467T262 480T248 514Q248 540 267 559T313 579Q335 579 349 565T363 530Q363 505 343 486T297 467Q276 467 262 480ZM63 357H523L514 291H54L63 357ZM220 73T207 87T193 122Q193 148 213
167T258 186Q280 186 294 173T308 138Q308 112 288 93T242 73Q220 73 207 87Z" />
<glyph unicode="&#xf8;" glyph-name="oslash" horiz-adv-x="555" d="M474 478Q505 427 505 349Q505 239 471 158T372 34T222 -10Q128 -10 75 35L44 0H-27L41 76Q12 128 12 205Q12 314 46 394T144 517T295 560Q387 560 438 518L467 550H538L474 478ZM108 174T112
155L380 454Q352 491 289 491Q204 491 156 415T108 203Q108 174 112 155ZM408 375T403 400L134 100Q162 59 228 59Q313 59 360 135T408 349Q408 375 403 400Z" />
<glyph unicode="&#xf9;" glyph-name="ugrave" horiz-adv-x="616" d="M490 120Q484 83 484 57Q484 31 490 10Q457 -5 425 -5Q404 -5 395 6T386 46Q386 58 387 65Q355 29 309 10T210 -10Q132 -10 90 29T48 140Q48 159 51 180L103 550H198L146 182Q143 163 143 147Q143
101 165 79T235 57Q328 57 398 148L455 550H550L490 120ZM484 780H592L658 629H581L484 780Z" />
<glyph unicode="&#xfa;" glyph-name="uacute" horiz-adv-x="616" d="M490 120Q484 83 484 57Q484 31 490 10Q457 -5 425 -5Q404 -5 395 6T386 46Q386 58 387 65Q355 29 309 10T210 -10Q132 -10 90 29T48 140Q48 159 51 180L103 550H198L146 182Q143 163 143 147Q143
101 165 79T235 57Q328 57 398 148L455 550H550L490 120ZM391 780H506L363 629H274L391 780Z" />
<glyph unicode="&#xfb;" glyph-name="ucircumflex" horiz-adv-x="616" d="M490 120Q484 83 484 57Q484 31 490 10Q457 -5 425 -5Q404 -5 395 6T386 46Q386 58 387 65Q355 29 309 10T210 -10Q132 -10 90 29T48 140Q48 159 51 180L103 550H198L146 182Q143 163 143
147Q143 101 165 79T235 57Q328 57 398 148L455 550H550L490 120ZM565 768H665L750 629H675L610 712L520 629H441L565 768Z" />
<glyph unicode="&#xfc;" glyph-name="udieresis" horiz-adv-x="616" d="M490 120Q484 83 484 57Q484 31 490 10Q457 -5 425 -5Q404 -5 395 6T386 46Q386 58 387 65Q355 29 309 10T210 -10Q132 -10 90 29T48 140Q48 159 51 180L103 550H198L146 182Q143 163 143
147Q143 101 165 79T235 57Q328 57 398 148L455 550H550L490 120ZM190 639T190 679Q190 687 191 691L192 701Q199 753 251 753H260Q306 753 306 713Q306 705 305 701L304 691Q296 639 245 639H236Q190 639 190 679ZM393 639T393 679Q393 687 394 691L395 701Q402
753 454 753H463Q509 753 509 711L508 701L506 691Q500 639 448 639H438Q393 639 393 679Z" />
<glyph unicode="&#xfd;" glyph-name="yacute" horiz-adv-x="502" d="M516 550L220 -42Q176 -128 129 -164T14 -201Q-27 -201 -50 -187T-74 -148Q-74 -121 -49 -107Q-39 -115 -21 -119T16 -124Q56 -124 87 -93T149 9L29 550H126L213 131L415 550H516ZM334 780H449L306
629H217L334 780Z" />
<glyph unicode="&#xfe;" glyph-name="thorn" horiz-adv-x="609" d="M444 560T497 511T550 352Q550 319 544 281Q531 187 490 121T386 22T250 -12Q183 -12 123 13L90 -223H-6L136 787H232L192 502Q261 560 352 560Q444 560 497 511ZM452 320T452 352Q452 425 422
458T335 491Q253 491 181 423L133 85Q186 57 252 57Q328 57 379 112T446 281Q452 320 452 352Z" />
<glyph unicode="&#xff;" glyph-name="ydieresis" horiz-adv-x="502" d="M516 550L220 -42Q176 -128 129 -164T14 -201Q-27 -201 -50 -187T-74 -148Q-74 -121 -49 -107Q-39 -115 -21 -119T16 -124Q56 -124 87 -93T149 9L29 550H126L213 131L415 550H516ZM133 639T133
679Q133 687 134 691L135 701Q142 753 194 753H203Q249 753 249 713Q249 705 248 701L247 691Q239 639 188 639H179Q133 639 133 679ZM336 639T336 679Q336 687 337 691L338 701Q345 753 397 753H406Q452 753 452 711L451 701L449 691Q443 639 391 639H381Q336
639 336 679Z" />
<glyph unicode="&#x2013;" glyph-name="endash" horiz-adv-x="623" d="M40 340H563L554 274H31L40 340Z" />
<glyph unicode="&#x2014;" glyph-name="emdash" horiz-adv-x="1100" d="M40 340H1040L1031 274H31L40 340Z" />
<glyph unicode="&#x2018;" glyph-name="quoteleft" horiz-adv-x="243" d="M292 627T303 615T315 583Q315 576 314 572L313 559Q309 534 293 519T252 504H237Q215 504 203 516T190 551Q190 558 191 562L193 576Q202 649 258 718Q277 741 290 751T316 761Q335 761
349 749Q313 713 294 686T264 627H271Q292 627 303 615Z" />
<glyph unicode="&#x2019;" glyph-name="quoteright" horiz-adv-x="243" d="M215 780T227 768T240 733Q240 726 239 722L237 708Q228 635 172 566Q153 543 140 533T114 523Q95 523 81 535Q117 571 136 598T166 657H159Q138 657 127 669T115 701Q115 708 116 712L117
725Q121 750 137 765T178 780H193Q215 780 227 768Z" />
<glyph unicode="&#x201a;" glyph-name="quotesinglbase" horiz-adv-x="257" d="M122 121T134 109T147 74Q147 67 146 63L144 49Q135 -24 79 -93Q60 -116 47 -126T21 -136Q2 -136 -12 -124Q24 -88 43 -61T73 -2H66Q45 -2 34 10T22 42Q22 49 23 53L24 66Q28 91 44
106T85 121H100Q122 121 134 109Z" />
<glyph unicode="&#x201c;" glyph-name="quotedblleft" horiz-adv-x="423" d="M342 761T356 749Q320 713 301 686T271 627H277Q299 627 310 616T322 583Q322 576 321 572L319 559Q315 534 299 519T259 504H244Q222 504 209 516T196 551Q196 558 197 562L200 576Q209
649 265 718Q299 761 323 761Q342 761 356 749ZM465 627T476 615T488 583Q488 576 487 572L486 559Q482 534 466 519T425 504H410Q388 504 376 516T363 551Q363 558 364 562L366 576Q375 648 432 718Q450 741 463 751T489 761Q509 761 523 749Q486 712 467 686T437
627H444Q465 627 476 615Z" />
<glyph unicode="&#x201d;" glyph-name="quotedblright" horiz-adv-x="423" d="M382 780T394 768T407 733Q407 726 406 722L404 708Q395 635 339 566Q320 543 307 533T281 523Q262 523 248 535Q284 571 303 598T333 657H326Q305 657 294 669T282 701Q282 708 283
712L284 725Q288 750 304 765T345 780H360Q382 780 394 768ZM215 780T227 768T240 733Q240 726 239 722L237 708Q228 635 172 566Q153 543 140 533T114 523Q95 523 81 535Q117 571 136 598T166 657H159Q138 657 127 669T115 701Q115 708 116 712L117 725Q121 750
137 765T178 780H193Q215 780 227 768Z" />
<glyph unicode="&#x201e;" glyph-name="quotedblbase" horiz-adv-x="423" d="M289 121T301 109T314 74Q314 67 313 63L311 49Q302 -24 246 -93Q227 -116 214 -126T188 -136Q169 -136 155 -124Q191 -88 210 -61T240 -2H233Q212 -2 201 10T189 42Q189 49 190 53L191
66Q195 91 211 106T252 121H267Q289 121 301 109ZM122 121T134 109T147 74Q147 67 146 63L144 49Q135 -24 79 -93Q60 -116 47 -126T21 -136Q2 -136 -12 -124Q24 -88 43 -61T73 -2H66Q45 -2 34 10T22 42Q22 49 23 53L24 66Q28 91 44 106T85 121H100Q122 121 134
109Z" />
<glyph unicode="&#x2022;" glyph-name="bullet" horiz-adv-x="560" d="M179 197T137 238T94 347Q94 406 121 454T196 529T301 557Q372 557 415 515T458 405Q458 347 430 299T354 224T250 197Q179 197 137 238Z" />
<glyph unicode="&#x2039;" glyph-name="guilsinglleft" horiz-adv-x="340" d="M40 288L191 452H279L137 288L232 117H144L40 288Z" />
<glyph unicode="&#x203a;" glyph-name="guilsinglright" horiz-adv-x="340" d="M300 281L149 117H61L203 281L108 452H196L300 281Z" />
</font>
</defs>
</svg>
