<?xml version="1.0" standalone="no"?>
<!DOCTYPE svg PUBLIC "-//W3C//DTD SVG 1.1//EN" "http://www.w3.org/Graphics/SVG/1.1/DTD/svg11.dtd">
<svg xmlns="http://www.w3.org/2000/svg">
<defs >
<font id="Krub" horiz-adv-x="571" ><font-face
    font-family="Krub"
    units-per-em="1000"
    panose-1="0 0 8 0 0 0 0 0 0 0"
    ascent="1007"
    descent="-293"
    alphabetic="0" />
<glyph unicode=" " glyph-name="space" horiz-adv-x="258" />
<glyph unicode="!" glyph-name="exclam" horiz-adv-x="246" d="M81 700H247L145 226H49L81 700ZM-10 -6T-10 54Q-10 66 -9 72L-7 87Q4 165 82 165H96Q164 165 164 105Q164 93 163 87L161 72Q151 -6 72 -6H58Q-10 -6 -10 54Z" />
<glyph unicode="&quot;" glyph-name="quotedbl" horiz-adv-x="324" d="M58 737H189L137 505H46L58 737ZM227 737H358L306 505H215L227 737Z" />
<glyph unicode="#" glyph-name="numbersign" horiz-adv-x="540" d="M434 413L396 285H472L459 195H369L310 0H217L276 195H166L107 0H14L73 195H-5L8 285H100L138 413H52L64 503H165L224 700H317L258 503H368L427 700H520L461 503H528L516 413H434ZM341 413H231L193
285H303L341 413Z" />
<glyph unicode="$" glyph-name="dollar" horiz-adv-x="609" d="M422 581T367 594L343 426L349 424Q435 393 479 367T542 309T561 231Q561 161 527 108T430 24T282 -10L267 -120H205L221 -9Q120 -2 61 34T2 128Q2 174 33 198T126 223Q124 171 153 140T236 102L264
305L262 306Q187 333 144 361T81 424T62 508Q62 567 94 612T184 682T321 710L335 809H397L383 707Q466 698 521 658T594 555Q573 533 546 518T503 502Q487 502 478 508T455 534Q422 581 367 594ZM221 501T234 484T285 450L306 600Q221 594 221 528Q221 501 234
484ZM398 228T383 246T323 283L298 102Q347 109 372 133T398 199Q398 228 383 246Z" />
<glyph unicode="%" glyph-name="percent" horiz-adv-x="1010" d="M683 710H825L320 -10H178L683 710ZM150 322T109 362T68 473Q68 534 95 586T170 669T278 700Q352 700 393 660T434 549Q434 484 409 433T336 352T225 322Q150 322 109 362ZM278 404T297 447T317
551Q317 585 305 601T267 618Q224 618 206 575T187 471Q187 437 199 421T236 404Q278 404 297 447ZM637 -10T596 29T555 139Q555 204 580 256T653 338T764 368Q839 368 880 328T921 215Q921 151 895 100T822 20T711 -10Q637 -10 596 29ZM765 72T784 116T803 219Q803
253 791 269T753 286Q710 286 692 244T673 140Q673 105 685 89T723 72Q765 72 784 116Z" />
<glyph unicode="&amp;" glyph-name="ampersand" horiz-adv-x="687" d="M563 107T614 105L608 58Q603 27 580 9T516 -10Q451 -10 397 26Q318 -10 223 -10Q116 -10 56 35T-5 159Q-5 212 15 249T69 312T159 369Q127 453 127 515Q127 568 155 613T231 684T337 710Q405
710 451 677T497 579Q497 528 472 489T407 421T303 354Q353 266 424 197Q449 235 463 280T479 368Q592 368 592 281Q592 247 575 205T526 123Q563 107 614 105ZM295 617T273 588T250 514Q250 473 266 428Q325 462 354 493T383 570Q383 592 370 604T331 617Q295
617 273 588ZM143 130T169 106T239 82Q278 82 319 100Q245 191 197 285Q169 262 156 236T143 170Q143 130 169 106Z" />
<glyph unicode="&apos;" glyph-name="quotesingle" horiz-adv-x="223" d="M92 737H223L171 505H80L92 737Z" />
<glyph unicode="(" glyph-name="parenleft" horiz-adv-x="390" d="M56 44T56 247Q56 417 115 579T285 864H389Q298 702 252 544T205 216Q205 60 253 -106H149Q56 44 56 247Z" />
<glyph unicode=")" glyph-name="parenright" horiz-adv-x="390" d="M334 714T334 511Q334 341 275 179T105 -106H1Q92 56 138 214T185 542Q185 698 137 864H241Q334 714 334 511Z" />
<glyph unicode="*" glyph-name="asterisk" horiz-adv-x="618" d="M156 563L294 691L136 729L183 825L320 750L328 930H437L398 750L554 828L573 734L408 691L507 570L411 506L345 653L236 506L156 563Z" />
<glyph unicode="+" glyph-name="plus" horiz-adv-x="600" d="M241 284H33L44 364H252L282 578H366L336 364H544L533 284H325L295 70H211L241 284Z" />
<glyph unicode="," glyph-name="comma" horiz-adv-x="308" d="M162 165T178 149T195 102Q195 76 191 56Q184 17 166 -19T114 -95Q92 -121 76 -132T42 -143Q14 -143 -4 -125Q3 -119 28 -95T68 -49T91 -6H87Q56 -6 39 10T21 54Q21 73 27 103Q34 136 53 150T106 165H130Q162
165 178 149Z" />
<glyph unicode="-" glyph-name="hyphen" horiz-adv-x="480" d="M51 347H411L400 267H40L51 347Z" />
<glyph unicode="." glyph-name="period" horiz-adv-x="310" d="M22 -6T22 54Q22 66 23 72L25 87Q36 165 114 165H128Q196 165 196 105Q196 93 195 87L193 72Q183 -6 104 -6H90Q22 -6 22 54Z" />
<glyph unicode="/" glyph-name="slash" horiz-adv-x="334" d="M317 811H421L9 -55H-95L317 811Z" />
<glyph unicode="0" glyph-name="zero" horiz-adv-x="620" d="M132 -12T73 54T13 245Q13 292 20 338Q45 517 128 613T352 710Q471 710 529 641T588 442Q588 397 580 338Q556 169 474 79T251 -12Q132 -12 73 54ZM340 90T377 154T432 338Q442 411 442 457Q442 530
418 569T338 608Q261 608 224 539T168 338Q159 270 159 233Q159 164 183 127T265 90Q340 90 377 154Z" />
<glyph unicode="1" glyph-name="one" horiz-adv-x="459" d="M378 95L365 0H-19L-6 95H116L176 517Q133 492 100 492Q71 492 54 510T36 562Q36 578 42 612Q105 612 164 635T261 700H346L261 95H378Z" />
<glyph unicode="2" glyph-name="two" horiz-adv-x="537" d="M529 392T440 295T190 99H458L444 0H-5L5 76L35 98Q160 189 228 246T340 369T384 507Q384 554 364 578T301 602Q249 602 211 563T160 453Q102 453 77 470T51 527Q51 576 88 616T185 678T307 700Q410
700 469 651T529 512Q529 392 440 295Z" />
<glyph unicode="3" glyph-name="three" horiz-adv-x="549" d="M428 340T456 308T485 220Q485 146 449 95T348 17T203 -9Q102 -9 43 16T-16 89Q-16 117 0 135T40 153Q74 122 114 106T210 89Q274 89 307 124T341 218Q341 259 316 282T249 305Q240 305 229 304T213
302Q197 300 191 300Q173 300 158 327T142 376Q142 389 146 394T164 399H243Q302 399 332 433T362 527Q362 560 343 581T282 602Q231 602 198 575T148 501Q107 501 80 520T52 568Q52 607 86 637T175 684T292 700Q393 700 451 654T509 532Q509 467 475 419T385 353Q428
340 456 308Z" />
<glyph unicode="4" glyph-name="four" horiz-adv-x="522" d="M272 133H-15L-5 199Q110 328 178 447T276 700Q286 701 304 701Q354 701 381 681T408 619Q408 562 361 487T248 342T126 232H286L306 372H450L430 232H491L477 133H416L398 0H254L272 133Z" />
<glyph unicode="5" glyph-name="five" horiz-adv-x="556" d="M221 602L190 450Q233 473 291 473Q384 473 438 421T493 273Q493 187 458 124T357 26T206 -9Q136 -9 91 12T25 64T5 125Q5 164 29 183T95 202Q100 148 127 120T210 91Q280 91 313 140T347 270Q347 373
253 373Q213 373 184 354T131 300L34 317L112 700H527L513 602H221Z" />
<glyph unicode="6" glyph-name="six" horiz-adv-x="577" d="M369 449T413 428T483 362T510 253Q510 128 442 61T241 -7Q175 -7 122 21T39 100T8 220Q8 337 55 449T185 633T373 705Q422 705 447 683T472 609Q367 609 294 556T184 409Q245 449 316 449Q369 449 413
428ZM305 92T335 137T365 248Q365 297 343 323T279 350Q218 350 159 312Q152 273 152 225Q152 164 175 128T247 92Q305 92 335 137Z" />
<glyph unicode="7" glyph-name="seven" horiz-adv-x="482" d="M517 700L507 626Q381 479 318 353T224 72L210 0H138Q65 0 65 56Q65 69 68 84L71 99Q87 176 129 267T236 444T376 592H115Q83 592 66 605T49 643Q49 656 53 673T63 700H517Z" />
<glyph unicode="8" glyph-name="eight" horiz-adv-x="564" d="M461 330T482 295T504 212Q504 99 430 45T223 -9Q116 -9 57 35T-2 160Q-2 238 33 284T141 361Q100 389 79 422T57 501Q57 563 91 609T185 680T324 705Q390 705 438 683T512 623T538 536Q538 470 506
428T413 356Q461 330 482 295ZM262 608T232 580T202 508Q202 478 220 452T277 408Q333 429 363 460T393 537Q393 569 371 588T310 608Q262 608 232 580ZM297 89T327 119T358 204Q358 228 338 248T260 297Q192 267 168 236T144 164Q144 89 237 89Q297 89 327 119Z"
/>
<glyph unicode="9" glyph-name="nine" horiz-adv-x="577" d="M432 705T487 653T542 499Q542 372 486 255T333 66T119 -7Q77 -7 59 10T40 62Q40 69 42 89Q149 89 228 140T351 282Q292 249 229 249Q146 249 91 296T36 439Q36 522 74 582T178 673T326 705Q432 705
487 653ZM329 348T386 384Q399 449 399 511Q399 562 379 584T310 606Q247 606 214 562T181 450Q181 348 273 348Q329 348 386 384Z" />
<glyph unicode=":" glyph-name="colon" horiz-adv-x="324" d="M73 356T73 416Q73 428 74 434L76 449Q87 527 165 527H179Q247 527 247 467Q247 455 246 449L244 434Q234 356 155 356H141Q73 356 73 416ZM22 -6T22 54Q22 66 23 72L25 87Q36 165 114 165H128Q196
165 196 105Q196 93 195 87L193 72Q183 -6 104 -6H90Q22 -6 22 54Z" />
<glyph unicode=";" glyph-name="semicolon" horiz-adv-x="324" d="M162 165T178 149T195 102Q195 76 191 56Q184 17 166 -19T114 -95Q92 -121 76 -132T42 -143Q14 -143 -4 -125Q3 -119 28 -95T68 -49T91 -6H87Q56 -6 39 10T21 54Q21 73 27 103Q34 136 53 150T106
165H130Q162 165 178 149ZM73 356T73 416Q73 428 74 434L76 449Q87 527 165 527H179Q247 527 247 467Q247 455 246 449L244 434Q234 356 155 356H141Q73 356 73 416Z" />
<glyph unicode="&lt;" glyph-name="less" horiz-adv-x="600" d="M608 -7L72 252L57 356L521 613L537 498L182 304L592 108L608 -7Z" />
<glyph unicode="=" glyph-name="equal" horiz-adv-x="600" d="M79 475H539L528 393H68L79 475ZM51 271H511L499 189H39L51 271Z" />
<glyph unicode="&gt;" glyph-name="greater" horiz-adv-x="600" d="M543 356L528 252L-8 -7L8 108L418 304L63 498L79 613L543 356Z" />
<glyph unicode="?" glyph-name="question" horiz-adv-x="475" d="M133 249Q142 308 170 345T250 422Q281 447 296 462T322 497T332 545Q332 576 316 591T264 607Q222 607 200 582T166 509L41 538Q50 587 82 626T166 687T284 709Q372 709 426 665T480 547Q480 498
465 466T423 411T349 358Q309 332 288 308T258 239L254 219H128L133 249ZM87 -6T87 54Q87 68 90 87Q101 165 179 165H193Q261 165 261 105Q261 92 258 72Q248 -6 169 -6H155Q87 -6 87 54Z" />
<glyph unicode="@" glyph-name="at" horiz-adv-x="834" d="M549 287Q547 279 542 265T537 240Q537 214 573 214Q617 214 650 248T702 334T720 440Q720 537 654 593T467 649Q362 649 282 602T157 473T113 287Q113 170 184 109T394 48Q464 48 509 62T595 103Q609
97 616 86T622 58Q619 38 586 20T499 -9T385 -20Q220 -20 129 56T38 278Q38 399 97 499T257 658T475 717Q573 717 645 681T755 583T793 442Q793 366 763 297T679 186T558 143Q522 143 498 161T464 207Q442 178 411 161T342 143Q283 143 248 178T212 276Q212 343
241 403T320 501T433 539Q491 539 514 500L521 523H615L549 287ZM402 228T427 252T466 313T480 390Q480 422 467 438T431 454Q397 454 372 430T332 368T318 292Q318 261 331 245T369 228Q402 228 427 252Z" />
<glyph unicode="A" glyph-name="A" horiz-adv-x="660" d="M589 390T589 58Q589 19 588 0H438Q438 85 433 173H158Q136 107 108 0H-42Q48 402 294 700H449Q589 390 589 58ZM424 283Q407 448 355 587Q306 518 268 445T196 283H424Z" />
<glyph unicode="B" glyph-name="B" horiz-adv-x="625" d="M513 343T539 305T565 219Q565 115 492 58T289 0H19L117 700H357Q421 700 471 678T548 617T576 526Q576 465 548 421T471 359Q513 343 539 305ZM358 410T388 437T419 523Q419 560 393 577T312 594H256L230
410H293Q358 410 388 437ZM319 106T350 117T395 155T409 229Q409 269 382 286T289 304H215L188 106H264Q319 106 350 117Z" />
<glyph unicode="C" glyph-name="C" horiz-adv-x="636" d="M186 -10T112 67T38 287Q38 419 81 514T207 659T402 710Q470 710 528 688T627 622Q618 593 593 565T551 536Q537 536 521 547Q478 578 451 589T394 600Q333 600 289 562T220 454T196 287Q196 100 337 100Q388
100 424 113T493 156Q515 155 529 139T544 98Q544 70 513 45T431 5T323 -10Q186 -10 112 67Z" />
<glyph unicode="D" glyph-name="D" horiz-adv-x="682" d="M428 700T497 665T604 564T642 410Q642 289 594 196T458 52T256 0H9L107 700H334Q428 700 497 665ZM317 106T372 142T458 245T488 404Q488 496 442 545T309 594H246L177 106H241Q317 106 372 142Z" />
<glyph unicode="E" glyph-name="E" horiz-adv-x="560" d="M246 594L221 414H457L442 308H206L178 106H473Q465 46 451 23T406 0H9L107 700H545L530 594H246Z" />
<glyph unicode="F" glyph-name="F" horiz-adv-x="530" d="M246 594L220 409H455L440 303H206L163 0H9L107 700H539L524 594H246Z" />
<glyph unicode="G" glyph-name="G" horiz-adv-x="686" d="M357 361T361 384H631L587 73Q534 30 474 10T333 -10Q244 -10 177 26T74 127T37 281Q37 414 82 510T212 658T414 710Q491 710 559 689T663 632Q650 601 624 572T582 543Q575 543 570 545T556 553Q523 576
485 588T407 600Q307 600 252 516T196 280Q196 193 232 147T337 100Q409 100 442 122L464 278H403Q379 278 368 291T357 335Q357 361 361 384Z" />
<glyph unicode="H" glyph-name="H" horiz-adv-x="700" d="M675 700L577 0H423L465 300H205L163 0H9L107 700H261L220 410H480L521 700H675Z" />
<glyph unicode="I" glyph-name="I" horiz-adv-x="350" d="M139 700H293L195 0H41L139 700Z" />
<glyph unicode="J" glyph-name="J" horiz-adv-x="447" d="M66 -10T21 -2T-41 17Q-28 114 10 114Q18 114 28 112T43 109Q79 100 106 100Q147 100 172 124T203 193L274 700H428L357 193Q349 134 314 88T226 16T108 -10Q66 -10 21 -2Z" />
<glyph unicode="K" glyph-name="K" horiz-adv-x="670" d="M449 336T474 279L598 5Q570 -10 496 -10Q441 -10 426 22L324 238Q310 267 301 279T278 296T236 300H229L187 0H33L131 700H285L243 402H289L525 700H688L412 365Q449 336 474 279Z" />
<glyph unicode="L" glyph-name="L" horiz-adv-x="513" d="M456 106L441 0H29L127 700H281L198 106H456Z" />
<glyph unicode="M" glyph-name="M" horiz-adv-x="846" d="M763 525T763 362Q763 206 739 0H583Q602 168 609 277T617 492V534Q559 414 523 328T439 110H317Q309 251 298 338T261 540Q220 416 196 303T145 0H-7Q27 221 70 380T186 700H357Q384 572 395 503T412
359Q453 470 486 544T565 700H738Q763 525 763 362Z" />
<glyph unicode="N" glyph-name="N" horiz-adv-x="700" d="M671 700L592 137Q588 113 583 58L580 27Q577 0 551 0H421L426 35Q427 41 427 54Q427 99 403 146L229 486L161 0H9L107 700H245Q258 700 265 697T280 680L466 322L519 700H671Z" />
<glyph unicode="O" glyph-name="O" horiz-adv-x="700" d="M173 -10T98 64T23 273Q23 405 66 504T188 656T375 710Q514 710 587 639T660 433Q660 299 617 199T495 45T310 -10Q173 -10 98 64ZM403 100T453 186T504 433Q504 515 471 557T373 600Q277 600 228 518T179
272Q179 187 211 144T308 100Q403 100 453 186Z" />
<glyph unicode="P" glyph-name="P" horiz-adv-x="615" d="M457 700T520 649T584 499Q584 417 547 357T439 264T274 231H205L173 0H19L117 700H335Q457 700 520 649ZM357 345T392 381T427 499Q427 549 399 572T310 596H256L221 345H280Q357 345 392 381Z" />
<glyph unicode="Q" glyph-name="Q" horiz-adv-x="680" d="M660 284T607 177T458 23Q477 -1 520 -50Q489 -92 430 -92Q399 -92 380 -82T345 -52Q333 -36 321 -10H310Q173 -10 98 64T23 273Q23 405 66 504T188 656T375 710Q514 710 587 639T660 433Q660 284 607
177ZM446 153T475 232T504 433Q504 515 471 557T373 600Q277 600 228 518T179 272Q179 128 271 104Q262 129 242 179H362Q370 158 390 121Q446 153 475 232Z" />
<glyph unicode="R" glyph-name="R" horiz-adv-x="640" d="M474 272T489 230L560 13Q549 4 523 -2T470 -8Q435 -8 418 1T395 32L345 198Q333 235 316 248T261 261H209L173 0H19L117 700H355Q476 700 540 653T605 517Q605 439 566 383T454 298Q474 272 489 230ZM299
369Q376 369 412 402T448 507Q448 551 420 571T330 592H256L225 369H299Z" />
<glyph unicode="S" glyph-name="S" horiz-adv-x="642" d="M215 -10T156 7T64 55T32 128Q32 174 63 198T156 223Q154 165 190 133T293 100Q358 100 393 125T428 199Q428 224 417 240T378 271T292 306Q217 333 174 361T111 424T92 508Q92 568 126 614T221 685T364
710Q466 710 535 669T624 555Q603 533 576 518T533 502Q517 502 508 508T485 534Q463 566 428 583T349 600Q301 600 276 582T251 528Q251 504 261 488T298 458T379 424Q465 393 509 367T572 309T591 231Q591 158 555 104T451 20T293 -10Q215 -10 156 7Z" />
<glyph unicode="T" glyph-name="T" horiz-adv-x="534" d="M562 684T558 656Q553 623 541 607T503 590H368L286 0H134L216 590H41L56 700H560Q562 684 558 656Z" />
<glyph unicode="U" glyph-name="U" horiz-adv-x="711" d="M174 -9T112 42T50 195Q50 225 54 252L117 700H271L205 230Q203 212 203 203Q203 153 231 127T313 101Q438 101 456 230L522 700H676L613 252Q595 120 517 56T297 -9Q174 -9 112 42Z" />
<glyph unicode="V" glyph-name="V" horiz-adv-x="638" d="M659 700Q609 492 529 320T330 0H195Q126 131 93 281T59 611Q59 640 61 700H219Q218 673 218 620Q218 327 284 159Q348 254 403 392T501 700H659Z" />
<glyph unicode="W" glyph-name="W" horiz-adv-x="896" d="M922 700Q867 476 808 313T669 0H507Q480 138 469 226T454 419Q420 308 384 219T285 0H123Q87 130 71 270T55 597Q55 664 56 700H208Q203 543 203 467Q203 376 208 306T225 155Q282 279 320 380T431 700H553Q568
470 578 372T610 158Q660 275 692 383T774 700H922Z" />
<glyph unicode="X" glyph-name="X" horiz-adv-x="602" d="M591 602T533 529T383 371Q430 312 462 263T516 148T541 0H384Q382 81 356 146T283 276Q219 212 174 147T104 0H-53Q-27 82 13 147T99 263T209 371Q164 427 135 472T85 575T60 700H215Q220 631 244 575T309
463Q365 519 405 575T469 700H624Q591 602 533 529Z" />
<glyph unicode="Y" glyph-name="Y" horiz-adv-x="590" d="M621 700L355 294L314 0H162L203 294L51 700H209L299 430L464 700H621Z" />
<glyph unicode="Z" glyph-name="Z" horiz-adv-x="580" d="M556 596L170 100H495L481 0H-13L1 100L393 600H69L83 700H571L556 596Z" />
<glyph unicode="[" glyph-name="bracketleft" horiz-adv-x="389" d="M134 852H377L365 762H272L164 -5H257L244 -95H1L134 852Z" />
<glyph unicode="\" glyph-name="backslash" horiz-adv-x="334" d="M325 -55L-87 811H17L429 -55H325Z" />
<glyph unicode="]" glyph-name="bracketright" horiz-adv-x="389" d="M255 -95H12L24 -5H117L225 762H132L145 852H388L255 -95Z" />
<glyph unicode="^" glyph-name="asciicircum" horiz-adv-x="657" d="M312 791H451L603 324H451L354 611L182 324H30L312 791Z" />
<glyph unicode="_" glyph-name="underscore" horiz-adv-x="684" d="M-72 -102H612L598 -202H-86L-72 -102Z" />
<glyph unicode="`" glyph-name="grave" horiz-adv-x="243" d="M7 773H170L210 622H104L7 773Z" />
<glyph unicode="a" glyph-name="a" horiz-adv-x="568" d="M478 207Q468 138 468 98Q468 54 485 27Q462 13 429 3T367 -7Q341 -7 329 11T315 68Q285 28 246 9T145 -10Q84 -10 43 28T2 134Q2 226 88 269T346 321L353 373Q354 380 354 392Q354 423 336 438T278 454Q239
454 206 440T129 398Q122 394 115 394Q96 394 79 418T51 481Q91 512 163 536T311 560Q406 560 454 520T503 407Q503 385 501 373L478 207ZM271 86T325 171L335 246Q234 243 195 218T155 150Q155 120 169 103T211 86Q271 86 325 171Z" />
<glyph unicode="b" glyph-name="b" horiz-adv-x="610" d="M418 560T462 533T531 455T556 337Q556 236 524 157T433 34T300 -10Q256 -10 217 10T157 64Q146 27 130 10T91 -7Q63 -7 32 2T-24 27Q-1 53 11 90T35 207L117 791H265L226 515Q286 560 359 560Q418 560
462 533ZM317 86T346 116T391 202T407 332Q407 396 384 431T320 466Q292 466 264 454T213 420L176 163Q193 124 218 105T279 86Q317 86 346 116Z" />
<glyph unicode="c" glyph-name="c" horiz-adv-x="577" d="M137 -10T72 51T7 225Q7 385 86 472T308 560Q409 560 468 510T528 370Q490 352 471 346T433 339Q417 339 408 349T395 381Q379 464 305 464Q230 464 194 407T157 231Q157 162 183 126T261 90Q308 90 337
117T392 213Q485 213 485 132Q485 91 456 59T375 8T257 -10Q137 -10 72 51Z" />
<glyph unicode="d" glyph-name="d" horiz-adv-x="598" d="M499 140T499 98Q499 54 516 27Q486 11 454 2T393 -7Q370 -7 359 10T346 62Q318 26 279 8T194 -10Q104 -10 55 45T6 202Q6 307 43 388T148 515T303 560Q332 560 359 553T407 534L443 791H591L509 207Q499
140 499 98ZM272 86T300 103T354 159L393 436Q363 466 306 466Q262 466 228 432T174 338T155 199Q155 141 174 114T233 86Q272 86 300 103Z" />
<glyph unicode="e" glyph-name="e" horiz-adv-x="580" d="M167 248V227Q167 161 192 125T265 88Q303 88 330 103T390 157Q399 168 412 168Q429 168 452 156T500 123Q461 55 401 23T252 -10Q183 -10 130 19T47 102T17 224Q17 327 53 403T158 519T319 560Q431 560
482 509T534 346Q534 308 524 248H167ZM264 466T229 431T178 332H389Q392 355 392 374Q392 466 314 466Q264 466 229 431Z" />
<glyph unicode="f" glyph-name="f" horiz-adv-x="365" d="M366 792T397 774T428 725Q428 711 422 699T406 679Q373 694 329 694Q302 694 285 673T262 613L253 550H357L344 458H240L176 0H28L92 458H9L22 550H105L114 614Q126 699 177 745T311 792Q366 792 397 774Z" />
<glyph unicode="g" glyph-name="g" horiz-adv-x="585" d="M601 518T597 495Q525 495 491 476Q518 436 518 391Q518 289 452 237T258 184Q208 184 187 177T162 153Q160 141 167 135T197 127T269 125Q380 125 438 88T496 -19Q496 -108 421 -157T213 -207Q94 -207
29 -172T-36 -71Q-36 37 114 52V55Q78 62 58 80T38 124Q38 153 63 176T129 210Q88 230 66 264T44 343Q44 446 112 503T303 560Q368 560 420 535Q450 568 484 588T548 609Q576 609 588 594T601 544Q601 518 597 495ZM316 280T341 310T366 398Q366 466 293 466Q246
466 221 435T195 348Q195 313 212 297T267 280Q316 280 341 310ZM118 33T118 -53Q118 -84 141 -97T216 -111Q281 -111 317 -89T354 -27Q354 33 240 33Q118 33 118 -53Z" />
<glyph unicode="h" glyph-name="h" horiz-adv-x="630" d="M478 560T513 525T549 428Q549 407 547 396L492 0H344L397 379Q399 395 399 401Q399 429 386 441T344 454Q277 454 198 396L142 0H-6L105 791H253L210 483Q254 519 308 539T414 560Q478 560 513 525Z" />
<glyph unicode="i" glyph-name="i" horiz-adv-x="288" d="M90 550H238L161 0H13L90 550ZM359 651T359 711Q359 723 360 729L362 744Q374 822 451 822H465Q534 822 534 763Q534 758 532 744L530 729Q520 651 441 651H427Q359 651 359 711Z" />
<glyph unicode="j" glyph-name="j" horiz-adv-x="270" d="M-92 -212T-120 -205T-159 -185Q-165 -179 -165 -169Q-165 -156 -156 -142T-139 -122Q-128 -128 -115 -131T-79 -134Q-49 -134 -30 -116T-6 -62L80 550H228L143 -53Q133 -124 82 -168T-53 -212Q-92 -212
-120 -205ZM349 651T349 711Q349 723 350 729L352 744Q364 822 441 822H455Q524 822 524 763Q524 758 522 744L520 729Q510 651 431 651H417Q349 651 349 711Z" />
<glyph unicode="k" glyph-name="k" horiz-adv-x="617" d="M413 273T428 259T454 219L551 0Q536 0 476 -3L440 -5Q412 -5 398 4T375 35L316 176Q305 204 286 215T219 224L193 222L162 0H14L125 791H273L207 324L229 325Q266 326 285 338T328 386L431 550H595L457
353Q438 324 423 309T384 281Q413 273 428 259Z" />
<glyph unicode="l" glyph-name="l" horiz-adv-x="268" d="M114 791H262L151 0H3L114 791Z" />
<glyph unicode="m" glyph-name="m" horiz-adv-x="912" d="M762 560T801 523T840 419Q840 397 838 385L784 0H635L688 382Q691 402 691 417Q691 445 679 455T635 466Q579 466 531 415Q531 408 530 404L474 0H326L381 392Q383 414 383 420Q383 445 373 455T337 466Q284
466 220 402L163 0H15L64 353Q80 455 80 500Q80 519 77 528Q99 539 128 546T182 554Q209 554 220 538T230 485Q273 525 313 542T402 560Q448 560 479 542T524 488Q589 560 692 560Q762 560 801 523Z" />
<glyph unicode="n" glyph-name="n" horiz-adv-x="610" d="M502 138Q495 93 495 66Q495 38 504 17Q441 -5 379 -5Q361 -5 353 7T344 48Q344 67 349 102L386 363Q389 383 389 398Q389 429 375 442T329 456Q278 456 207 405L151 0H3L55 370Q68 468 68 500Q68 518
65 531Q145 554 190 554Q207 554 214 545T222 517Q222 512 220 496L218 483Q276 527 313 543T390 560Q539 560 539 420Q539 406 535 372L502 138Z" />
<glyph unicode="o" glyph-name="o" horiz-adv-x="568" d="M125 -10T66 48T6 214Q6 318 41 396T142 517T295 560Q405 560 464 503T524 340Q524 236 488 157T387 34T235 -10Q125 -10 66 48ZM302 86T338 156T375 346Q375 464 292 464Q228 464 192 395T155 205Q155
145 175 116T239 86Q302 86 338 156Z" />
<glyph unicode="p" glyph-name="p" horiz-adv-x="598" d="M457 560T506 500T556 333Q556 228 521 151T421 32T268 -10Q209 -10 155 8L122 -228H-26L54 346Q64 417 64 450Q64 493 47 520Q77 536 109 545T170 554Q210 554 216 499Q277 560 369 560Q457 560 506 500ZM321
86T364 153T408 332Q408 395 385 430T320 466Q292 466 263 451T211 409V407L169 105Q204 86 247 86Q321 86 364 153Z" />
<glyph unicode="q" glyph-name="q" horiz-adv-x="608" d="M499 554T530 545T586 520Q563 494 551 457T527 340L448 -228H300L336 30Q278 -10 206 -10Q114 -10 60 51T6 217Q6 319 39 397T132 517T273 560Q323 560 359 545T411 500Q431 554 471 554Q499 554 530
545ZM388 401L390 413Q361 466 296 466Q254 466 222 434T173 344T155 210Q155 151 175 119T233 86Q299 86 352 142L388 401Z" />
<glyph unicode="r" glyph-name="r" horiz-adv-x="440" d="M399 557T418 542T438 492Q438 478 437 471Q435 454 428 438T412 412Q401 419 386 422T343 425Q279 425 242 385T193 263L156 0H8L85 550H233L223 477Q249 516 283 536T357 557Q399 557 418 542Z" />
<glyph unicode="s" glyph-name="s" horiz-adv-x="505" d="M94 -10T42 17T-11 87Q-11 119 12 141T76 166Q91 126 122 106T204 86Q252 86 276 104T301 151Q301 177 277 191T201 225Q150 242 119 258T64 303T41 379Q41 436 74 477T161 539T277 560Q350 560 401 532T477
457Q460 432 435 414T392 395Q382 395 376 398T363 410Q348 433 324 449T268 466Q229 466 205 451T181 408Q181 376 207 359T289 324Q337 307 368 292T420 248T442 176Q442 87 376 39T186 -10Q94 -10 42 17Z" />
<glyph unicode="t" glyph-name="t" horiz-adv-x="405" d="M207 144Q205 128 205 122Q205 99 215 90T250 80Q285 80 328 97Q346 90 346 66Q346 43 328 26Q310 10 273 0T190 -10Q128 -10 92 22T55 108Q55 115 57 131L103 456H19L32 550H116L137 700H285L264 550H368L355
456H251L207 144Z" />
<glyph unicode="u" glyph-name="u" horiz-adv-x="630" d="M518 133Q512 84 512 59Q512 35 517 17Q496 7 468 1T413 -5Q384 -5 372 8T360 55Q328 24 284 7T190 -10Q113 -10 74 26T34 134Q34 153 37 175L90 550H238L186 182Q183 163 183 148Q183 114 197 99T245
84Q316 84 373 156L428 550H577L518 133Z" />
<glyph unicode="v" glyph-name="v" horiz-adv-x="580" d="M578 550Q541 382 475 247T307 0H167Q40 200 40 473Q40 524 42 550H195Q188 484 188 439Q188 273 256 131Q322 224 362 326T421 550H578Z" />
<glyph unicode="w" glyph-name="w" horiz-adv-x="800" d="M800 550Q770 389 715 254T576 0H471Q408 131 391 289Q333 136 229 0H124Q36 189 36 438Q36 498 40 550H186Q180 451 180 381Q180 309 186 258T208 162Q312 336 364 550H490Q489 530 489 492Q489 311 537
159Q577 227 604 317T656 550H800Z" />
<glyph unicode="x" glyph-name="x" horiz-adv-x="520" d="M512 502T483 459T418 378T322 289Q382 220 415 158T448 22Q448 8 447 0H309Q312 56 292 106T232 208Q178 155 144 106T97 0H-41Q-25 81 27 147T165 289Q121 341 95 378T52 458T38 550H176Q175 544 175
533Q175 491 195 452T254 367Q310 417 343 460T384 550H522Q512 502 483 459Z" />
<glyph unicode="y" glyph-name="y" horiz-adv-x="535" d="M559 550L263 -42Q215 -137 164 -175T33 -214Q-16 -214 -42 -195T-69 -142Q-69 -123 -60 -107T-36 -80Q-13 -97 23 -97Q61 -97 86 -75T139 9L19 550H169L236 182L405 550H559Z" />
<glyph unicode="z" glyph-name="z" horiz-adv-x="520" d="M490 463L159 98H446L433 0H-27L-15 88L316 452H62L76 550H502L490 463Z" />
<glyph unicode="{" glyph-name="braceleft" horiz-adv-x="364" d="M108 -111T78 -82T48 -2Q48 7 50 25L80 238Q82 254 82 260Q82 316 17 327L25 384Q68 391 88 414T113 474L143 687Q152 749 191 785T298 822H396L384 732H359Q295 732 284 660L258 474Q251 422
225 395T156 357L155 354Q227 337 227 264Q227 256 225 238L199 52Q198 46 198 34Q198 -20 253 -20H278L265 -111H167Q108 -111 78 -82Z" />
<glyph unicode="|" glyph-name="bar" horiz-adv-x="283" d="M127 802H266L152 -12H13L127 802Z" />
<glyph unicode="}" glyph-name="braceright" horiz-adv-x="364" d="M256 822T286 793T316 713Q316 704 314 686L284 473Q282 457 282 451Q282 395 347 384L339 327Q296 320 276 297T251 237L221 24Q212 -38 173 -74T66 -111H-32L-20 -21H5Q69 -21 80 51L106 237Q113
289 139 316T208 354L209 357Q137 374 137 447Q137 455 139 473L165 659Q166 665 166 677Q166 731 111 731H86L99 822H197Q256 822 286 793Z" />
<glyph unicode="~" glyph-name="asciitilde" horiz-adv-x="600" d="M31 275Q55 314 95 335T185 356Q216 356 239 348T295 323Q320 309 339 302T380 295Q417 295 439 310T486 360L541 308Q513 266 472 241T376 216Q340 216 316 224T261 250Q235 264 219 270T180
276Q149 276 122 259T77 213L31 275Z" />
<glyph unicode="&#xa0;" glyph-name="uni00A0" horiz-adv-x="258" />
<glyph unicode="&#xa1;" glyph-name="exclamdown" horiz-adv-x="243" d="M235 566T235 506Q235 494 234 488L232 473Q222 395 143 395H129Q61 395 61 455Q61 467 62 473L64 488Q75 566 153 566H167Q235 566 235 506ZM144 -140H-22L80 334H176L144 -140Z" />
<glyph unicode="&#xa2;" glyph-name="cent" horiz-adv-x="547" d="M485 213T485 132Q485 91 456 59T375 8T257 -10Q203 -10 156 4L117 -80H57L107 25Q58 54 33 104T7 225Q7 385 86 472T308 560Q334 560 358 557L396 638H455L410 543Q466 522 496 478T528 370Q490
352 471 346T433 339Q417 339 408 349T395 381Q386 425 364 444L204 106Q227 90 261 90Q308 90 337 117T392 213Q485 213 485 132ZM157 188T168 155L314 464H305Q230 464 194 407T157 231Q157 188 168 155Z" />
<glyph unicode="&#xa3;" glyph-name="sterling" horiz-adv-x="609" d="M338 88T374 118T429 213L549 201Q532 111 467 51T295 -10Q192 -10 131 32Q52 -13 -43 -10L-27 99Q51 102 82 140T114 252Q114 283 111 317H1L12 395H104Q101 430 101 459Q101 578 169 644T352
710Q450 710 510 661T573 530Q562 520 531 510T480 499Q454 499 449 526Q441 571 418 591T348 612Q293 612 270 572T247 459Q247 428 250 395H372L361 317H257Q260 281 260 250Q260 173 216 110Q252 88 289 88Q338 88 374 118Z" />
<glyph unicode="&#xa4;" glyph-name="currency" horiz-adv-x="609" d="M-7 122L60 181Q22 233 22 310Q22 332 25 353Q39 451 108 523L57 582L103 624L157 563Q197 593 242 608T334 624Q429 624 496 563L564 624L600 582L533 523Q571 468 571 396Q571 376 568 353Q562
304 541 260T485 181L536 122L488 81L436 140Q351 81 258 81Q162 81 97 140L27 81L-7 122ZM321 209T358 231T416 291T438 378Q438 431 405 464T317 497Q256 497 211 457T157 353Q155 337 155 330Q155 276 188 243T276 209Q321 209 358 231Z" />
<glyph unicode="&#xa5;" glyph-name="yen" horiz-adv-x="590" d="M396 356H505L497 300H359L355 294L345 224H486L478 168H337L314 0H162L185 168H44L52 224H193L203 294L201 300H63L71 356H180L51 700H209L299 430L464 700H621L396 356Z" />
<glyph unicode="&#xa6;" glyph-name="brokenbar" horiz-adv-x="283" d="M127 802H266L223 495H84L127 802ZM56 295H195L152 -12H13L56 295Z" />
<glyph unicode="&#xa7;" glyph-name="section" horiz-adv-x="500" d="M313 292T313 299Q313 361 258 383L150 425Q70 458 70 545Q70 623 126 665T277 707Q377 707 426 668T470 565L345 556Q344 587 331 603T275 619Q242 619 220 604T197 558Q197 537 211 525T257
500L373 454Q416 437 433 408T451 336Q451 311 446 274H311Q313 292 313 299ZM100 -88T49 -49T1 54L127 63Q125 36 142 18T197 0Q230 0 252 20T275 71Q275 92 264 105T226 129L110 175Q62 194 42 223T22 297Q22 311 26 345H161Q160 340 160 329Q160 297 178 275T234
236L331 194Q411 160 411 83Q411 -88 194 -88Q100 -88 49 -49Z" />
<glyph unicode="&#xa8;" glyph-name="dieresis" horiz-adv-x="342" d="M41 640T41 690Q41 700 42 705L44 718Q53 783 118 783H130Q187 783 187 733Q187 723 186 718L184 705Q175 640 110 640H98Q41 640 41 690ZM241 640T241 690Q241 700 242 705L244 718Q253 783
318 783H330Q387 783 387 733Q387 723 386 718L384 705Q375 640 310 640H298Q241 640 241 690Z" />
<glyph unicode="&#xa9;" glyph-name="copyright" horiz-adv-x="774" d="M234 -10T163 27T54 133T15 290Q15 406 69 502T219 654T429 710Q523 710 594 672T704 566T743 409Q743 294 688 198T538 46T328 -10Q234 -10 163 27ZM434 39T514 88T640 221T686 401Q686
478 654 537T562 628T423 661Q324 661 244 612T119 479T73 297Q73 221 105 163T197 72T335 39Q434 39 514 88ZM267 132T219 178T170 306Q170 426 235 496T417 567Q499 567 543 528T588 412L485 393Q487 437 469 457T406 478Q343 478 315 434T287 315Q287 221 373
221Q411 221 432 237T465 290L565 271Q549 210 497 171T362 132Q267 132 219 178Z" />
<glyph unicode="&#xaa;" glyph-name="ordfeminine" horiz-adv-x="380" d="M380 587T374 550T367 506Q355 436 355 410Q355 388 362 380Q329 360 284 360Q262 360 252 369T239 398Q222 380 196 370T138 359Q91 359 62 382T32 449Q32 499 61 525T139 561T262 571Q264
591 264 597Q264 637 219 637Q200 637 184 632T147 616Q120 603 107 603Q94 603 83 622T70 670Q159 712 244 712Q310 712 345 687T380 613Q380 587 374 550ZM220 433T245 464L253 509Q195 508 172 495T149 463Q149 433 181 433Q220 433 245 464Z" />
<glyph unicode="&#xab;" glyph-name="guillemotleft" horiz-adv-x="570" d="M238 288L389 452H531L389 288L484 117H342L238 288ZM23 288L174 452H316L174 288L269 117H127L23 288Z" />
<glyph unicode="&#xac;" glyph-name="logicalnot" horiz-adv-x="600" d="M381 287H33L47 387H537L496 97H354L381 287Z" />
<glyph unicode="&#xad;" glyph-name="uni00AD" horiz-adv-x="380" d="M31 347H331L320 267H20L31 347Z" />
<glyph unicode="&#xae;" glyph-name="registered" horiz-adv-x="774" d="M523 710T594 672T704 566T743 409Q743 294 688 198T538 46T328 -10Q234 -10 163 27T54 133T15 290Q15 406 69 502T219 654T429 710Q523 710 594 672ZM434 39T514 88T640 221T686 401Q686
478 654 537T562 628T423 661Q324 661 244 612T119 479T73 297Q73 221 105 163T197 72T335 39Q434 39 514 88ZM502 543T540 511T578 423Q578 373 554 339T487 289L536 145H414L373 277H334L315 145H198L254 543H437Q502 543 540 511ZM346 364H398Q427 364 442 379T458
420Q458 456 415 456H359L346 364Z" />
<glyph unicode="&#xaf;" glyph-name="overscore" horiz-adv-x="243" d="M5 744H331L317 644H-9L5 744Z" />
<glyph unicode="&#xb0;" glyph-name="degree" horiz-adv-x="438" d="M168 481T129 521T90 628Q90 675 113 715T178 778T271 802Q337 802 375 762T414 655Q414 608 391 568T325 505T232 481Q168 481 129 521ZM287 548T315 577T343 655Q343 690 323 712T264 735Q217
735 189 706T160 628Q160 594 182 571T240 548Q287 548 315 577Z" />
<glyph unicode="&#xb1;" glyph-name="plusminus" horiz-adv-x="600" d="M250 338H30L41 417H261L291 629H372L342 417H561L550 338H331L301 125H220L250 338ZM-6 79H514L503 0H-17L-6 79Z" />
<glyph unicode="&#xb2;" glyph-name="uni00B2" horiz-adv-x="377" d="M380 507T338 462T217 372H345L332 282H14L23 346Q37 354 49 360Q118 400 158 427T226 491T254 570Q254 595 242 607T205 620Q176 620 159 598T138 543Q55 543 55 598Q55 629 77 655T138 695T221
710Q269 710 305 693T360 645T380 579Q380 507 338 462Z" />
<glyph unicode="&#xb3;" glyph-name="uni00B3" horiz-adv-x="380" d="M329 493T345 472T361 420Q361 350 310 314T166 278Q100 278 55 292T10 340Q10 378 54 393Q68 380 98 370T170 359Q209 359 228 375T247 428Q247 448 236 456T201 465L148 463Q138 463 128
486T117 523Q117 532 122 537T136 542H203Q231 542 246 555T261 593Q261 613 246 624T205 635Q176 635 153 623T108 588Q86 588 75 598T63 627Q63 667 111 688T227 710Q295 710 336 679T377 602Q377 564 357 539T301 504Q329 493 345 472Z" />
<glyph unicode="&#xb4;" glyph-name="acute" horiz-adv-x="243" d="M185 773H350L218 622H92L185 773Z" />
<glyph unicode="&#xb6;" glyph-name="paragraph" horiz-adv-x="580" d="M175 328Q116 335 76 383T36 502Q36 578 71 634T168 720T312 750H628L615 660H541L449 0H329L421 660H341L249 0H129L175 328Z" />
<glyph unicode="&#xb7;" glyph-name="middot" horiz-adv-x="308" d="M55 232T55 292Q55 304 56 310L58 325Q69 403 147 403H161Q229 403 229 343Q229 331 228 325L226 310Q216 232 137 232H123Q55 232 55 292Z" />
<glyph unicode="&#xb8;" glyph-name="cedilla" horiz-adv-x="253" d="M124 -51T149 -71T175 -124Q175 -181 132 -210T18 -239Q-34 -239 -56 -226T-79 -192Q-79 -179 -71 -163Q-60 -168 -38 -171T11 -174Q40 -174 55 -164T70 -135Q70 -112 41 -112Q27 -112 12 -117L-19
-75L39 0H127L72 -51H83Q124 -51 149 -71Z" />
<glyph unicode="&#xb9;" glyph-name="uni00B9" horiz-adv-x="379" d="M327 370L314 282H18L31 370H121L153 602Q109 566 76 566Q20 566 20 625Q20 631 22 645Q57 648 106 667T181 710H290L243 370H327Z" />
<glyph unicode="&#xba;" glyph-name="ordmasculine" horiz-adv-x="380" d="M108 357T70 395T31 498Q31 559 55 607T126 683T233 710Q308 710 346 672T384 567Q384 506 360 459T290 384T184 357Q108 357 70 395ZM235 432T252 473T269 576Q269 608 259 621T223 635Q182
635 164 593T146 491Q146 460 157 446T194 432Q235 432 252 473Z" />
<glyph unicode="&#xbb;" glyph-name="guillemotright" horiz-adv-x="570" d="M332 281L181 117H39L181 281L86 452H228L332 281ZM547 281L396 117H254L396 281L301 452H443L547 281Z" />
<glyph unicode="&#xbc;" glyph-name="onequarter" horiz-adv-x="976" d="M327 370L314 282H18L31 370H121L153 602Q109 566 76 566Q20 566 20 625Q20 631 22 645Q57 648 106 667T181 710H290L243 370H327ZM653 700H765L339 0H227L653 700ZM918 78H878L867 0H745L756
78H555L563 132Q637 210 671 271T719 423Q747 425 758 425Q794 425 812 415T831 377Q831 323 793 264T698 156H767L777 225H899L889 156H929L918 78Z" />
<glyph unicode="&#xbd;" glyph-name="onehalf" horiz-adv-x="966" d="M327 370L314 282H18L31 370H121L153 602Q109 566 76 566Q20 566 20 625Q20 631 22 645Q57 648 106 667T181 710H290L243 370H327ZM653 700H765L339 0H227L653 700ZM929 226T887 181T766 91H894L881
1H563L572 65Q586 73 598 79Q667 119 707 146T775 210T803 289Q803 314 791 326T754 339Q725 339 708 317T687 262Q604 262 604 317Q604 348 626 374T687 414T770 429Q818 429 854 412T909 364T929 298Q929 226 887 181Z" />
<glyph unicode="&#xbe;" glyph-name="threequarters" horiz-adv-x="967" d="M329 493T345 472T361 420Q361 350 310 314T166 278Q100 278 55 292T10 340Q10 378 54 393Q68 380 98 370T170 359Q209 359 228 375T247 428Q247 448 236 456T201 465L148 463Q138 463
128 486T117 523Q117 532 122 537T136 542H203Q231 542 246 555T261 593Q261 613 246 624T205 635Q176 635 153 623T108 588Q86 588 75 598T63 627Q63 667 111 688T227 710Q295 710 336 679T377 602Q377 564 357 539T301 504Q329 493 345 472ZM654 700H766L340
0H228L654 700ZM909 78H869L858 0H736L747 78H546L554 132Q628 210 662 271T710 423Q738 425 749 425Q785 425 803 415T822 377Q822 323 784 264T689 156H758L768 225H890L880 156H920L909 78Z" />
<glyph unicode="&#xbf;" glyph-name="questiondown" horiz-adv-x="475" d="M366 558T366 498Q366 485 363 465Q352 387 274 387H260Q192 387 192 447Q192 461 195 480Q206 558 284 558H298Q366 558 366 498ZM320 303Q311 244 283 207T203 130Q172 105 157 90T131
55T121 7Q121 -24 137 -39T189 -55Q231 -55 253 -30T287 43L412 14Q403 -35 371 -74T287 -135T169 -157Q81 -157 27 -113T-27 5Q-27 54 -12 86T30 141T104 194Q144 220 165 244T195 313L199 333H325L320 303Z" />
<glyph unicode="&#xc0;" glyph-name="Agrave" horiz-adv-x="660" d="M589 390T589 58Q589 19 588 0H438Q438 85 433 173H158Q136 107 108 0H-42Q48 402 294 700H449Q589 390 589 58ZM424 283Q407 448 355 587Q306 518 268 445T196 283H424ZM494 883H657L697 732H591L494
883Z" />
<glyph unicode="&#xc1;" glyph-name="Aacute" horiz-adv-x="660" d="M589 390T589 58Q589 19 588 0H438Q438 85 433 173H158Q136 107 108 0H-42Q48 402 294 700H449Q589 390 589 58ZM424 283Q407 448 355 587Q306 518 268 445T196 283H424ZM403 883H568L436 732H310L403
883Z" />
<glyph unicode="&#xc2;" glyph-name="Acircumflex" horiz-adv-x="660" d="M589 390T589 58Q589 19 588 0H438Q438 85 433 173H158Q136 107 108 0H-42Q48 402 294 700H449Q589 390 589 58ZM424 283Q407 448 355 587Q306 518 268 445T196 283H424ZM577 885H730L799
732H697L646 815L569 732H463L577 885Z" />
<glyph unicode="&#xc3;" glyph-name="Atilde" horiz-adv-x="660" d="M589 390T589 58Q589 19 588 0H438Q438 85 433 173H158Q136 107 108 0H-42Q48 402 294 700H449Q589 390 589 58ZM424 283Q407 448 355 587Q306 518 268 445T196 283H424ZM512 748T497 762T482
801Q482 842 511 865T581 888Q603 888 618 884T653 869Q667 861 677 858T701 854Q739 854 744 891Q777 891 792 881T807 845Q807 806 778 778T710 750Q687 750 671 755T635 769Q619 777 608 780T582 784Q545 784 540 748Q512 748 497 762Z" />
<glyph unicode="&#xc4;" glyph-name="Adieresis" horiz-adv-x="660" d="M589 390T589 58Q589 19 588 0H438Q438 85 433 173H158Q136 107 108 0H-42Q48 402 294 700H449Q589 390 589 58ZM424 283Q407 448 355 587Q306 518 268 445T196 283H424ZM216 750T216 800Q216
810 217 815L219 828Q228 893 293 893H305Q362 893 362 843Q362 833 361 828L359 815Q350 750 285 750H273Q216 750 216 800ZM416 750T416 800Q416 810 417 815L419 828Q428 893 493 893H505Q562 893 562 843Q562 833 561 828L559 815Q550 750 485 750H473Q416
750 416 800Z" />
<glyph unicode="&#xc5;" glyph-name="Aring" horiz-adv-x="660" d="M589 390T589 58Q589 19 588 0H438Q438 85 433 173H158Q136 107 108 0H-42Q48 402 294 700H449Q589 390 589 58ZM424 283Q407 448 355 587Q306 518 268 445T196 283H424ZM582 746T550 778T518
860Q518 904 538 938T594 990T670 1009Q721 1009 752 977T784 895Q784 851 764 817T709 765T633 746Q582 746 550 778ZM666 834T680 848T695 884Q695 900 685 910T658 920Q637 920 622 908T607 873Q607 856 617 845T645 834Q666 834 680 848Z" />
<glyph unicode="&#xc6;" glyph-name="AE" horiz-adv-x="970" d="M647 600L619 403H876L862 303H605L577 100H882Q874 44 857 22T796 0H418L447 206H194Q148 110 112 0H-42Q30 210 142 388T431 700H961L947 600H647ZM461 306L502 600H493Q356 492 247 306H461Z" />
<glyph unicode="&#xc7;" glyph-name="Ccedilla" horiz-adv-x="636" d="M470 710T528 688T627 622Q618 593 593 565T551 536Q537 536 521 547Q478 578 451 589T394 600Q333 600 289 562T220 454T196 287Q196 100 337 100Q388 100 424 113T493 156Q515 155 529 139T544
98Q544 73 519 50T451 12T358 -8L312 -51H323Q364 -51 389 -71T415 -124Q415 -181 372 -210T258 -239Q206 -239 184 -226T161 -192Q161 -179 169 -163Q180 -168 202 -171T251 -174Q280 -174 295 -164T310 -135Q310 -112 281 -112Q267 -112 252 -117L221 -75L273
-7Q160 7 99 82T38 287Q38 419 81 514T207 659T402 710Q470 710 528 688Z" />
<glyph unicode="&#xc8;" glyph-name="Egrave" horiz-adv-x="560" d="M246 594L221 414H457L442 308H206L178 106H473Q465 46 451 23T406 0H9L107 700H545L530 594H246ZM446 883H609L649 732H543L446 883Z" />
<glyph unicode="&#xc9;" glyph-name="Eacute" horiz-adv-x="560" d="M246 594L221 414H457L442 308H206L178 106H473Q465 46 451 23T406 0H9L107 700H545L530 594H246ZM355 883H520L388 732H262L355 883Z" />
<glyph unicode="&#xca;" glyph-name="Ecircumflex" horiz-adv-x="560" d="M246 594L221 414H457L442 308H206L178 106H473Q465 46 451 23T406 0H9L107 700H545L530 594H246ZM529 885H682L751 732H649L598 815L521 732H415L529 885Z" />
<glyph unicode="&#xcb;" glyph-name="Edieresis" horiz-adv-x="560" d="M246 594L221 414H457L442 308H206L178 106H473Q465 46 451 23T406 0H9L107 700H545L530 594H246ZM168 750T168 800Q168 810 169 815L171 828Q180 893 245 893H257Q314 893 314 843Q314 833
313 828L311 815Q302 750 237 750H225Q168 750 168 800ZM368 750T368 800Q368 810 369 815L371 828Q380 893 445 893H457Q514 893 514 843Q514 833 513 828L511 815Q502 750 437 750H425Q368 750 368 800Z" />
<glyph unicode="&#xcc;" glyph-name="Igrave" horiz-adv-x="350" d="M139 700H293L195 0H41L139 700ZM339 883H502L542 732H436L339 883Z" />
<glyph unicode="&#xcd;" glyph-name="Iacute" horiz-adv-x="350" d="M139 700H293L195 0H41L139 700ZM248 883H413L281 732H155L248 883Z" />
<glyph unicode="&#xce;" glyph-name="Icircumflex" horiz-adv-x="350" d="M139 700H293L195 0H41L139 700ZM422 885H575L644 732H542L491 815L414 732H308L422 885Z" />
<glyph unicode="&#xcf;" glyph-name="Idieresis" horiz-adv-x="350" d="M139 700H293L195 0H41L139 700ZM61 750T61 800Q61 810 62 815L64 828Q73 893 138 893H150Q207 893 207 843Q207 833 206 828L204 815Q195 750 130 750H118Q61 750 61 800ZM261 750T261 800Q261
810 262 815L264 828Q273 893 338 893H350Q407 893 407 843Q407 833 406 828L404 815Q395 750 330 750H318Q261 750 261 800Z" />
<glyph unicode="&#xd0;" glyph-name="Eth" horiz-adv-x="672" d="M428 700T497 665T604 564T642 410Q642 289 594 196T458 52T256 0H9L52 307H-13L0 404H66L107 700H334Q428 700 497 665ZM317 106T372 142T458 245T488 404Q488 496 442 545T309 594H246L219 404H345L332
307H205L177 106H241Q317 106 372 142Z" />
<glyph unicode="&#xd1;" glyph-name="Ntilde" horiz-adv-x="700" d="M671 700L592 137Q588 113 583 58L580 27Q577 0 551 0H421L426 35Q427 41 427 54Q427 99 403 146L229 486L161 0H9L107 700H245Q258 700 265 697T280 680L466 322L519 700H671ZM531 748T516
762T501 801Q501 842 530 865T600 888Q622 888 637 884T672 869Q686 861 696 858T720 854Q758 854 763 891Q796 891 811 881T826 845Q826 806 797 778T729 750Q706 750 690 755T654 769Q638 777 627 780T601 784Q564 784 559 748Q531 748 516 762Z" />
<glyph unicode="&#xd2;" glyph-name="Ograve" horiz-adv-x="700" d="M173 -10T98 64T23 273Q23 405 66 504T188 656T375 710Q514 710 587 639T660 433Q660 299 617 199T495 45T310 -10Q173 -10 98 64ZM403 100T453 186T504 433Q504 515 471 557T373 600Q277 600
228 518T179 272Q179 187 211 144T308 100Q403 100 453 186ZM506 883H669L709 732H603L506 883Z" />
<glyph unicode="&#xd3;" glyph-name="Oacute" horiz-adv-x="700" d="M173 -10T98 64T23 273Q23 405 66 504T188 656T375 710Q514 710 587 639T660 433Q660 299 617 199T495 45T310 -10Q173 -10 98 64ZM403 100T453 186T504 433Q504 515 471 557T373 600Q277 600
228 518T179 272Q179 187 211 144T308 100Q403 100 453 186ZM415 883H580L448 732H322L415 883Z" />
<glyph unicode="&#xd4;" glyph-name="Ocircumflex" horiz-adv-x="700" d="M173 -10T98 64T23 273Q23 405 66 504T188 656T375 710Q514 710 587 639T660 433Q660 299 617 199T495 45T310 -10Q173 -10 98 64ZM403 100T453 186T504 433Q504 515 471 557T373 600Q277
600 228 518T179 272Q179 187 211 144T308 100Q403 100 453 186ZM589 885H742L811 732H709L658 815L581 732H475L589 885Z" />
<glyph unicode="&#xd5;" glyph-name="Otilde" horiz-adv-x="700" d="M173 -10T98 64T23 273Q23 405 66 504T188 656T375 710Q514 710 587 639T660 433Q660 299 617 199T495 45T310 -10Q173 -10 98 64ZM403 100T453 186T504 433Q504 515 471 557T373 600Q277 600
228 518T179 272Q179 187 211 144T308 100Q403 100 453 186ZM524 748T509 762T494 801Q494 842 523 865T593 888Q615 888 630 884T665 869Q679 861 689 858T713 854Q751 854 756 891Q789 891 804 881T819 845Q819 806 790 778T722 750Q699 750 683 755T647 769Q631
777 620 780T594 784Q557 784 552 748Q524 748 509 762Z" />
<glyph unicode="&#xd6;" glyph-name="Odieresis" horiz-adv-x="700" d="M173 -10T98 64T23 273Q23 405 66 504T188 656T375 710Q514 710 587 639T660 433Q660 299 617 199T495 45T310 -10Q173 -10 98 64ZM403 100T453 186T504 433Q504 515 471 557T373 600Q277
600 228 518T179 272Q179 187 211 144T308 100Q403 100 453 186ZM228 750T228 800Q228 810 229 815L231 828Q240 893 305 893H317Q374 893 374 843Q374 833 373 828L371 815Q362 750 297 750H285Q228 750 228 800ZM428 750T428 800Q428 810 429 815L431 828Q440
893 505 893H517Q574 893 574 843Q574 833 573 828L571 815Q562 750 497 750H485Q428 750 428 800Z" />
<glyph unicode="&#xd7;" glyph-name="multiply" horiz-adv-x="600" d="M62 176L231 324L104 472L164 526L291 381L460 529L514 472L345 324L472 176L412 123L285 267L116 119L62 176Z" />
<glyph unicode="&#xd8;" glyph-name="Oslash" horiz-adv-x="680" d="M599 626Q660 556 660 433Q660 299 617 199T495 45T310 -10Q185 -10 112 52L68 0H-4L74 92Q23 163 23 273Q23 405 66 504T188 656T375 710Q487 710 557 663L590 701H662L599 626ZM179 241T183
220L470 559Q437 600 373 600Q277 600 228 518T179 272Q179 241 183 220ZM504 471T496 505L202 158Q234 100 308 100Q403 100 453 186T504 433Q504 471 496 505Z" />
<glyph unicode="&#xd9;" glyph-name="Ugrave" horiz-adv-x="711" d="M174 -9T112 42T50 195Q50 225 54 252L117 700H271L205 230Q203 212 203 203Q203 153 231 127T313 101Q438 101 456 230L522 700H676L613 252Q595 120 517 56T297 -9Q174 -9 112 42ZM520 893H683L723
742H617L520 893Z" />
<glyph unicode="&#xda;" glyph-name="Uacute" horiz-adv-x="711" d="M174 -9T112 42T50 195Q50 225 54 252L117 700H271L205 230Q203 212 203 203Q203 153 231 127T313 101Q438 101 456 230L522 700H676L613 252Q595 120 517 56T297 -9Q174 -9 112 42ZM429 893H594L462
742H336L429 893Z" />
<glyph unicode="&#xdb;" glyph-name="Ucircumflex" horiz-adv-x="711" d="M174 -9T112 42T50 195Q50 225 54 252L117 700H271L205 230Q203 212 203 203Q203 153 231 127T313 101Q438 101 456 230L522 700H676L613 252Q595 120 517 56T297 -9Q174 -9 112 42ZM603
895H756L825 742H723L672 825L595 742H489L603 895Z" />
<glyph unicode="&#xdc;" glyph-name="Udieresis" horiz-adv-x="711" d="M174 -9T112 42T50 195Q50 225 54 252L117 700H271L205 230Q203 212 203 203Q203 153 231 127T313 101Q438 101 456 230L522 700H676L613 252Q595 120 517 56T297 -9Q174 -9 112 42ZM242
760T242 810Q242 820 243 825L245 838Q254 903 319 903H331Q388 903 388 853Q388 843 387 838L385 825Q376 760 311 760H299Q242 760 242 810ZM442 760T442 810Q442 820 443 825L445 838Q454 903 519 903H531Q588 903 588 853Q588 843 587 838L585 825Q576 760
511 760H499Q442 760 442 810Z" />
<glyph unicode="&#xdd;" glyph-name="Yacute" horiz-adv-x="590" d="M621 700L355 294L314 0H162L203 294L51 700H209L299 430L464 700H621ZM368 883H533L401 732H275L368 883Z" />
<glyph unicode="&#xde;" glyph-name="Thorn" horiz-adv-x="641" d="M434 600T502 546T570 394Q570 269 489 200T265 131H187L169 0H19L117 700H267L253 600H311Q434 600 502 546ZM341 243T379 278T417 394Q417 444 387 466T295 488H237L203 243H261Q341 243 379 278Z" />
<glyph unicode="&#xdf;" glyph-name="germandbls" horiz-adv-x="637" d="M504 344T530 307T556 219Q556 112 496 49T323 -14Q253 -14 215 4T176 63Q176 86 186 102T214 123Q230 105 254 94T310 82Q367 82 398 116T430 213Q430 263 408 284T336 305Q326 305 308
303L283 302Q272 302 262 326T252 373Q252 388 254 393T261 399H320Q382 399 417 437T453 535Q453 582 427 609T348 637Q285 637 250 602T205 502L135 0H7L77 502Q93 610 167 670T353 731Q421 731 472 709T552 645T581 548Q581 480 549 430T458 358Q504 344 530
307Z" />
<glyph unicode="&#xe0;" glyph-name="agrave" horiz-adv-x="568" d="M478 207Q468 138 468 98Q468 54 485 27Q462 13 429 3T367 -7Q341 -7 329 11T315 68Q285 28 246 9T145 -10Q84 -10 43 28T2 134Q2 226 88 269T346 321L353 373Q354 380 354 392Q354 423 336
438T278 454Q239 454 206 440T129 398Q122 394 115 394Q96 394 79 418T51 481Q91 512 163 536T311 560Q406 560 454 520T503 407Q503 385 501 373L478 207ZM271 86T325 171L335 246Q234 243 195 218T155 150Q155 120 169 103T211 86Q271 86 325 171ZM426 773H589L629
622H523L426 773Z" />
<glyph unicode="&#xe1;" glyph-name="aacute" horiz-adv-x="568" d="M478 207Q468 138 468 98Q468 54 485 27Q462 13 429 3T367 -7Q341 -7 329 11T315 68Q285 28 246 9T145 -10Q84 -10 43 28T2 134Q2 226 88 269T346 321L353 373Q354 380 354 392Q354 423 336
438T278 454Q239 454 206 440T129 398Q122 394 115 394Q96 394 79 418T51 481Q91 512 163 536T311 560Q406 560 454 520T503 407Q503 385 501 373L478 207ZM271 86T325 171L335 246Q234 243 195 218T155 150Q155 120 169 103T211 86Q271 86 325 171ZM335 773H500L368
622H242L335 773Z" />
<glyph unicode="&#xe2;" glyph-name="acircumflex" horiz-adv-x="568" d="M478 207Q468 138 468 98Q468 54 485 27Q462 13 429 3T367 -7Q341 -7 329 11T315 68Q285 28 246 9T145 -10Q84 -10 43 28T2 134Q2 226 88 269T346 321L353 373Q354 380 354 392Q354 423
336 438T278 454Q239 454 206 440T129 398Q122 394 115 394Q96 394 79 418T51 481Q91 512 163 536T311 560Q406 560 454 520T503 407Q503 385 501 373L478 207ZM271 86T325 171L335 246Q234 243 195 218T155 150Q155 120 169 103T211 86Q271 86 325 171ZM509 775H662L731
622H629L578 705L501 622H395L509 775Z" />
<glyph unicode="&#xe3;" glyph-name="atilde" horiz-adv-x="568" d="M478 207Q468 138 468 98Q468 54 485 27Q462 13 429 3T367 -7Q341 -7 329 11T315 68Q285 28 246 9T145 -10Q84 -10 43 28T2 134Q2 226 88 269T346 321L353 373Q354 380 354 392Q354 423 336
438T278 454Q239 454 206 440T129 398Q122 394 115 394Q96 394 79 418T51 481Q91 512 163 536T311 560Q406 560 454 520T503 407Q503 385 501 373L478 207ZM271 86T325 171L335 246Q234 243 195 218T155 150Q155 120 169 103T211 86Q271 86 325 171ZM444 638T429
652T414 691Q414 732 443 755T513 778Q535 778 550 774T585 759Q599 751 609 748T633 744Q671 744 676 781Q709 781 724 771T739 735Q739 696 710 668T642 640Q619 640 603 645T567 659Q551 667 540 670T514 674Q477 674 472 638Q444 638 429 652Z" />
<glyph unicode="&#xe4;" glyph-name="adieresis" horiz-adv-x="568" d="M478 207Q468 138 468 98Q468 54 485 27Q462 13 429 3T367 -7Q341 -7 329 11T315 68Q285 28 246 9T145 -10Q84 -10 43 28T2 134Q2 226 88 269T346 321L353 373Q354 380 354 392Q354 423 336
438T278 454Q239 454 206 440T129 398Q122 394 115 394Q96 394 79 418T51 481Q91 512 163 536T311 560Q406 560 454 520T503 407Q503 385 501 373L478 207ZM271 86T325 171L335 246Q234 243 195 218T155 150Q155 120 169 103T211 86Q271 86 325 171ZM148 640T148
690Q148 700 149 705L151 718Q160 783 225 783H237Q294 783 294 733Q294 723 293 718L291 705Q282 640 217 640H205Q148 640 148 690ZM348 640T348 690Q348 700 349 705L351 718Q360 783 425 783H437Q494 783 494 733Q494 723 493 718L491 705Q482 640 417 640H405Q348
640 348 690Z" />
<glyph unicode="&#xe5;" glyph-name="aring" horiz-adv-x="568" d="M478 207Q468 138 468 98Q468 54 485 27Q462 13 429 3T367 -7Q341 -7 329 11T315 68Q285 28 246 9T145 -10Q84 -10 43 28T2 134Q2 226 88 269T346 321L353 373Q354 380 354 392Q354 423 336 438T278
454Q239 454 206 440T129 398Q122 394 115 394Q96 394 79 418T51 481Q91 512 163 536T311 560Q406 560 454 520T503 407Q503 385 501 373L478 207ZM271 86T325 171L335 246Q234 243 195 218T155 150Q155 120 169 103T211 86Q271 86 325 171ZM514 636T482 668T450
750Q450 794 470 828T526 880T602 899Q653 899 684 867T716 785Q716 741 696 707T641 655T565 636Q514 636 482 668ZM598 724T612 738T627 774Q627 790 617 800T590 810Q569 810 554 798T539 763Q539 746 549 735T577 724Q598 724 612 738Z" />
<glyph unicode="&#xe6;" glyph-name="ae" horiz-adv-x="900" d="M490 248Q489 234 489 208Q489 144 516 115T586 86Q626 86 650 101T701 147L717 164Q726 173 739 173Q758 173 782 160T827 128Q787 63 729 26T576 -12Q522 -12 476 5T397 56Q315 -12 184 -12Q103
-12 54 31T4 145Q4 250 97 291T352 330Q358 366 358 388Q358 419 337 436T279 454Q250 454 227 445T170 416L128 393Q120 389 114 389Q96 389 81 414T54 481Q106 514 170 537T302 560Q354 560 396 546T466 505Q538 560 641 560Q851 560 851 352Q851 325 847 296T835
248H490ZM578 466T548 429T503 330H706Q709 353 709 374Q709 418 688 442T625 466Q578 466 548 429ZM295 84T345 155Q339 181 339 211Q339 234 340 246Q241 243 199 216T156 148Q156 119 173 102T222 84Q295 84 345 155Z" />
<glyph unicode="&#xe7;" glyph-name="ccedilla" horiz-adv-x="577" d="M485 213T485 132Q485 75 432 37T293 -9L247 -51H258Q299 -51 324 -71T350 -124Q350 -181 307 -210T193 -239Q141 -239 119 -226T96 -192Q96 -179 104 -163Q115 -168 137 -171T186 -174Q215
-174 230 -164T245 -135Q245 -112 216 -112Q202 -112 187 -117L156 -75L208 -7Q111 5 59 65T7 225Q7 385 86 472T308 560Q409 560 468 510T528 370Q490 352 471 346T433 339Q417 339 408 349T395 381Q379 464 305 464Q230 464 194 407T157 231Q157 162 183 126T261
90Q308 90 337 117T392 213Q485 213 485 132Z" />
<glyph unicode="&#xe8;" glyph-name="egrave" horiz-adv-x="580" d="M167 248V227Q167 161 192 125T265 88Q303 88 330 103T390 157Q399 168 412 168Q429 168 452 156T500 123Q461 55 401 23T252 -10Q183 -10 130 19T47 102T17 224Q17 327 53 403T158 519T319
560Q431 560 482 509T534 346Q534 308 524 248H167ZM264 466T229 431T178 332H389Q392 355 392 374Q392 466 314 466Q264 466 229 431ZM445 773H608L648 622H542L445 773Z" />
<glyph unicode="&#xe9;" glyph-name="eacute" horiz-adv-x="580" d="M167 248V227Q167 161 192 125T265 88Q303 88 330 103T390 157Q399 168 412 168Q429 168 452 156T500 123Q461 55 401 23T252 -10Q183 -10 130 19T47 102T17 224Q17 327 53 403T158 519T319
560Q431 560 482 509T534 346Q534 308 524 248H167ZM264 466T229 431T178 332H389Q392 355 392 374Q392 466 314 466Q264 466 229 431ZM354 773H519L387 622H261L354 773Z" />
<glyph unicode="&#xea;" glyph-name="ecircumflex" horiz-adv-x="580" d="M167 248V227Q167 161 192 125T265 88Q303 88 330 103T390 157Q399 168 412 168Q429 168 452 156T500 123Q461 55 401 23T252 -10Q183 -10 130 19T47 102T17 224Q17 327 53 403T158 519T319
560Q431 560 482 509T534 346Q534 308 524 248H167ZM264 466T229 431T178 332H389Q392 355 392 374Q392 466 314 466Q264 466 229 431ZM528 775H681L750 622H648L597 705L520 622H414L528 775Z" />
<glyph unicode="&#xeb;" glyph-name="edieresis" horiz-adv-x="580" d="M167 248V227Q167 161 192 125T265 88Q303 88 330 103T390 157Q399 168 412 168Q429 168 452 156T500 123Q461 55 401 23T252 -10Q183 -10 130 19T47 102T17 224Q17 327 53 403T158 519T319
560Q431 560 482 509T534 346Q534 308 524 248H167ZM264 466T229 431T178 332H389Q392 355 392 374Q392 466 314 466Q264 466 229 431ZM167 640T167 690Q167 700 168 705L170 718Q179 783 244 783H256Q313 783 313 733Q313 723 312 718L310 705Q301 640 236 640H224Q167
640 167 690ZM367 640T367 690Q367 700 368 705L370 718Q379 783 444 783H456Q513 783 513 733Q513 723 512 718L510 705Q501 640 436 640H424Q367 640 367 690Z" />
<glyph unicode="&#xec;" glyph-name="igrave" horiz-adv-x="288" d="M90 550H238L161 0H13L90 550ZM293 773H456L496 622H390L293 773Z" />
<glyph unicode="&#xed;" glyph-name="iacute" horiz-adv-x="288" d="M90 550H238L161 0H13L90 550ZM202 773H367L235 622H109L202 773Z" />
<glyph unicode="&#xee;" glyph-name="icircumflex" horiz-adv-x="288" d="M90 550H238L161 0H13L90 550ZM376 775H529L598 622H496L445 705L368 622H262L376 775Z" />
<glyph unicode="&#xef;" glyph-name="idieresis" horiz-adv-x="288" d="M90 550H238L161 0H13L90 550ZM15 640T15 690Q15 700 16 705L18 718Q27 783 92 783H104Q161 783 161 733Q161 723 160 718L158 705Q149 640 84 640H72Q15 640 15 690ZM215 640T215 690Q215
700 216 705L218 718Q227 783 292 783H304Q361 783 361 733Q361 723 360 718L358 705Q349 640 284 640H272Q215 640 215 690Z" />
<glyph unicode="&#xf0;" glyph-name="eth" horiz-adv-x="607" d="M506 624T532 544T559 377Q559 196 485 92T255 -12Q140 -12 78 46T16 207Q16 303 51 378T153 497T313 540Q346 540 374 530Q354 575 326 614L245 565L210 626L281 669Q253 700 217 727L334 804Q373
777 406 744L490 795L525 733L454 691Q506 624 532 544ZM336 82T369 149T402 322Q402 382 379 414T309 446Q232 446 198 378T164 203Q164 142 187 112T258 82Q336 82 369 149Z" />
<glyph unicode="&#xf1;" glyph-name="ntilde" horiz-adv-x="610" d="M502 138Q495 93 495 66Q495 38 504 17Q441 -5 379 -5Q361 -5 353 7T344 48Q344 67 349 102L386 363Q389 383 389 398Q389 429 375 442T329 456Q278 456 207 405L151 0H3L55 370Q68 468 68 500Q68
518 65 531Q145 554 190 554Q207 554 214 545T222 517Q222 512 220 496L218 483Q276 527 313 543T390 560Q539 560 539 420Q539 406 535 372L502 138ZM472 638T457 652T442 691Q442 732 471 755T541 778Q563 778 578 774T613 759Q627 751 637 748T661 744Q699 744
704 781Q737 781 752 771T767 735Q767 696 738 668T670 640Q647 640 631 645T595 659Q579 667 568 670T542 674Q505 674 500 638Q472 638 457 652Z" />
<glyph unicode="&#xf2;" glyph-name="ograve" horiz-adv-x="568" d="M125 -10T66 48T6 214Q6 318 41 396T142 517T295 560Q405 560 464 503T524 340Q524 236 488 157T387 34T235 -10Q125 -10 66 48ZM302 86T338 156T375 346Q375 464 292 464Q228 464 192 395T155
205Q155 145 175 116T239 86Q302 86 338 156ZM433 773H596L636 622H530L433 773Z" />
<glyph unicode="&#xf3;" glyph-name="oacute" horiz-adv-x="568" d="M125 -10T66 48T6 214Q6 318 41 396T142 517T295 560Q405 560 464 503T524 340Q524 236 488 157T387 34T235 -10Q125 -10 66 48ZM302 86T338 156T375 346Q375 464 292 464Q228 464 192 395T155
205Q155 145 175 116T239 86Q302 86 338 156ZM342 773H507L375 622H249L342 773Z" />
<glyph unicode="&#xf4;" glyph-name="ocircumflex" horiz-adv-x="568" d="M125 -10T66 48T6 214Q6 318 41 396T142 517T295 560Q405 560 464 503T524 340Q524 236 488 157T387 34T235 -10Q125 -10 66 48ZM302 86T338 156T375 346Q375 464 292 464Q228 464 192
395T155 205Q155 145 175 116T239 86Q302 86 338 156ZM516 775H669L738 622H636L585 705L508 622H402L516 775Z" />
<glyph unicode="&#xf5;" glyph-name="otilde" horiz-adv-x="568" d="M125 -10T66 48T6 214Q6 318 41 396T142 517T295 560Q405 560 464 503T524 340Q524 236 488 157T387 34T235 -10Q125 -10 66 48ZM302 86T338 156T375 346Q375 464 292 464Q228 464 192 395T155
205Q155 145 175 116T239 86Q302 86 338 156ZM451 638T436 652T421 691Q421 732 450 755T520 778Q542 778 557 774T592 759Q606 751 616 748T640 744Q678 744 683 781Q716 781 731 771T746 735Q746 696 717 668T649 640Q626 640 610 645T574 659Q558 667 547 670T521
674Q484 674 479 638Q451 638 436 652Z" />
<glyph unicode="&#xf6;" glyph-name="odieresis" horiz-adv-x="568" d="M125 -10T66 48T6 214Q6 318 41 396T142 517T295 560Q405 560 464 503T524 340Q524 236 488 157T387 34T235 -10Q125 -10 66 48ZM302 86T338 156T375 346Q375 464 292 464Q228 464 192 395T155
205Q155 145 175 116T239 86Q302 86 338 156ZM155 640T155 690Q155 700 156 705L158 718Q167 783 232 783H244Q301 783 301 733Q301 723 300 718L298 705Q289 640 224 640H212Q155 640 155 690ZM355 640T355 690Q355 700 356 705L358 718Q367 783 432 783H444Q501
783 501 733Q501 723 500 718L498 705Q489 640 424 640H412Q355 640 355 690Z" />
<glyph unicode="&#xf7;" glyph-name="divide" horiz-adv-x="600" d="M270 452T255 467T239 506Q239 537 261 558T313 579Q339 579 354 565T370 526Q370 495 348 474T295 452Q270 452 255 467ZM64 364H524L513 284H53L64 364ZM217 73T202 87T186 126Q186 158 208
179T260 201Q286 201 301 186T317 146Q317 115 295 94T242 73Q217 73 202 87Z" />
<glyph unicode="&#xf8;" glyph-name="oslash" horiz-adv-x="568" d="M481 485Q524 428 524 340Q524 236 488 157T387 34T235 -10Q141 -10 85 32L57 0H-27L41 78Q6 131 6 214Q6 318 41 396T142 517T295 560Q380 560 433 526L454 550H538L481 485ZM229 464T193 396T155
208L354 435Q333 464 292 464Q229 464 193 396ZM375 363L169 128Q189 86 239 86Q302 86 338 156T375 346V363Z" />
<glyph unicode="&#xf9;" glyph-name="ugrave" horiz-adv-x="630" d="M518 133Q512 84 512 59Q512 35 517 17Q496 7 468 1T413 -5Q384 -5 372 8T360 55Q328 24 284 7T190 -10Q113 -10 74 26T34 134Q34 153 37 175L90 550H238L186 182Q183 163 183 148Q183 114 197
99T245 84Q316 84 373 156L428 550H577L518 133ZM464 773H627L667 622H561L464 773Z" />
<glyph unicode="&#xfa;" glyph-name="uacute" horiz-adv-x="630" d="M518 133Q512 84 512 59Q512 35 517 17Q496 7 468 1T413 -5Q384 -5 372 8T360 55Q328 24 284 7T190 -10Q113 -10 74 26T34 134Q34 153 37 175L90 550H238L186 182Q183 163 183 148Q183 114 197
99T245 84Q316 84 373 156L428 550H577L518 133ZM373 773H538L406 622H280L373 773Z" />
<glyph unicode="&#xfb;" glyph-name="ucircumflex" horiz-adv-x="630" d="M518 133Q512 84 512 59Q512 35 517 17Q496 7 468 1T413 -5Q384 -5 372 8T360 55Q328 24 284 7T190 -10Q113 -10 74 26T34 134Q34 153 37 175L90 550H238L186 182Q183 163 183 148Q183
114 197 99T245 84Q316 84 373 156L428 550H577L518 133ZM547 775H700L769 622H667L616 705L539 622H433L547 775Z" />
<glyph unicode="&#xfc;" glyph-name="udieresis" horiz-adv-x="630" d="M518 133Q512 84 512 59Q512 35 517 17Q496 7 468 1T413 -5Q384 -5 372 8T360 55Q328 24 284 7T190 -10Q113 -10 74 26T34 134Q34 153 37 175L90 550H238L186 182Q183 163 183 148Q183 114
197 99T245 84Q316 84 373 156L428 550H577L518 133ZM186 640T186 690Q186 700 187 705L189 718Q198 783 263 783H275Q332 783 332 733Q332 723 331 718L329 705Q320 640 255 640H243Q186 640 186 690ZM386 640T386 690Q386 700 387 705L389 718Q398 783 463 783H475Q532
783 532 733Q532 723 531 718L529 705Q520 640 455 640H443Q386 640 386 690Z" />
<glyph unicode="&#xfd;" glyph-name="yacute" horiz-adv-x="535" d="M559 550L263 -42Q215 -137 164 -175T33 -214Q-16 -214 -42 -195T-69 -142Q-69 -123 -60 -107T-36 -80Q-13 -97 23 -97Q61 -97 86 -75T139 9L19 550H169L236 182L405 550H559ZM326 773H491L359
622H233L326 773Z" />
<glyph unicode="&#xfe;" glyph-name="thorn" horiz-adv-x="609" d="M458 560T507 510T557 351Q557 316 551 272Q530 127 451 58T258 -12Q209 -12 155 11L122 -228H-26L115 780H263L225 505Q253 530 287 545T369 560Q458 560 507 510ZM408 326T408 352Q408 413
388 439T330 466Q299 466 267 450T211 408L169 107Q206 84 247 84Q309 84 347 125T401 272Q408 326 408 352Z" />
<glyph unicode="&#xff;" glyph-name="ydieresis" horiz-adv-x="535" d="M559 550L263 -42Q215 -137 164 -175T33 -214Q-16 -214 -42 -195T-69 -142Q-69 -123 -60 -107T-36 -80Q-13 -97 23 -97Q61 -97 86 -75T139 9L19 550H169L236 182L405 550H559ZM139 640T139
690Q139 700 140 705L142 718Q151 783 216 783H228Q285 783 285 733Q285 723 284 718L282 705Q273 640 208 640H196Q139 640 139 690ZM339 640T339 690Q339 700 340 705L342 718Q351 783 416 783H428Q485 783 485 733Q485 723 484 718L482 705Q473 640 408 640H396Q339
640 339 690Z" />
<glyph unicode="&#x2013;" glyph-name="endash" horiz-adv-x="623" d="M41 347H564L553 267H30L41 347Z" />
<glyph unicode="&#x2014;" glyph-name="emdash" horiz-adv-x="1100" d="M41 347H1041L1030 267H30L41 347Z" />
<glyph unicode="&#x2018;" glyph-name="quoteleft" horiz-adv-x="243" d="M303 631T319 615T335 571Q335 561 334 555L332 536Q327 502 304 481T248 460H227Q197 460 179 477T161 525Q161 536 162 541L165 560Q171 606 188 640T241 718Q262 744 279 756T314 768Q342
768 360 750Q313 706 293 684T264 631H274Q303 631 319 615Z" />
<glyph unicode="&#x2019;" glyph-name="quoteright" horiz-adv-x="243" d="M233 824T251 807T269 759Q269 748 268 743L265 724Q259 678 242 644T189 566Q168 540 151 528T116 516Q88 516 70 534Q117 578 137 600T166 653H156Q127 653 111 669T95 713Q95 723 96
729L98 748Q103 782 126 803T182 824H203Q233 824 251 807Z" />
<glyph unicode="&#x201a;" glyph-name="quotesinglbase" horiz-adv-x="270" d="M140 165T158 148T176 100Q176 89 175 84L172 65Q166 19 149 -15T96 -93Q75 -119 58 -131T23 -143Q-5 -143 -23 -125Q24 -81 44 -59T73 -6H63Q34 -6 18 10T2 54Q2 64 3 70L5 89Q10
123 33 144T89 165H110Q140 165 158 148Z" />
<glyph unicode="&#x201c;" glyph-name="quotedblleft" horiz-adv-x="470" d="M333 706T313 684T284 631H294Q323 631 339 615T355 571Q355 561 354 555L352 536Q347 502 324 481T268 460H247Q217 460 199 477T181 525Q181 536 182 541L185 560Q191 606 208 640T261
718Q282 744 299 756T334 768Q362 768 380 750Q333 706 313 684ZM523 631T539 615T555 571Q555 561 554 555L552 536Q547 502 524 481T468 460H447Q417 460 399 477T381 525Q381 536 382 541L385 560Q391 606 408 640T461 718Q482 744 499 756T534 768Q562 768
580 750Q533 706 513 684T484 631H494Q523 631 539 615Z" />
<glyph unicode="&#x201d;" glyph-name="quotedblright" horiz-adv-x="470" d="M433 824T451 807T469 759Q469 748 468 743L465 724Q459 678 442 644T389 566Q368 540 351 528T316 516Q288 516 270 534Q317 578 337 600T366 653H356Q327 653 311 669T295 713Q295
723 296 729L298 748Q303 782 326 803T382 824H403Q433 824 451 807ZM233 824T251 807T269 759Q269 748 268 743L265 724Q259 678 242 644T189 566Q168 540 151 528T116 516Q88 516 70 534Q117 578 137 600T166 653H156Q127 653 111 669T95 713Q95 723 96 729L98
748Q103 782 126 803T182 824H203Q233 824 251 807Z" />
<glyph unicode="&#x201e;" glyph-name="quotedblbase" horiz-adv-x="470" d="M340 165T358 148T376 100Q376 89 375 84L372 65Q366 19 349 -15T296 -93Q275 -119 258 -131T223 -143Q195 -143 177 -125Q224 -81 244 -59T273 -6H263Q234 -6 218 10T202 54Q202 64
203 70L205 89Q210 123 233 144T289 165H310Q340 165 358 148ZM140 165T158 148T176 100Q176 89 175 84L172 65Q166 19 149 -15T96 -93Q75 -119 58 -131T23 -143Q-5 -143 -23 -125Q24 -81 44 -59T73 -6H63Q34 -6 18 10T2 54Q2 64 3 70L5 89Q10 123 33 144T89 165H110Q140
165 158 148Z" />
<glyph unicode="&#x2022;" glyph-name="bullet" horiz-adv-x="560" d="M179 197T137 238T94 347Q94 406 121 454T196 529T301 557Q372 557 415 515T458 405Q458 347 430 299T354 224T250 197Q179 197 137 238Z" />
<glyph unicode="&#x2039;" glyph-name="guilsinglleft" horiz-adv-x="340" d="M13 288L164 452H306L164 288L259 117H117L13 288Z" />
<glyph unicode="&#x203a;" glyph-name="guilsinglright" horiz-adv-x="340" d="M327 281L176 117H34L176 281L81 452H223L327 281Z" />
</font>
</defs>
</svg>
