<?xml version="1.0" standalone="no"?>
<!DOCTYPE svg PUBLIC "-//W3C//DTD SVG 1.1//EN" "http://www.w3.org/Graphics/SVG/1.1/DTD/svg11.dtd">
<svg xmlns="http://www.w3.org/2000/svg">
<defs >
<font id="Krub" horiz-adv-x="566" ><font-face
    font-family="Krub SemiBold"
    units-per-em="1000"
    panose-1="0 0 7 0 0 0 0 0 0 0"
    ascent="1007"
    descent="-293"
    alphabetic="0" />
<glyph unicode=" " glyph-name="space" horiz-adv-x="258" />
<glyph unicode="!" glyph-name="exclam" horiz-adv-x="246" d="M53 700H193L164 219H82L53 700ZM50 -4T50 63V76Q50 143 117 143H129Q196 143 196 76V63Q196 -4 129 -4H117Q50 -4 50 63Z" />
<glyph unicode="&quot;" glyph-name="quotedbl" horiz-adv-x="324" d="M29 737H140L123 505H45L29 737ZM184 737H295L279 505H201L184 737Z" />
<glyph unicode="#" glyph-name="numbersign" horiz-adv-x="540" d="M427 420L404 278H489V202H392L360 0H281L313 202H189L157 0H78L110 202H25V278H122L145 420H51V496H157L190 700H269L236 496H360L393 700H472L439 496H515V420H427ZM348 420H224L201 278H325L348 420Z" />
<glyph unicode="$" glyph-name="dollar" horiz-adv-x="609" d="M575 122T512 63T341 -8V-120H279V-10Q170 -6 105 37T39 148Q39 179 63 196T132 214Q140 157 178 124T279 85V312Q158 346 105 394T52 519Q52 602 112 653T279 709V809H341V708Q425 700 483 656T563
536Q550 523 526 513T483 503Q466 503 456 510T436 536Q404 601 341 614V409Q435 378 484 352T554 293T575 213Q575 122 512 63ZM180 493T201 472T279 429V616Q180 607 180 529Q180 493 201 472ZM391 95T418 122T445 192Q445 227 421 250T341 293V87Q391 95 418
122Z" />
<glyph unicode="%" glyph-name="percent" horiz-adv-x="960" d="M628 710H743L339 -10H224L628 710ZM159 335T114 384T68 517Q68 601 114 650T237 700Q315 700 361 651T407 517Q407 433 361 384T237 335Q159 335 114 384ZM309 407T309 518Q309 574 292 601T237
628Q166 628 166 522Q166 407 237 407Q309 407 309 518ZM642 -7T597 42T551 175Q551 259 597 308T720 358Q798 358 844 309T890 175Q890 91 844 42T720 -7Q642 -7 597 42ZM792 65T792 176Q792 232 775 259T720 286Q649 286 649 180Q649 65 720 65Q792 65 792 176Z"
/>
<glyph unicode="&amp;" glyph-name="ampersand" horiz-adv-x="687" d="M563 97T587 92T644 85V45Q644 19 627 5T575 -10Q509 -10 446 38Q365 -10 265 -10Q208 -10 155 11T67 73T33 171Q33 219 48 253T93 314T173 374Q117 468 117 539Q117 591 140 630T204 689T292
710Q337 710 375 693T437 641T461 560Q461 518 442 485T389 424T298 361Q331 314 374 264T455 177Q498 255 496 368Q549 368 574 347T599 280Q599 243 583 199T534 115Q563 97 587 92ZM262 630T241 605T219 541Q219 512 228 485T256 424Q315 460 339 489T364 564Q364
594 346 612T295 630Q262 630 241 605ZM152 130T188 100T282 69Q339 69 383 97Q290 194 216 305Q179 277 166 250T152 180Q152 130 188 100Z" />
<glyph unicode="&apos;" glyph-name="quotesingle" horiz-adv-x="223" d="M56 737H167L150 505H73L56 737Z" />
<glyph unicode="(" glyph-name="parenleft" horiz-adv-x="390" d="M150 0T112 125T73 380Q73 508 111 633T228 861H322Q261 748 230 630T198 380Q198 248 229 129T322 -103H228Q150 0 112 125Z" />
<glyph unicode=")" glyph-name="parenright" horiz-adv-x="390" d="M68 -103Q130 10 161 129T192 380Q192 511 161 629T68 861H162Q240 758 278 633T317 380Q317 251 279 126T162 -103H68Z" />
<glyph unicode="*" glyph-name="asterisk" horiz-adv-x="618" d="M144 563L264 694L94 732L124 818L279 747L262 927H357L343 747L496 820L525 736L358 694L475 568L398 513L311 663L222 513L144 563Z" />
<glyph unicode="+" glyph-name="plus" horiz-adv-x="600" d="M261 287H50V361H261V578H339V361H550V287H339V70H261V287Z" />
<glyph unicode="," glyph-name="comma" horiz-adv-x="308" d="M191 143T209 125T227 73V57Q227 14 215 -20T177 -93Q161 -117 147 -128T118 -140Q95 -140 77 -124Q113 -84 129 -60T150 -4H142Q113 -4 97 14T81 61V78Q81 107 98 125T144 143H162Q191 143 209 125Z" />
<glyph unicode="-" glyph-name="hyphen" horiz-adv-x="480" d="M60 344H420V270H60V344Z" />
<glyph unicode="." glyph-name="period" horiz-adv-x="309" d="M82 -4T82 63V76Q82 143 149 143H161Q228 143 228 76V63Q228 -4 161 -4H149Q82 -4 82 63Z" />
<glyph unicode="/" glyph-name="slash" horiz-adv-x="334" d="M267 811H357L67 -55H-23L267 811Z" />
<glyph unicode="0" glyph-name="zero" horiz-adv-x="620" d="M174 -12T106 79T37 338Q37 517 105 613T310 710Q446 710 514 614T583 338Q583 170 515 79T310 -12Q174 -12 106 79ZM392 77T427 145T462 338Q462 474 427 547T310 621Q227 621 193 548T158 338Q158
212 192 145T310 77Q392 77 427 145Z" />
<glyph unicode="1" glyph-name="one" horiz-adv-x="459" d="M409 82V0H51V82H173V560Q151 544 126 533T79 522Q52 522 35 536T18 580Q18 592 23 612Q68 616 125 639T220 700H292V82H409Z" />
<glyph unicode="2" glyph-name="two" horiz-adv-x="537" d="M503 383T430 289T210 86H491V0H52V63Q183 170 252 239T353 367T384 492Q384 549 355 582T271 615Q213 615 180 577T141 463Q87 463 65 481T43 539Q43 579 71 616T152 677T271 700Q377 700 440 645T503
483Q503 383 430 289Z" />
<glyph unicode="3" glyph-name="three" horiz-adv-x="549" d="M504 333T504 199Q504 136 473 89T385 17T249 -9Q143 -9 80 23T16 109Q16 138 37 156T82 174Q112 126 149 102T252 77Q318 77 352 109T386 198Q386 258 356 287T273 317L241 316Q219 314 206 314Q188
314 175 335T162 376Q162 398 175 398H251Q366 398 366 517Q366 562 338 588T254 615Q202 615 172 587T121 508Q79 508 57 525T35 572Q35 599 62 629T139 679T256 700Q362 700 423 654T484 520Q484 459 454 420T376 361Q504 333 504 199Z" />
<glyph unicode="4" glyph-name="four" horiz-adv-x="522" d="M318 146H20V202Q117 335 167 450T228 700Q248 702 255 702Q299 702 323 680T347 617Q347 560 314 488T231 347T134 232H318V399H435V232H509V146H435V0H318V146Z" />
<glyph unicode="5" glyph-name="five" horiz-adv-x="556" d="M388 466T451 405T514 233Q514 120 449 56T272 -9Q201 -9 153 10T80 59T56 119Q56 179 121 186Q138 133 173 105T265 76Q331 76 363 116T396 229Q396 306 363 343T268 381Q225 381 195 362T143 307L60
320L84 700H476V615H185L173 436Q219 466 285 466Q388 466 451 405Z" />
<glyph unicode="6" glyph-name="six" horiz-adv-x="577" d="M367 449T417 424T496 347T526 216Q526 148 496 98T413 20T289 -7Q211 -7 154 29T67 130T37 278Q37 395 78 493T193 648T356 705Q397 705 415 684T433 622Q330 622 263 565T170 405Q232 449 305 449Q367
449 417 424ZM347 79T377 118T408 223Q408 363 285 363Q214 363 156 313Q155 302 155 278Q155 184 187 132T291 79Q347 79 377 118Z" />
<glyph unicode="7" glyph-name="seven" horiz-adv-x="482" d="M469 700V639Q362 479 318 350T264 72L260 0H202Q163 0 147 17T133 71L134 92Q141 217 201 360T360 609H90Q59 609 43 623T26 662Q26 682 32 700H469Z" />
<glyph unicode="8" glyph-name="eight" horiz-adv-x="564" d="M471 329T498 286T526 180Q526 87 462 39T282 -9Q167 -9 103 39T39 180Q39 244 67 286T163 360Q109 390 81 428T53 522Q53 577 81 618T162 682T282 705Q387 705 448 655T510 522Q510 465 484 426T404
359Q471 329 498 286ZM231 621T201 595T170 525Q170 485 198 453T280 400Q344 423 368 453T393 525Q393 569 363 595T282 621Q231 621 201 595ZM343 76T375 103T408 180Q408 209 399 228T361 266T278 308Q212 281 185 251T157 180Q157 130 189 103T282 76Q343 76
375 103Z" />
<glyph unicode="9" glyph-name="nine" horiz-adv-x="577" d="M403 703T464 631T526 430Q526 312 483 212T361 52T180 -7Q139 -7 122 13T104 76Q216 76 288 132T389 287Q331 248 260 248Q162 248 100 304T37 474Q37 543 69 595T157 675T281 703Q403 703 464 631ZM351
334T406 381Q408 413 408 430Q408 525 380 571T279 618Q219 618 187 578T155 468Q155 400 187 367T280 334Q351 334 406 381Z" />
<glyph unicode=":" glyph-name="colon" horiz-adv-x="324" d="M82 358T82 425V438Q82 505 149 505H161Q228 505 228 438V425Q228 358 161 358H149Q82 358 82 425ZM82 -4T82 63V76Q82 143 149 143H161Q228 143 228 76V63Q228 -4 161 -4H149Q82 -4 82 63Z" />
<glyph unicode=";" glyph-name="semicolon" horiz-adv-x="324" d="M191 143T209 125T227 73V57Q227 14 215 -20T177 -93Q161 -117 147 -128T118 -140Q95 -140 77 -124Q113 -84 129 -60T150 -4H142Q113 -4 97 14T81 61V78Q81 107 98 125T144 143H162Q191 143 209
125ZM82 358T82 425V438Q82 505 149 505H161Q228 505 228 438V425Q228 358 161 358H149Q82 358 82 425Z" />
<glyph unicode="&lt;" glyph-name="less" horiz-adv-x="600" d="M550 511L153 304L550 95V-7L50 259V349L550 613V511Z" />
<glyph unicode="=" glyph-name="equal" horiz-adv-x="600" d="M70 472H530V396H70V472ZM70 268H530V192H70V268Z" />
<glyph unicode="&gt;" glyph-name="greater" horiz-adv-x="600" d="M550 349V259L50 -7V95L447 304L50 511V613L550 349Z" />
<glyph unicode="?" glyph-name="question" horiz-adv-x="475" d="M165 242Q165 278 178 307T209 357T259 407Q297 442 315 467T334 527Q334 620 237 620Q189 620 165 592T132 516L26 545Q34 617 92 663T242 709Q335 709 394 661T454 529Q454 485 440 454T407 403T354
357Q312 325 292 298T271 228V209H165V242ZM147 -4T147 63V76Q147 143 214 143H226Q293 143 293 76V63Q293 -4 226 -4H214Q147 -4 147 63Z" />
<glyph unicode="@" glyph-name="at" horiz-adv-x="834" d="M563 280Q558 255 558 240Q558 207 593 207Q626 207 654 231T700 299T718 401Q718 478 683 535T584 624T433 656Q342 656 273 618T165 510T126 350Q126 203 210 122T445 41Q514 41 559 55T645 99Q657
93 665 83T673 59Q673 39 642 21T558 -8T445 -20Q327 -20 240 22T106 148T59 352Q59 453 108 536T242 668T432 717Q537 717 617 676T741 562T785 399Q785 321 758 263T686 174T588 143Q555 143 531 160T496 205Q456 143 382 143Q316 143 276 186T235 309Q235 376
258 428T322 510T418 539Q481 539 513 493L518 523H599L563 280ZM442 215T468 260T494 368Q494 417 476 442T424 467Q377 467 352 424T326 315Q326 267 343 241T394 215Q442 215 468 260Z" />
<glyph unicode="A" glyph-name="A" horiz-adv-x="647" d="M492 89T472 183H175Q155 89 140 0H15Q45 192 105 364T260 700H388Q482 538 542 366T632 0H507Q492 89 472 183ZM449 276Q402 449 323 600Q244 447 198 276H449Z" />
<glyph unicode="B" glyph-name="B" horiz-adv-x="622" d="M518 347T551 303T585 201Q585 105 520 53T333 0H79V700H323Q430 700 491 649T553 509Q553 458 529 419T464 362Q518 347 551 303ZM425 609T296 609H206V402H293Q361 402 393 428T425 509Q425 609 296
609ZM365 91T397 101T443 135T457 201Q457 261 423 286T307 312H206V91H309Q365 91 397 101Z" />
<glyph unicode="C" glyph-name="C" horiz-adv-x="623" d="M218 -10T135 83T52 349Q52 520 136 615T372 710Q433 710 488 689T579 632Q574 604 557 582T524 560Q510 560 498 569Q466 593 436 604T370 615Q277 615 230 548T182 349Q182 218 229 152T370 85Q463 85
529 151Q549 143 561 127T573 92Q573 65 545 42T471 4T372 -10Q218 -10 135 83Z" />
<glyph unicode="D" glyph-name="D" horiz-adv-x="679" d="M458 700T546 608T635 350Q635 244 594 165T478 43T300 0H73V700H300Q458 700 546 608ZM393 91T450 157T508 349Q508 609 286 609H199V91H286Q393 91 450 157Z" />
<glyph unicode="E" glyph-name="E" horiz-adv-x="560" d="M512 91Q512 38 501 19T460 0H73V700H504V609H199V405H456V315H199V91H512Z" />
<glyph unicode="F" glyph-name="F" horiz-adv-x="530" d="M199 609V404H455V313H199V0H73V700H498V609H199Z" />
<glyph unicode="G" glyph-name="G" horiz-adv-x="679" d="M624 380V73Q581 32 519 11T380 -10Q220 -10 138 81T55 350Q55 461 95 542T210 666T387 710Q461 710 522 689T621 629Q612 602 594 580T561 558Q549 558 531 569Q497 594 462 605T385 616Q287 616 236
548T185 350Q185 84 379 84Q418 84 450 92T499 115V289H411Q383 289 372 309T361 380H624Z" />
<glyph unicode="H" glyph-name="H" horiz-adv-x="693" d="M621 700V0H494V310H199V0H73V700H199V403H494V700H621Z" />
<glyph unicode="I" glyph-name="I" horiz-adv-x="350" d="M112 700H238V0H112V700Z" />
<glyph unicode="J" glyph-name="J" horiz-adv-x="440" d="M122 -10T79 -2T17 17Q17 99 51 99Q62 99 80 94Q116 84 149 84Q196 84 220 111T244 190V700H371V190Q371 131 345 86T270 15T160 -10Q122 -10 79 -2Z" />
<glyph unicode="K" glyph-name="K" horiz-adv-x="650" d="M632 4Q607 -9 551 -9Q525 -9 510 -2T484 22L345 248Q328 276 316 288T286 305T238 310H220V0H93V700H220V399H271H279L487 700H624L387 367Q427 340 462 282L632 4Z" />
<glyph unicode="L" glyph-name="L" horiz-adv-x="513" d="M498 91V0H86V700H213V91H498Z" />
<glyph unicode="M" glyph-name="M" horiz-adv-x="840" d="M654 0Q652 181 642 308T610 559Q571 456 543 365T468 97H369Q328 259 300 354T230 559Q209 436 199 308T184 0H59Q63 212 83 378T147 700H288Q341 571 367 492T418 313Q443 410 470 488T552 700H693Q738
544 759 377T782 0H654Z" />
<glyph unicode="N" glyph-name="N" horiz-adv-x="697" d="M620 106T622 64Q624 36 624 27Q624 0 598 0H495V41Q495 91 456 152L198 525V0H73V700H184Q197 700 205 697T222 680L495 288V700H620V137Q620 106 622 64Z" />
<glyph unicode="O" glyph-name="O" horiz-adv-x="680" d="M198 -10T120 85T41 354Q41 524 119 617T340 710Q482 710 560 617T639 354Q639 181 561 86T340 -10Q198 -10 120 85ZM426 85T467 150T509 354Q509 489 468 552T340 615Q253 615 212 552T171 354Q171 216
212 151T340 85Q426 85 467 150Z" />
<glyph unicode="P" glyph-name="P" horiz-adv-x="615" d="M431 700T501 643T572 474Q572 359 500 299T294 238H206V0H79V700H294Q431 700 501 643ZM369 334T406 367T444 474Q444 546 407 578T287 610H206V334H287Q369 334 406 367Z" />
<glyph unicode="Q" glyph-name="Q" horiz-adv-x="680" d="M639 236T602 153T495 29Q519 0 569 -53Q546 -89 495 -89Q470 -89 452 -80T420 -53Q413 -45 388 -7Q366 -10 340 -10Q198 -10 120 85T41 354Q41 524 119 617T340 710Q482 710 560 617T639 354Q639 236
602 153ZM171 218T211 153T334 85L287 169H393Q406 144 430 110Q509 167 509 354Q509 489 468 552T340 615Q253 615 212 552T171 354Q171 218 211 153Z" />
<glyph unicode="R" glyph-name="R" horiz-adv-x="636" d="M605 10Q595 2 575 -3T533 -8Q504 -8 488 0T463 29L375 205Q356 243 332 257T263 272H206V0H79V700H314Q443 700 514 644T585 486Q585 418 549 370T445 298Q470 273 491 233L605 10ZM305 365Q382 365 419
394T456 486Q456 548 420 577T307 607H206V365H305Z" />
<glyph unicode="S" glyph-name="S" horiz-adv-x="642" d="M251 -10T192 9T101 65T69 148Q69 179 93 196T162 214Q171 152 215 118T331 84Q400 84 437 112T475 192Q475 234 439 260T310 312Q188 346 135 394T82 519Q82 608 149 659T335 710Q433 710 500 664T593
536Q580 523 556 513T513 503Q496 503 486 510T466 536Q426 617 335 617Q210 617 210 529Q210 500 222 482T264 448T352 415Q455 383 508 356T583 296T605 213Q605 147 571 97T475 18T329 -10Q251 -10 192 9Z" />
<glyph unicode="T" glyph-name="T" horiz-adv-x="534" d="M523 678T523 663Q523 634 513 621T480 607H330V0H204V607H15V700H519Q523 678 523 663Z" />
<glyph unicode="U" glyph-name="U" horiz-adv-x="710" d="M79 -10T79 251V700H206V233Q206 159 244 122T356 84Q432 84 468 121T505 233V700H632V251Q632 118 564 54T356 -10Q79 -10 79 251Z" />
<glyph unicode="V" glyph-name="V" horiz-adv-x="638" d="M615 700Q591 501 533 329T377 0H262Q165 155 107 327T23 700H154Q174 533 216 389T319 132Q380 245 422 389T484 700H615Z" />
<glyph unicode="W" glyph-name="W" horiz-adv-x="883" d="M868 700Q845 503 808 344T706 0H571Q516 173 490 268T446 463Q426 352 399 252T322 0H187Q120 180 81 340T15 700H140Q160 522 183 406T254 136Q295 260 322 369T397 700H492Q552 444 577 345T638 137Q683
286 705 402T746 700H868Z" />
<glyph unicode="X" glyph-name="X" horiz-adv-x="595" d="M454 0Q440 87 401 155T298 293Q235 224 195 156T141 0H11Q26 82 57 147T128 262T224 371Q143 456 95 529T26 700H154Q170 625 206 567T298 447Q354 508 389 567T441 700H570Q550 602 502 529T371 371Q428
313 467 263T538 148T585 0H454Z" />
<glyph unicode="Y" glyph-name="Y" horiz-adv-x="590" d="M577 700L358 294V0H232V294L13 700H145L296 406L446 700H577Z" />
<glyph unicode="Z" glyph-name="Z" horiz-adv-x="580" d="M535 87V0H47V87L390 613H45V700H527V609L189 87H535Z" />
<glyph unicode="[" glyph-name="bracketleft" horiz-adv-x="389" d="M82 849H315V772H205V-15H315V-92H82V849Z" />
<glyph unicode="\" glyph-name="backslash" horiz-adv-x="334" d="M267 -55L-23 811H67L357 -55H267Z" />
<glyph unicode="]" glyph-name="bracketright" horiz-adv-x="389" d="M74 -92V-15H184V772H74V849H307V-92H74Z" />
<glyph unicode="^" glyph-name="asciicircum" horiz-adv-x="657" d="M271 791H384L608 324H483L325 644L174 324H49L271 791Z" />
<glyph unicode="_" glyph-name="underscore" horiz-adv-x="684" d="M0 -102H684V-189H0V-102Z" />
<glyph unicode="`" glyph-name="grave" horiz-adv-x="243" d="M-31 776H106L180 625H87L-31 776Z" />
<glyph unicode="a" glyph-name="a" horiz-adv-x="565" d="M496 114T503 81T529 24Q512 11 486 3T437 -6Q389 -6 379 73Q324 -10 208 -10Q134 -10 89 29T43 133Q43 224 124 271T375 328V373Q375 471 272 471Q235 471 202 457T124 407Q117 402 110 402Q94 402 76
420T44 471Q85 511 151 535T285 560Q386 560 441 511T496 373V184Q496 114 503 81ZM321 73T375 169V259Q167 250 167 144Q167 110 187 92T244 73Q321 73 375 169Z" />
<glyph unicode="b" glyph-name="b" horiz-adv-x="610" d="M414 560T465 526T543 428T570 277Q570 190 542 125T463 25T342 -10Q297 -10 259 8T193 59Q181 -5 143 -5Q120 -5 95 2T47 22Q64 46 70 80T76 182V791H198V507Q230 534 266 547T345 560Q414 560 465 526ZM447
73T447 277Q447 376 415 427T321 479Q287 479 254 464T198 425V148Q246 73 326 73Q447 73 447 277Z" />
<glyph unicode="c" glyph-name="c" horiz-adv-x="568" d="M170 -10T102 63T33 278Q33 409 103 484T295 560Q392 560 453 513T526 382Q480 355 446 355Q432 355 424 363T408 393Q395 436 368 456T295 477Q230 477 194 425T157 278Q157 178 194 127T303 75Q355 75
387 105T436 201Q477 201 496 184T516 131Q516 94 487 62T408 10T303 -10Q170 -10 102 63Z" />
<glyph unicode="d" glyph-name="d" horiz-adv-x="598" d="M527 116T533 81T554 21Q505 -6 459 -6Q439 -6 427 10T410 64Q382 26 346 8T260 -10Q153 -10 93 64T33 273Q33 361 63 425T151 525T285 560Q317 560 350 551T406 527V791H527V181Q527 116 533 81ZM319
73T350 92T406 154V440Q387 457 357 468T296 479Q229 479 193 426T157 273Q157 73 278 73Q319 73 350 92Z" />
<glyph unicode="e" glyph-name="e" horiz-adv-x="573" d="M540 295T536 255H168Q173 169 208 122T303 75Q344 75 370 91T431 156Q437 165 452 165Q480 165 529 130Q501 62 443 26T303 -10Q182 -10 113 66T43 276Q43 408 113 484T305 560Q417 560 478 495T540 312Q540
295 536 255ZM417 329Q417 478 302 478Q245 478 212 441T170 329H417Z" />
<glyph unicode="f" glyph-name="f" horiz-adv-x="355" d="M310 789T341 773T372 730Q372 717 368 706T358 689Q327 704 282 704Q250 704 233 682T216 616V550H327V471H216V0H95V471H5V550H95V617Q95 698 138 743T257 789Q310 789 341 773Z" />
<glyph unicode="g" glyph-name="g" horiz-adv-x="585" d="M555 599T567 577T578 502Q507 502 477 485Q513 438 513 376Q513 282 454 233T279 184Q225 184 203 177T181 150Q181 131 207 124T309 117Q426 117 489 77T553 -36Q553 -115 483 -160T289 -205Q167 -205
102 -167T37 -57Q37 -12 68 16T161 54V57Q123 65 102 85T81 136Q81 162 102 182T160 211Q113 236 86 276T59 364Q59 459 120 509T298 560Q361 560 410 537Q434 565 465 582T523 599Q555 599 567 577ZM339 267T364 292T389 372Q389 428 364 453T285 479Q232 479
207 453T182 372Q182 319 207 293T285 267Q339 267 364 292ZM161 35T161 -42Q161 -83 192 -103T289 -123Q360 -123 397 -103T435 -42Q435 -2 401 16T293 35Q161 35 161 -42Z" />
<glyph unicode="h" glyph-name="h" horiz-adv-x="630" d="M456 560T501 514T546 389V0H424V376Q424 424 404 447T340 471Q303 471 264 455T186 408V0H64V791H186V486Q225 521 276 540T380 560Q456 560 501 514Z" />
<glyph unicode="i" glyph-name="i" horiz-adv-x="288" d="M83 550H205V0H83V550ZM327 651T327 718V731Q327 798 394 798H406Q473 798 473 731V718Q473 651 406 651H394Q327 651 327 718Z" />
<glyph unicode="j" glyph-name="j" horiz-adv-x="270" d="M1 -205T-26 -199T-66 -180Q-74 -172 -74 -159Q-74 -146 -68 -135T-56 -120Q-30 -134 10 -134Q40 -134 56 -116T73 -62V550H195V-53Q195 -123 153 -164T34 -205Q1 -205 -26 -199ZM317 651T317 718V731Q317
798 384 798H396Q463 798 463 731V718Q463 651 396 651H384Q317 651 317 718Z" />
<glyph unicode="k" glyph-name="k" horiz-adv-x="594" d="M582 0Q571 0 520 -3Q494 -5 488 -5Q467 -5 454 3T431 27L336 191Q321 217 298 228T232 237L199 235V0H78V791H199V324L227 325Q259 327 275 337T308 376L411 550H548L416 346Q403 324 393 312T365 290Q392
283 409 269T441 232L582 0Z" />
<glyph unicode="l" glyph-name="l" horiz-adv-x="268" d="M73 791H195V0H73V791Z" />
<glyph unicode="m" glyph-name="m" horiz-adv-x="912" d="M745 560T789 514T834 388V0H712V385Q712 437 695 458T634 479Q568 479 517 420Q518 415 518 404V0H396V395Q396 439 379 459T326 479Q293 479 263 463T200 410V0H79V356Q79 501 67 532Q84 542 108 548T151
554Q174 554 186 538T199 488Q237 526 276 543T364 560Q411 560 446 541T500 485Q562 560 668 560Q745 560 789 514Z" />
<glyph unicode="n" glyph-name="n" horiz-adv-x="610" d="M533 81T536 57T549 14Q502 -5 450 -5Q429 -5 421 18T412 102V366Q412 424 393 448T329 473Q264 473 191 409V0H70V368Q70 498 58 534Q116 554 156 554Q175 554 183 540T191 496V484Q241 526 280 543T362
560Q448 560 490 514T533 372V135Q533 81 536 57Z" />
<glyph unicode="o" glyph-name="o" horiz-adv-x="561" d="M161 -10T97 64T33 276Q33 414 97 487T281 560Q401 560 464 487T528 276Q528 137 464 64T281 -10Q161 -10 97 64ZM346 73T375 121T405 276Q405 381 376 429T281 477Q216 477 187 430T157 276Q157 169 186
121T281 73Q346 73 375 121Z" />
<glyph unicode="p" glyph-name="p" horiz-adv-x="598" d="M453 560T509 490T566 283Q566 195 535 129T445 27T311 -10Q256 -10 194 11V-225H73V348Q73 425 68 465T47 526Q71 539 96 546T143 554Q162 554 173 540T190 496Q251 560 345 560Q453 560 509 490ZM367
73T404 127T442 283Q442 383 413 431T323 479Q286 479 252 462T194 417V95Q241 73 297 73Q367 73 404 127Z" />
<glyph unicode="q" glyph-name="q" horiz-adv-x="608" d="M508 554T555 526Q540 503 534 461T527 347V-225H406V41Q346 -10 260 -10Q153 -10 93 65T33 275Q33 361 60 425T139 525T260 560Q313 560 350 546T414 501Q426 554 461 554Q508 554 555 526ZM356 71T406
129V411V417Q360 480 286 480Q222 480 190 428T157 275Q157 171 188 121T283 71Q356 71 406 129Z" />
<glyph unicode="r" glyph-name="r" horiz-adv-x="427" d="M370 557T390 539T411 484Q411 470 407 457T396 435Q385 442 370 445T328 448Q263 448 228 404T193 276V0H72V550H193V468Q214 510 249 533T326 557Q370 557 390 539Z" />
<glyph unicode="s" glyph-name="s" horiz-adv-x="498" d="M186 -10T139 4T64 42T36 97Q36 120 52 136T97 156Q122 114 158 94T249 73Q301 73 325 94T350 152Q350 185 321 202T229 237Q172 254 135 270T72 320T46 405Q46 453 74 488T149 542T249 560Q319 560 372
533T457 459Q444 438 426 424T392 409Q375 409 363 424Q317 479 251 479Q209 479 185 462T161 408Q161 384 177 369T216 344T283 323Q340 307 376 292T439 244T465 159Q465 79 407 35T245 -10Q186 -10 139 4Z" />
<glyph unicode="t" glyph-name="t" horiz-adv-x="395" d="M371 83T377 74T383 51Q383 31 369 19Q353 6 322 -2T252 -10Q184 -10 144 27T103 128V469H12V550H103V700H224V550H341V469H224V141Q224 103 238 87T283 70Q321 70 362 87Q371 83 377 74Z" />
<glyph unicode="u" glyph-name="u" horiz-adv-x="623" d="M544 85T547 59T559 14Q521 -5 477 -5Q451 -5 439 10T422 62Q393 28 349 9T252 -10Q166 -10 122 37T77 175V550H198V182Q198 122 218 97T284 71Q325 71 360 92T421 153V550H544V126Q544 85 547 59Z" />
<glyph unicode="v" glyph-name="v" horiz-adv-x="548" d="M528 550Q516 392 470 257T334 0H219Q129 122 81 257T20 550H146Q153 425 184 319T278 112Q339 212 368 317T402 550H528Z" />
<glyph unicode="w" glyph-name="w" horiz-adv-x="787" d="M761 550Q749 395 714 259T612 0H521Q477 81 447 160T398 328Q360 159 273 0H181Q114 119 78 253T24 550H148Q160 417 178 321T236 138Q319 315 346 550H452Q480 314 564 135Q602 224 618 324T641 550H761Z" />
<glyph unicode="x" glyph-name="x" horiz-adv-x="508" d="M375 0Q370 59 339 111T254 220Q201 164 170 112T133 0H16Q22 80 66 146T187 288Q110 364 69 422T21 550H138Q141 500 170 455T254 353Q308 409 337 454T370 550H487Q481 481 440 423T321 288Q398 212
442 146T492 0H375Z" />
<glyph unicode="y" glyph-name="y" horiz-adv-x="518" d="M517 550L304 -42Q273 -131 227 -169T106 -207Q60 -207 32 -190T4 -145Q4 -131 9 -119T28 -93Q39 -101 56 -105T92 -110Q131 -110 155 -84T200 9L4 550H129L262 157L392 550H517Z" />
<glyph unicode="z" glyph-name="z" horiz-adv-x="513" d="M483 85V0H30V75L337 465H56V550H475V476L164 85H483Z" />
<glyph unicode="{" glyph-name="braceleft" horiz-adv-x="364" d="M176 -104T142 -69T107 28V241Q107 278 91 300T35 330V381Q75 388 91 411T107 471V684Q107 744 141 779T237 815H318V739H290Q226 739 226 667V474Q226 421 205 395T143 357V354Q183 345 204 318T226
238V45Q226 -27 290 -27H318V-104H237Q176 -104 142 -69Z" />
<glyph unicode="|" glyph-name="bar" horiz-adv-x="270" d="M79 802H191V-12H79V802Z" />
<glyph unicode="}" glyph-name="braceright" horiz-adv-x="364" d="M46 -104V-27H74Q138 -27 138 45V238Q138 290 159 317T221 354V357Q181 368 160 394T138 474V667Q138 739 74 739H46V815H127Q188 815 222 780T257 684V471Q257 434 273 411T329 381V330Q289
323 273 301T257 241V28Q257 -33 223 -68T127 -104H46Z" />
<glyph unicode="~" glyph-name="asciitilde" horiz-adv-x="600" d="M50 270Q70 309 107 332T194 356Q225 356 249 347T307 320Q335 304 356 296T401 288Q439 288 458 305T497 359L553 312Q535 268 498 242T405 215Q370 215 345 224T287 252Q258 268 240 275T198
282Q166 282 142 264T101 213L50 270Z" />
<glyph unicode="&#xa0;" glyph-name="uni00A0" horiz-adv-x="258" />
<glyph unicode="&#xa1;" glyph-name="exclamdown" horiz-adv-x="243" d="M196 564T196 497V484Q196 417 129 417H117Q50 417 50 484V497Q50 564 117 564H129Q196 564 196 497ZM193 -140H53L82 341H164L193 -140Z" />
<glyph unicode="&#xa2;" glyph-name="cent" horiz-adv-x="547" d="M477 201T496 184T516 131Q516 94 487 62T408 10T303 -10Q252 -10 213 0L186 -80H126L159 20Q33 85 33 278Q33 409 103 484T295 560Q317 560 337 557L364 638H423L392 545Q449 525 484 483T526
382Q480 355 446 355Q432 355 424 363T408 393Q393 438 364 459L241 87Q268 75 303 75Q355 75 387 105T436 201Q477 201 496 184ZM157 179T194 127L310 476Q305 477 295 477Q230 477 194 425T157 278Q157 179 194 127Z" />
<glyph unicode="&#xa3;" glyph-name="sterling" horiz-adv-x="609" d="M558 188Q556 134 532 89T461 17T347 -10Q290 -10 249 2T173 39Q114 -5 16 -10V86Q82 93 110 121T138 219Q138 254 125 317H14V388H109Q94 459 94 500Q94 564 123 611T204 684T318 710Q411
710 469 663T543 533Q532 523 510 513T471 503Q445 503 436 530Q420 578 394 601T318 625Q269 625 242 594T214 504Q214 466 228 388H367V317H244Q257 252 257 218Q257 156 233 109Q282 75 337 75Q390 75 419 105T456 200L558 188Z" />
<glyph unicode="&#xa4;" glyph-name="currency" horiz-adv-x="609" d="M33 122L92 181Q33 248 33 353Q33 451 92 523L33 582L73 624L135 563Q171 593 214 608T304 624Q399 624 474 563L534 624L576 582L517 523Q576 451 576 353Q576 248 517 181L576 122L534 81L474
140Q397 81 304 81Q208 81 135 140L73 81L33 122ZM374 188T419 234T465 353Q465 425 420 471T304 518Q258 518 222 497T165 438T144 353Q144 306 164 268T221 209T304 188Q374 188 419 234Z" />
<glyph unicode="&#xa5;" glyph-name="yen" horiz-adv-x="590" d="M395 363H512V307H365L358 294V224H512V168H358V0H232V168H78V224H232V294L225 307H78V363H195L13 700H145L296 406L446 700H577L395 363Z" />
<glyph unicode="&#xa6;" glyph-name="brokenbar" horiz-adv-x="270" d="M79 802H191V495H79V802ZM79 295H191V-12H79V295Z" />
<glyph unicode="&#xa7;" glyph-name="section" horiz-adv-x="493" d="M340 350T268 380L148 428Q104 446 79 478T54 557Q54 626 107 666T242 707Q334 707 383 669T438 565L334 556Q329 591 309 610T242 629Q203 629 181 613T159 564Q159 538 174 523T224 493L353
441Q409 418 430 376T451 267H340Q340 350 268 380ZM162 -88T111 -49T54 54L158 63Q161 30 184 10T251 -10Q290 -10 311 9T333 59Q333 86 320 103T275 132L146 185Q88 208 65 248T42 352H153Q153 312 174 285T238 239L351 191Q402 169 423 140T445 62Q445 -8 393
-48T251 -88Q162 -88 111 -49Z" />
<glyph unicode="&#xa8;" glyph-name="dieresis" horiz-adv-x="329" d="M0 640T0 698V710Q0 768 58 768H69Q127 768 127 710V698Q127 640 69 640H58Q0 640 0 698ZM201 640T201 698V710Q201 768 260 768H270Q329 768 329 710V698Q329 640 270 640H260Q201 640 201 698Z" />
<glyph unicode="&#xa9;" glyph-name="copyright" horiz-adv-x="774" d="M283 -10T201 36T73 164T27 350Q27 454 73 536T201 664T387 710Q491 710 573 664T701 536T747 350Q747 246 701 164T573 36T387 -10Q283 -10 201 36ZM474 39T543 78T651 189T690 350Q690
440 651 511T543 621T387 661Q300 661 231 622T124 511T85 350Q85 260 123 189T231 79T387 39Q474 39 543 78ZM298 132T243 191T188 351Q188 451 241 509T395 567Q478 567 525 528T580 422L497 403Q490 447 467 469T396 491Q339 491 312 458T285 351Q285 282 315
245T399 208Q439 208 462 226T494 280L577 261Q565 203 520 168T399 132Q298 132 243 191Z" />
<glyph unicode="&#xaa;" glyph-name="ordfeminine" horiz-adv-x="380" d="M346 398T357 377Q335 360 298 360Q258 360 252 404Q214 359 142 359Q93 359 63 384T33 454Q33 519 87 545T251 573V584Q251 647 190 647Q168 647 151 640T115 620Q110 617 100 611T81
605Q69 605 57 622T41 659Q69 681 111 696T203 712Q267 712 306 681T346 590V446Q346 398 357 377ZM195 423T216 433T251 462V518Q189 516 159 504T128 463Q128 423 172 423Q195 423 216 433Z" />
<glyph unicode="&#xab;" glyph-name="guillemotleft" horiz-adv-x="547" d="M245 288L373 452H489L370 288L489 117H373L245 288ZM50 288L178 452H294L175 288L294 117H178L50 288Z" />
<glyph unicode="&#xac;" glyph-name="logicalnot" horiz-adv-x="600" d="M425 294H50V380H540V104H425V294Z" />
<glyph unicode="&#xad;" glyph-name="uni00AD" horiz-adv-x="380" d="M40 344H340V270H40V344Z" />
<glyph unicode="&#xae;" glyph-name="registered" horiz-adv-x="774" d="M486 710T568 661T699 530T747 350Q747 253 699 171T569 39T387 -10Q289 -10 207 39T76 170T27 350Q27 447 75 529T206 661T387 710Q486 710 568 661ZM472 39T541 80T650 193T690 350Q690
436 651 507T542 619T387 661Q303 661 234 620T125 507T85 350Q85 265 125 194T234 81T387 39Q472 39 541 80ZM569 371T548 341T488 295L566 145H464L396 284H339V145H242V543H418Q494 543 531 508T569 413Q569 371 548 341ZM339 357H408Q438 357 454 372T470 414Q470
440 455 454T412 469H339V357Z" />
<glyph unicode="&#xaf;" glyph-name="overscore" horiz-adv-x="243" d="M-42 734H284V647H-42V734Z" />
<glyph unicode="&#xb0;" glyph-name="degree" horiz-adv-x="438" d="M174 481T138 503T80 561T59 642Q59 685 80 722T137 780T219 802Q264 802 300 781T358 722T379 642Q379 598 358 562T301 503T219 481Q174 481 138 503ZM262 541T288 569T315 642Q315 685 289
713T219 742Q176 742 149 714T122 642Q122 598 149 570T219 541Q262 541 288 569Z" />
<glyph unicode="&#xb1;" glyph-name="plusminus" horiz-adv-x="600" d="M263 341H40V414H263V629H338V414H560V341H338V125H263V341ZM40 72H560V0H40V72Z" />
<glyph unicode="&#xb2;" glyph-name="uni00B2" horiz-adv-x="362" d="M340 511T297 461T181 359H337V282H29V339Q99 384 141 415T211 486T239 573Q239 602 221 617T172 633Q140 633 123 612T103 550Q65 550 47 562T28 603Q28 630 46 654T98 694T177 710Q252 710
296 676T340 575Q340 511 297 461Z" />
<glyph unicode="&#xb3;" glyph-name="uni00B3" horiz-adv-x="370" d="M350 485T350 409Q350 349 307 314T174 278Q102 278 61 298T19 349Q19 367 29 377T55 388Q98 347 174 347Q213 347 234 363T255 412Q255 470 191 470L138 468Q127 468 118 489T108 523Q108
537 120 537H180Q211 537 226 552T241 594Q241 618 226 631T182 645Q123 645 80 590Q60 590 48 601T36 632Q36 666 78 688T183 710Q253 710 294 680T335 598Q335 531 280 507Q350 485 350 409Z" />
<glyph unicode="&#xb4;" glyph-name="acute" horiz-adv-x="243" d="M147 776H286L168 625H62L147 776Z" />
<glyph unicode="&#xb6;" glyph-name="paragraph" horiz-adv-x="570" d="M205 328Q156 331 114 359T46 433T20 535Q20 638 83 694T263 750H570V674H495V0H395V674H305V0H205V328Z" />
<glyph unicode="&#xb7;" glyph-name="middot" horiz-adv-x="308" d="M82 234T82 301V314Q82 381 149 381H161Q228 381 228 314V301Q228 234 161 234H149Q82 234 82 301Z" />
<glyph unicode="&#xb8;" glyph-name="cedilla" horiz-adv-x="250" d="M185 -52T212 -75T240 -136Q240 -183 206 -209T106 -236Q54 -236 30 -223T5 -186Q5 -175 9 -166Q21 -171 44 -174T93 -177Q123 -177 136 -168T150 -138Q150 -126 140 -117T111 -108Q95 -108
79 -114L49 -75L99 0H177L131 -52H141Q185 -52 212 -75Z" />
<glyph unicode="&#xb9;" glyph-name="uni00B9" horiz-adv-x="379" d="M322 357V282H49V357H139V615Q99 579 67 579Q12 579 12 645Q45 648 87 666T152 710H238V357H322Z" />
<glyph unicode="&#xba;" glyph-name="ordmasculine" horiz-adv-x="380" d="M109 357T66 405T23 533Q23 613 66 661T191 710Q272 710 314 662T357 533Q357 454 314 406T191 357Q109 357 66 405ZM228 422T244 447T261 533Q261 593 245 619T191 645Q154 645 137 619T119
533Q119 474 136 448T191 422Q228 422 244 447Z" />
<glyph unicode="&#xbb;" glyph-name="guillemotright" horiz-adv-x="547" d="M58 117L177 288L58 452H174L302 288L174 117H58ZM253 117L372 288L253 452H369L497 288L369 117H253Z" />
<glyph unicode="&#xbc;" glyph-name="onequarter" horiz-adv-x="989" d="M322 357V282H49V357H139V615Q99 579 67 579Q12 579 12 645Q45 648 87 666T152 710H238V357H322ZM619 700H711L389 0H297L619 700ZM971 85H925V0H826V85H622V129Q683 209 710 273T740 423Q762
425 772 425Q805 425 821 413T837 372Q837 317 808 258T734 153H826V242H925V153H971V85Z" />
<glyph unicode="&#xbd;" glyph-name="onehalf" horiz-adv-x="965" d="M322 357V282H49V357H139V615Q99 579 67 579Q12 579 12 645Q45 648 87 666T152 710H238V357H322ZM619 700H711L389 0H297L619 700ZM942 230T899 180T783 78H939V1H631V58Q701 103 743 134T813
205T841 292Q841 321 823 336T774 352Q742 352 725 331T705 269Q667 269 649 281T630 322Q630 349 648 373T700 413T779 429Q854 429 898 395T942 294Q942 230 899 180Z" />
<glyph unicode="&#xbe;" glyph-name="threequarters" horiz-adv-x="974" d="M350 485T350 409Q350 349 307 314T174 278Q102 278 61 298T19 349Q19 367 29 377T55 388Q98 347 174 347Q213 347 234 363T255 412Q255 470 191 470L138 468Q127 468 118 489T108 523Q108
537 120 537H180Q211 537 226 552T241 594Q241 618 226 631T182 645Q123 645 80 590Q60 590 48 601T36 632Q36 666 78 688T183 710Q253 710 294 680T335 598Q335 531 280 507Q350 485 350 409ZM610 700H702L380 0H288L610 700ZM956 85H910V0H811V85H607V129Q668
209 695 273T725 423Q747 425 757 425Q790 425 806 413T822 372Q822 317 793 258T719 153H811V242H910V153H956V85Z" />
<glyph unicode="&#xbf;" glyph-name="questiondown" horiz-adv-x="475" d="M328 556T328 489V476Q328 409 261 409H249Q182 409 182 476V489Q182 556 249 556H261Q328 556 328 489ZM310 310Q310 274 297 245T266 195T216 145Q178 110 160 85T141 25Q141 -68 238
-68Q286 -68 310 -40T343 36L449 7Q441 -65 383 -111T233 -157Q140 -157 81 -109T21 23Q21 67 35 98T68 149T121 195Q163 227 183 254T204 324V343H310V310Z" />
<glyph unicode="&#xc0;" glyph-name="Agrave" horiz-adv-x="647" d="M492 89T472 183H175Q155 89 140 0H15Q45 192 105 364T260 700H388Q482 538 542 366T632 0H507Q492 89 472 183ZM449 276Q402 449 323 600Q244 447 198 276H449ZM434 886H571L645 735H552L434 886Z" />
<glyph unicode="&#xc1;" glyph-name="Aacute" horiz-adv-x="647" d="M492 89T472 183H175Q155 89 140 0H15Q45 192 105 364T260 700H388Q482 538 542 366T632 0H507Q492 89 472 183ZM449 276Q402 449 323 600Q244 447 198 276H449ZM343 886H482L364 735H258L343 886Z" />
<glyph unicode="&#xc2;" glyph-name="Acircumflex" horiz-adv-x="647" d="M492 89T472 183H175Q155 89 140 0H15Q45 192 105 364T260 700H388Q482 538 542 366T632 0H507Q492 89 472 183ZM449 276Q402 449 323 600Q244 447 198 276H449ZM516 882H643L740 735H650L580
818L508 735H418L516 882Z" />
<glyph unicode="&#xc3;" glyph-name="Atilde" horiz-adv-x="647" d="M492 89T472 183H175Q155 89 140 0H15Q45 192 105 364T260 700H388Q482 538 542 366T632 0H507Q492 89 472 183ZM449 276Q402 449 323 600Q244 447 198 276H449ZM453 748T438 761T423 799Q423
835 447 855T510 875Q532 875 549 870T585 853Q602 845 612 841T635 837Q673 837 677 878Q708 878 722 867T737 828Q737 798 714 774T652 750Q629 750 613 755T574 771Q556 779 545 783T520 787Q482 787 479 748Q453 748 438 761Z" />
<glyph unicode="&#xc4;" glyph-name="Adieresis" horiz-adv-x="647" d="M492 89T472 183H175Q155 89 140 0H15Q45 192 105 364T260 700H388Q482 538 542 366T632 0H507Q492 89 472 183ZM449 276Q402 449 323 600Q244 447 198 276H449ZM160 750T160 808V820Q160
878 218 878H229Q287 878 287 820V808Q287 750 229 750H218Q160 750 160 808ZM361 750T361 808V820Q361 878 420 878H430Q489 878 489 820V808Q489 750 430 750H420Q361 750 361 808Z" />
<glyph unicode="&#xc5;" glyph-name="Aring" horiz-adv-x="647" d="M492 89T472 183H175Q155 89 140 0H15Q45 192 105 364T260 700H388Q482 538 542 366T632 0H507Q492 89 472 183ZM449 276Q402 449 323 600Q244 447 198 276H449ZM526 743T490 778T454 867Q454
921 490 956T579 992Q631 992 667 957T704 867Q704 813 668 778T579 743Q526 743 490 778ZM600 818T614 832T628 867Q628 889 614 902T579 916Q557 916 543 903T529 867Q529 846 543 832T579 818Q600 818 614 832Z" />
<glyph unicode="&#xc6;" glyph-name="AE" horiz-adv-x="957" d="M907 87Q907 38 894 19T841 0H473V206H199Q162 108 142 0H15Q56 202 150 383T402 700H905V613H592V403H862V316H592V87H907ZM473 293V613H464Q396 553 338 472T235 293H473Z" />
<glyph unicode="&#xc7;" glyph-name="Ccedilla" horiz-adv-x="623" d="M549 143T561 127T573 92Q573 56 524 27T405 -8L366 -52H376Q420 -52 447 -75T475 -136Q475 -183 442 -209T341 -236Q289 -236 265 -223T241 -186Q241 -177 244 -166Q256 -171 279 -174T328
-177Q359 -177 372 -168T386 -138Q386 -126 376 -117T347 -108Q329 -108 315 -114L284 -75L330 -8Q196 5 124 97T52 349Q52 520 136 615T372 710Q433 710 488 689T579 632Q574 604 557 582T524 560Q510 560 498 569Q466 593 436 604T370 615Q277 615 230 548T182
349Q182 218 229 152T370 85Q463 85 529 151Q549 143 561 127Z" />
<glyph unicode="&#xc8;" glyph-name="Egrave" horiz-adv-x="560" d="M512 91Q512 38 501 19T460 0H73V700H504V609H199V405H456V315H199V91H512ZM391 893H528L602 742H509L391 893Z" />
<glyph unicode="&#xc9;" glyph-name="Eacute" horiz-adv-x="560" d="M512 91Q512 38 501 19T460 0H73V700H504V609H199V405H456V315H199V91H512ZM300 893H439L321 742H215L300 893Z" />
<glyph unicode="&#xca;" glyph-name="Ecircumflex" horiz-adv-x="560" d="M512 91Q512 38 501 19T460 0H73V700H504V609H199V405H456V315H199V91H512ZM473 889H600L697 742H607L537 825L465 742H375L473 889Z" />
<glyph unicode="&#xcb;" glyph-name="Edieresis" horiz-adv-x="560" d="M512 91Q512 38 501 19T460 0H73V700H504V609H199V405H456V315H199V91H512ZM117 757T117 815V827Q117 885 175 885H186Q244 885 244 827V815Q244 757 186 757H175Q117 757 117 815ZM318 757T318
815V827Q318 885 377 885H387Q446 885 446 827V815Q446 757 387 757H377Q318 757 318 815Z" />
<glyph unicode="&#xcc;" glyph-name="Igrave" horiz-adv-x="350" d="M112 700H238V0H112V700ZM286 893H423L497 742H404L286 893Z" />
<glyph unicode="&#xcd;" glyph-name="Iacute" horiz-adv-x="350" d="M112 700H238V0H112V700ZM195 893H334L216 742H110L195 893Z" />
<glyph unicode="&#xce;" glyph-name="Icircumflex" horiz-adv-x="350" d="M112 700H238V0H112V700ZM368 889H495L592 742H502L432 825L360 742H270L368 889Z" />
<glyph unicode="&#xcf;" glyph-name="Idieresis" horiz-adv-x="350" d="M112 700H238V0H112V700ZM12 757T12 815V827Q12 885 70 885H81Q139 885 139 827V815Q139 757 81 757H70Q12 757 12 815ZM213 757T213 815V827Q213 885 272 885H282Q341 885 341 827V815Q341
757 282 757H272Q213 757 213 815Z" />
<glyph unicode="&#xd0;" glyph-name="Eth" horiz-adv-x="672" d="M458 700T546 608T635 350Q635 244 594 165T478 43T300 0H73V314H1V397H73V700H300Q458 700 546 608ZM393 91T450 157T508 349Q508 609 286 609H199V397H346V314H199V91H286Q393 91 450 157Z" />
<glyph unicode="&#xd1;" glyph-name="Ntilde" horiz-adv-x="697" d="M620 106T622 64Q624 36 624 27Q624 0 598 0H495V41Q495 91 456 152L198 525V0H73V700H184Q197 700 205 697T222 680L495 288V700H620V137Q620 106 622 64ZM477 748T462 761T447 799Q447 835
471 855T534 875Q556 875 573 870T609 853Q626 845 636 841T659 837Q697 837 701 878Q732 878 746 867T761 828Q761 798 738 774T676 750Q653 750 637 755T598 771Q580 779 569 783T544 787Q506 787 503 748Q477 748 462 761Z" />
<glyph unicode="&#xd2;" glyph-name="Ograve" horiz-adv-x="680" d="M198 -10T120 85T41 354Q41 524 119 617T340 710Q482 710 560 617T639 354Q639 181 561 86T340 -10Q198 -10 120 85ZM426 85T467 150T509 354Q509 489 468 552T340 615Q253 615 212 552T171
354Q171 216 212 151T340 85Q426 85 467 150ZM451 893H588L662 742H569L451 893Z" />
<glyph unicode="&#xd3;" glyph-name="Oacute" horiz-adv-x="680" d="M198 -10T120 85T41 354Q41 524 119 617T340 710Q482 710 560 617T639 354Q639 181 561 86T340 -10Q198 -10 120 85ZM426 85T467 150T509 354Q509 489 468 552T340 615Q253 615 212 552T171
354Q171 216 212 151T340 85Q426 85 467 150ZM360 893H499L381 742H275L360 893Z" />
<glyph unicode="&#xd4;" glyph-name="Ocircumflex" horiz-adv-x="680" d="M198 -10T120 85T41 354Q41 524 119 617T340 710Q482 710 560 617T639 354Q639 181 561 86T340 -10Q198 -10 120 85ZM426 85T467 150T509 354Q509 489 468 552T340 615Q253 615 212 552T171
354Q171 216 212 151T340 85Q426 85 467 150ZM533 889H660L757 742H667L597 825L525 742H435L533 889Z" />
<glyph unicode="&#xd5;" glyph-name="Otilde" horiz-adv-x="680" d="M198 -10T120 85T41 354Q41 524 119 617T340 710Q482 710 560 617T639 354Q639 181 561 86T340 -10Q198 -10 120 85ZM426 85T467 150T509 354Q509 489 468 552T340 615Q253 615 212 552T171
354Q171 216 212 151T340 85Q426 85 467 150ZM470 755T455 768T440 806Q440 842 464 862T527 882Q549 882 566 877T602 860Q619 852 629 848T652 844Q690 844 694 885Q725 885 739 874T754 835Q754 805 731 781T669 757Q646 757 630 762T591 778Q573 786 562 790T537
794Q499 794 496 755Q470 755 455 768Z" />
<glyph unicode="&#xd6;" glyph-name="Odieresis" horiz-adv-x="680" d="M198 -10T120 85T41 354Q41 524 119 617T340 710Q482 710 560 617T639 354Q639 181 561 86T340 -10Q198 -10 120 85ZM426 85T467 150T509 354Q509 489 468 552T340 615Q253 615 212 552T171
354Q171 216 212 151T340 85Q426 85 467 150ZM177 757T177 815V827Q177 885 235 885H246Q304 885 304 827V815Q304 757 246 757H235Q177 757 177 815ZM378 757T378 815V827Q378 885 437 885H447Q506 885 506 827V815Q506 757 447 757H437Q378 757 378 815Z" />
<glyph unicode="&#xd7;" glyph-name="multiply" horiz-adv-x="600" d="M97 173L248 324L97 475L149 527L300 376L451 527L503 475L352 324L503 173L451 121L300 272L149 121L97 173Z" />
<glyph unicode="&#xd8;" glyph-name="Oslash" horiz-adv-x="680" d="M639 524T639 354Q639 181 561 86T340 -10Q232 -10 158 47L125 0H53L116 89Q41 184 41 354Q41 524 119 617T340 710Q447 710 518 657L549 701H621L561 616Q639 524 639 354ZM171 259T191 196L455
569Q415 615 340 615Q253 615 212 552T171 354Q171 259 191 196ZM426 85T467 150T509 354Q509 453 487 512L222 137Q264 85 340 85Q426 85 467 150Z" />
<glyph unicode="&#xd9;" glyph-name="Ugrave" horiz-adv-x="710" d="M79 -10T79 251V700H206V233Q206 159 244 122T356 84Q432 84 468 121T505 233V700H632V251Q632 118 564 54T356 -10Q79 -10 79 251ZM465 893H602L676 742H583L465 893Z" />
<glyph unicode="&#xda;" glyph-name="Uacute" horiz-adv-x="710" d="M79 -10T79 251V700H206V233Q206 159 244 122T356 84Q432 84 468 121T505 233V700H632V251Q632 118 564 54T356 -10Q79 -10 79 251ZM374 893H513L395 742H289L374 893Z" />
<glyph unicode="&#xdb;" glyph-name="Ucircumflex" horiz-adv-x="710" d="M79 -10T79 251V700H206V233Q206 159 244 122T356 84Q432 84 468 121T505 233V700H632V251Q632 118 564 54T356 -10Q79 -10 79 251ZM547 889H674L771 742H681L611 825L539 742H449L547 889Z" />
<glyph unicode="&#xdc;" glyph-name="Udieresis" horiz-adv-x="710" d="M79 -10T79 251V700H206V233Q206 159 244 122T356 84Q432 84 468 121T505 233V700H632V251Q632 118 564 54T356 -10Q79 -10 79 251ZM191 757T191 815V827Q191 885 249 885H260Q318 885 318
827V815Q318 757 260 757H249Q191 757 191 815ZM392 757T392 815V827Q392 885 451 885H461Q520 885 520 827V815Q520 757 461 757H451Q392 757 392 815Z" />
<glyph unicode="&#xdd;" glyph-name="Yacute" horiz-adv-x="590" d="M577 700L358 294V0H232V294L13 700H145L296 406L446 700H577ZM315 886H454L336 735H230L315 886Z" />
<glyph unicode="&#xde;" glyph-name="Thorn" horiz-adv-x="641" d="M441 599T509 539T577 369Q577 257 509 194T305 130H211V0H87V700H211V599H305Q441 599 509 539ZM378 225T414 260T451 369Q451 441 415 473T298 505H211V225H298Q378 225 414 260Z" />
<glyph unicode="&#xdf;" glyph-name="germandbls" horiz-adv-x="630" d="M508 347T540 304T573 199Q573 96 515 41T362 -14Q297 -14 255 6T213 69Q213 84 221 95T241 110Q285 69 353 69Q407 69 437 101T468 191Q468 314 347 314Q339 314 319 312L295 311Q282 311
272 339T262 386Q262 395 269 395H324Q376 395 409 429T443 526Q443 580 412 615T318 650Q250 650 215 613T179 509V0H71V509Q71 578 103 628T193 704T320 731Q390 731 442 705T522 633T550 530Q550 469 524 426T452 361Q508 347 540 304Z" />
<glyph unicode="&#xe0;" glyph-name="agrave" horiz-adv-x="565" d="M496 114T503 81T529 24Q512 11 486 3T437 -6Q389 -6 379 73Q324 -10 208 -10Q134 -10 89 29T43 133Q43 224 124 271T375 328V373Q375 471 272 471Q235 471 202 457T124 407Q117 402 110 402Q94
402 76 420T44 471Q85 511 151 535T285 560Q386 560 441 511T496 373V184Q496 114 503 81ZM321 73T375 169V259Q167 250 167 144Q167 110 187 92T244 73Q321 73 375 169ZM388 776H525L599 625H506L388 776Z" />
<glyph unicode="&#xe1;" glyph-name="aacute" horiz-adv-x="565" d="M496 114T503 81T529 24Q512 11 486 3T437 -6Q389 -6 379 73Q324 -10 208 -10Q134 -10 89 29T43 133Q43 224 124 271T375 328V373Q375 471 272 471Q235 471 202 457T124 407Q117 402 110 402Q94
402 76 420T44 471Q85 511 151 535T285 560Q386 560 441 511T496 373V184Q496 114 503 81ZM321 73T375 169V259Q167 250 167 144Q167 110 187 92T244 73Q321 73 375 169ZM297 776H436L318 625H212L297 776Z" />
<glyph unicode="&#xe2;" glyph-name="acircumflex" horiz-adv-x="565" d="M496 114T503 81T529 24Q512 11 486 3T437 -6Q389 -6 379 73Q324 -10 208 -10Q134 -10 89 29T43 133Q43 224 124 271T375 328V373Q375 471 272 471Q235 471 202 457T124 407Q117 402 110
402Q94 402 76 420T44 471Q85 511 151 535T285 560Q386 560 441 511T496 373V184Q496 114 503 81ZM321 73T375 169V259Q167 250 167 144Q167 110 187 92T244 73Q321 73 375 169ZM470 772H597L694 625H604L534 708L462 625H372L470 772Z" />
<glyph unicode="&#xe3;" glyph-name="atilde" horiz-adv-x="565" d="M496 114T503 81T529 24Q512 11 486 3T437 -6Q389 -6 379 73Q324 -10 208 -10Q134 -10 89 29T43 133Q43 224 124 271T375 328V373Q375 471 272 471Q235 471 202 457T124 407Q117 402 110 402Q94
402 76 420T44 471Q85 511 151 535T285 560Q386 560 441 511T496 373V184Q496 114 503 81ZM321 73T375 169V259Q167 250 167 144Q167 110 187 92T244 73Q321 73 375 169ZM407 638T392 651T377 689Q377 725 401 745T464 765Q486 765 503 760T539 743Q556 735 566
731T589 727Q627 727 631 768Q662 768 676 757T691 718Q691 688 668 664T606 640Q583 640 567 645T528 661Q510 669 499 673T474 677Q436 677 433 638Q407 638 392 651Z" />
<glyph unicode="&#xe4;" glyph-name="adieresis" horiz-adv-x="565" d="M496 114T503 81T529 24Q512 11 486 3T437 -6Q389 -6 379 73Q324 -10 208 -10Q134 -10 89 29T43 133Q43 224 124 271T375 328V373Q375 471 272 471Q235 471 202 457T124 407Q117 402 110
402Q94 402 76 420T44 471Q85 511 151 535T285 560Q386 560 441 511T496 373V184Q496 114 503 81ZM321 73T375 169V259Q167 250 167 144Q167 110 187 92T244 73Q321 73 375 169ZM114 640T114 698V710Q114 768 172 768H183Q241 768 241 710V698Q241 640 183 640H172Q114
640 114 698ZM315 640T315 698V710Q315 768 374 768H384Q443 768 443 710V698Q443 640 384 640H374Q315 640 315 698Z" />
<glyph unicode="&#xe5;" glyph-name="aring" horiz-adv-x="565" d="M496 114T503 81T529 24Q512 11 486 3T437 -6Q389 -6 379 73Q324 -10 208 -10Q134 -10 89 29T43 133Q43 224 124 271T375 328V373Q375 471 272 471Q235 471 202 457T124 407Q117 402 110 402Q94
402 76 420T44 471Q85 511 151 535T285 560Q386 560 441 511T496 373V184Q496 114 503 81ZM321 73T375 169V259Q167 250 167 144Q167 110 187 92T244 73Q321 73 375 169ZM480 633T444 668T408 757Q408 811 444 846T533 882Q585 882 621 847T658 757Q658 703 622
668T533 633Q480 633 444 668ZM554 708T568 722T582 757Q582 779 568 792T533 806Q511 806 497 793T483 757Q483 736 497 722T533 708Q554 708 568 722Z" />
<glyph unicode="&#xe6;" glyph-name="ae" horiz-adv-x="899" d="M866 284T860 255H501Q509 73 629 73Q664 73 687 84T724 111T757 154Q763 165 777 165Q806 165 855 128Q829 64 774 26T629 -12Q566 -12 516 10T433 76Q398 35 347 12T228 -12Q144 -12 94 26T43
132Q43 230 126 279T378 331V373Q378 471 280 471Q249 471 223 462T178 441T122 403Q114 399 108 399Q93 399 76 418T44 471Q88 509 150 534T285 560Q340 560 383 543T456 493Q523 560 637 560Q743 560 804 500T866 322Q866 284 860 255ZM743 329Q743 479 634 479Q519
479 504 329H743ZM293 71T331 99T388 178Q379 220 378 257Q167 250 167 143Q167 109 187 90T244 71Q293 71 331 99Z" />
<glyph unicode="&#xe7;" glyph-name="ccedilla" horiz-adv-x="568" d="M477 201T496 184T516 131Q516 98 493 69T429 19T341 -8L301 -52H311Q355 -52 382 -75T410 -136Q410 -183 377 -209T276 -236Q224 -236 200 -223T176 -186Q176 -177 179 -166Q191 -171 214
-174T263 -177Q294 -177 307 -168T321 -138Q321 -126 311 -117T282 -108Q264 -108 250 -114L219 -75L264 -8Q150 2 92 74T33 278Q33 409 103 484T295 560Q392 560 453 513T526 382Q480 355 446 355Q432 355 424 363T408 393Q395 436 368 456T295 477Q230 477 194
425T157 278Q157 178 194 127T303 75Q355 75 387 105T436 201Q477 201 496 184Z" />
<glyph unicode="&#xe8;" glyph-name="egrave" horiz-adv-x="573" d="M540 295T536 255H168Q173 169 208 122T303 75Q344 75 370 91T431 156Q437 165 452 165Q480 165 529 130Q501 62 443 26T303 -10Q182 -10 113 66T43 276Q43 408 113 484T305 560Q417 560 478
495T540 312Q540 295 536 255ZM417 329Q417 478 302 478Q245 478 212 441T170 329H417ZM404 776H541L615 625H522L404 776Z" />
<glyph unicode="&#xe9;" glyph-name="eacute" horiz-adv-x="573" d="M540 295T536 255H168Q173 169 208 122T303 75Q344 75 370 91T431 156Q437 165 452 165Q480 165 529 130Q501 62 443 26T303 -10Q182 -10 113 66T43 276Q43 408 113 484T305 560Q417 560 478
495T540 312Q540 295 536 255ZM417 329Q417 478 302 478Q245 478 212 441T170 329H417ZM313 776H452L334 625H228L313 776Z" />
<glyph unicode="&#xea;" glyph-name="ecircumflex" horiz-adv-x="573" d="M540 295T536 255H168Q173 169 208 122T303 75Q344 75 370 91T431 156Q437 165 452 165Q480 165 529 130Q501 62 443 26T303 -10Q182 -10 113 66T43 276Q43 408 113 484T305 560Q417 560
478 495T540 312Q540 295 536 255ZM417 329Q417 478 302 478Q245 478 212 441T170 329H417ZM486 772H613L710 625H620L550 708L478 625H388L486 772Z" />
<glyph unicode="&#xeb;" glyph-name="edieresis" horiz-adv-x="573" d="M540 295T536 255H168Q173 169 208 122T303 75Q344 75 370 91T431 156Q437 165 452 165Q480 165 529 130Q501 62 443 26T303 -10Q182 -10 113 66T43 276Q43 408 113 484T305 560Q417 560
478 495T540 312Q540 295 536 255ZM417 329Q417 478 302 478Q245 478 212 441T170 329H417ZM130 640T130 698V710Q130 768 188 768H199Q257 768 257 710V698Q257 640 199 640H188Q130 640 130 698ZM331 640T331 698V710Q331 768 390 768H400Q459 768 459 710V698Q459
640 400 640H390Q331 640 331 698Z" />
<glyph unicode="&#xec;" glyph-name="igrave" horiz-adv-x="288" d="M83 550H205V0H83V550ZM255 776H392L466 625H373L255 776Z" />
<glyph unicode="&#xed;" glyph-name="iacute" horiz-adv-x="288" d="M83 550H205V0H83V550ZM164 776H303L185 625H79L164 776Z" />
<glyph unicode="&#xee;" glyph-name="icircumflex" horiz-adv-x="288" d="M83 550H205V0H83V550ZM337 772H464L561 625H471L401 708L329 625H239L337 772Z" />
<glyph unicode="&#xef;" glyph-name="idieresis" horiz-adv-x="288" d="M83 550H205V0H83V550ZM-19 640T-19 698V710Q-19 768 39 768H50Q108 768 108 710V698Q108 640 50 640H39Q-19 640 -19 698ZM182 640T182 698V710Q182 768 241 768H251Q310 768 310 710V698Q310
640 251 640H241Q182 640 182 698Z" />
<glyph unicode="&#xf0;" glyph-name="eth" horiz-adv-x="587" d="M547 526T547 295Q547 -12 294 -12Q167 -12 104 65T40 268Q40 345 67 408T152 509T294 547Q333 547 360 538Q331 586 296 626L216 575L176 633L245 677Q209 709 172 734L258 801Q309 767 342 739L429
795L469 736L394 689Q547 526 547 295ZM363 69T393 116T424 268Q424 367 393 416T294 466Q226 466 195 417T163 268Q163 164 194 117T294 69Q363 69 393 116Z" />
<glyph unicode="&#xf1;" glyph-name="ntilde" horiz-adv-x="610" d="M533 81T536 57T549 14Q502 -5 450 -5Q429 -5 421 18T412 102V366Q412 424 393 448T329 473Q264 473 191 409V0H70V368Q70 498 58 534Q116 554 156 554Q175 554 183 540T191 496V484Q241 526
280 543T362 560Q448 560 490 514T533 372V135Q533 81 536 57ZM435 638T420 651T405 689Q405 725 429 745T492 765Q514 765 531 760T567 743Q584 735 594 731T617 727Q655 727 659 768Q690 768 704 757T719 718Q719 688 696 664T634 640Q611 640 595 645T556 661Q538
669 527 673T502 677Q464 677 461 638Q435 638 420 651Z" />
<glyph unicode="&#xf2;" glyph-name="ograve" horiz-adv-x="561" d="M161 -10T97 64T33 276Q33 414 97 487T281 560Q401 560 464 487T528 276Q528 137 464 64T281 -10Q161 -10 97 64ZM346 73T375 121T405 276Q405 381 376 429T281 477Q216 477 187 430T157 276Q157
169 186 121T281 73Q346 73 375 121ZM392 776H529L603 625H510L392 776Z" />
<glyph unicode="&#xf3;" glyph-name="oacute" horiz-adv-x="561" d="M161 -10T97 64T33 276Q33 414 97 487T281 560Q401 560 464 487T528 276Q528 137 464 64T281 -10Q161 -10 97 64ZM346 73T375 121T405 276Q405 381 376 429T281 477Q216 477 187 430T157 276Q157
169 186 121T281 73Q346 73 375 121ZM301 776H440L322 625H216L301 776Z" />
<glyph unicode="&#xf4;" glyph-name="ocircumflex" horiz-adv-x="561" d="M161 -10T97 64T33 276Q33 414 97 487T281 560Q401 560 464 487T528 276Q528 137 464 64T281 -10Q161 -10 97 64ZM346 73T375 121T405 276Q405 381 376 429T281 477Q216 477 187 430T157
276Q157 169 186 121T281 73Q346 73 375 121ZM474 772H601L698 625H608L538 708L466 625H376L474 772Z" />
<glyph unicode="&#xf5;" glyph-name="otilde" horiz-adv-x="561" d="M161 -10T97 64T33 276Q33 414 97 487T281 560Q401 560 464 487T528 276Q528 137 464 64T281 -10Q161 -10 97 64ZM346 73T375 121T405 276Q405 381 376 429T281 477Q216 477 187 430T157 276Q157
169 186 121T281 73Q346 73 375 121ZM411 638T396 651T381 689Q381 725 405 745T468 765Q490 765 507 760T543 743Q560 735 570 731T593 727Q631 727 635 768Q666 768 680 757T695 718Q695 688 672 664T610 640Q587 640 571 645T532 661Q514 669 503 673T478 677Q440
677 437 638Q411 638 396 651Z" />
<glyph unicode="&#xf6;" glyph-name="odieresis" horiz-adv-x="561" d="M161 -10T97 64T33 276Q33 414 97 487T281 560Q401 560 464 487T528 276Q528 137 464 64T281 -10Q161 -10 97 64ZM346 73T375 121T405 276Q405 381 376 429T281 477Q216 477 187 430T157
276Q157 169 186 121T281 73Q346 73 375 121ZM118 640T118 698V710Q118 768 176 768H187Q245 768 245 710V698Q245 640 187 640H176Q118 640 118 698ZM319 640T319 698V710Q319 768 378 768H388Q447 768 447 710V698Q447 640 388 640H378Q319 640 319 698Z" />
<glyph unicode="&#xf7;" glyph-name="divide" horiz-adv-x="600" d="M263 459T246 476T229 520Q229 545 246 562T289 579Q315 579 332 562T350 520Q350 494 333 477T289 459Q263 459 246 476ZM70 361H530V287H70V361ZM264 73T247 90T229 132Q229 158 246 176T289
194Q315 194 332 176T350 132Q350 107 333 90T289 73Q264 73 247 90Z" />
<glyph unicode="&#xf8;" glyph-name="oslash" horiz-adv-x="561" d="M528 409T528 276Q528 137 464 64T281 -10Q192 -10 131 33L107 0H30L87 76Q33 150 33 276Q33 414 97 487T281 560Q365 560 422 524L441 550H518L468 483Q528 409 528 276ZM157 223T165 181L363
445Q334 477 281 477Q216 477 187 430T157 276Q157 223 165 181ZM346 73T375 121T405 276Q405 338 394 384L192 113Q222 73 281 73Q346 73 375 121Z" />
<glyph unicode="&#xf9;" glyph-name="ugrave" horiz-adv-x="623" d="M544 85T547 59T559 14Q521 -5 477 -5Q451 -5 439 10T422 62Q393 28 349 9T252 -10Q166 -10 122 37T77 175V550H198V182Q198 122 218 97T284 71Q325 71 360 92T421 153V550H544V126Q544 85 547
59ZM423 776H560L634 625H541L423 776Z" />
<glyph unicode="&#xfa;" glyph-name="uacute" horiz-adv-x="623" d="M544 85T547 59T559 14Q521 -5 477 -5Q451 -5 439 10T422 62Q393 28 349 9T252 -10Q166 -10 122 37T77 175V550H198V182Q198 122 218 97T284 71Q325 71 360 92T421 153V550H544V126Q544 85 547
59ZM332 776H471L353 625H247L332 776Z" />
<glyph unicode="&#xfb;" glyph-name="ucircumflex" horiz-adv-x="623" d="M544 85T547 59T559 14Q521 -5 477 -5Q451 -5 439 10T422 62Q393 28 349 9T252 -10Q166 -10 122 37T77 175V550H198V182Q198 122 218 97T284 71Q325 71 360 92T421 153V550H544V126Q544
85 547 59ZM505 772H632L729 625H639L569 708L497 625H407L505 772Z" />
<glyph unicode="&#xfc;" glyph-name="udieresis" horiz-adv-x="623" d="M544 85T547 59T559 14Q521 -5 477 -5Q451 -5 439 10T422 62Q393 28 349 9T252 -10Q166 -10 122 37T77 175V550H198V182Q198 122 218 97T284 71Q325 71 360 92T421 153V550H544V126Q544 85
547 59ZM149 640T149 698V710Q149 768 207 768H218Q276 768 276 710V698Q276 640 218 640H207Q149 640 149 698ZM350 640T350 698V710Q350 768 409 768H419Q478 768 478 710V698Q478 640 419 640H409Q350 640 350 698Z" />
<glyph unicode="&#xfd;" glyph-name="yacute" horiz-adv-x="518" d="M517 550L304 -42Q273 -131 227 -169T106 -207Q60 -207 32 -190T4 -145Q4 -131 9 -119T28 -93Q39 -101 56 -105T92 -110Q131 -110 155 -84T200 9L4 550H129L262 157L392 550H517ZM280 776H419L301
625H195L280 776Z" />
<glyph unicode="&#xfe;" glyph-name="thorn" horiz-adv-x="609" d="M445 560T505 492T566 276Q566 133 497 61T313 -12Q253 -12 195 12V-225H73V784H195V504Q253 560 340 560Q445 560 505 492ZM366 71T404 119T442 276Q442 385 412 432T322 479Q285 479 252 462T195
416V96Q247 71 296 71Q366 71 404 119Z" />
<glyph unicode="&#xff;" glyph-name="ydieresis" horiz-adv-x="518" d="M517 550L304 -42Q273 -131 227 -169T106 -207Q60 -207 32 -190T4 -145Q4 -131 9 -119T28 -93Q39 -101 56 -105T92 -110Q131 -110 155 -84T200 9L4 550H129L262 157L392 550H517ZM97 640T97
698V710Q97 768 155 768H166Q224 768 224 710V698Q224 640 166 640H155Q97 640 97 698ZM298 640T298 698V710Q298 768 357 768H367Q426 768 426 710V698Q426 640 367 640H357Q298 640 298 698Z" />
<glyph unicode="&#x2013;" glyph-name="endash" horiz-adv-x="623" d="M50 344H573V270H50V344Z" />
<glyph unicode="&#x2014;" glyph-name="emdash" horiz-adv-x="1100" d="M50 344H1050V270H50V344Z" />
<glyph unicode="&#x2018;" glyph-name="quoteleft" horiz-adv-x="243" d="M156 629T172 611T189 564V547Q189 518 172 500T126 482H108Q78 482 61 500T43 552V568Q43 611 55 645T93 718Q109 743 122 754T151 765Q175 765 193 749Q158 710 141 685T119 629H128Q156
629 172 611Z" />
<glyph unicode="&#x2019;" glyph-name="quoteright" horiz-adv-x="243" d="M172 802T189 784T207 732V716Q207 673 195 639T157 566Q141 541 128 530T99 519Q75 519 57 535Q92 574 109 599T131 655H122Q94 655 78 673T61 720V737Q61 766 78 784T124 802H142Q172
802 189 784Z" />
<glyph unicode="&#x201a;" glyph-name="quotesinglbase" horiz-adv-x="263" d="M172 143T189 125T207 73V57Q207 14 195 -20T157 -93Q141 -118 128 -129T99 -140Q75 -140 57 -124Q92 -85 109 -60T131 -4H122Q94 -4 78 14T61 61V78Q61 107 78 125T124 143H142Q172
143 189 125Z" />
<glyph unicode="&#x201c;" glyph-name="quotedblleft" horiz-adv-x="447" d="M188 765T206 749Q170 709 154 685T133 629H141Q170 629 186 611T202 564V547Q202 518 185 500T139 482H121Q92 482 74 500T56 552V568Q56 611 68 645T106 718Q122 742 136 753T165
765Q188 765 206 749ZM353 629T369 611T385 564V547Q385 518 368 500T323 482H305Q275 482 257 500T239 552V568Q239 610 251 644T289 718Q305 742 319 753T348 765Q373 765 389 749Q354 710 338 685T316 629H324Q353 629 369 611Z" />
<glyph unicode="&#x201d;" glyph-name="quotedblright" horiz-adv-x="447" d="M355 802T372 784T390 732V716Q390 673 378 639T340 566Q324 541 311 530T282 519Q258 519 240 535Q275 574 292 599T314 655H305Q277 655 261 673T244 720V737Q244 766 261 784T307
802H325Q355 802 372 784ZM172 802T189 784T207 732V716Q207 673 195 639T157 566Q141 541 128 530T99 519Q75 519 57 535Q92 574 109 599T131 655H122Q94 655 78 673T61 720V737Q61 766 78 784T124 802H142Q172 802 189 784Z" />
<glyph unicode="&#x201e;" glyph-name="quotedblbase" horiz-adv-x="447" d="M355 143T372 125T390 73V57Q390 14 378 -20T340 -93Q324 -118 311 -129T282 -140Q258 -140 240 -124Q275 -85 292 -60T314 -4H305Q277 -4 261 14T244 61V78Q244 107 261 125T307 143H325Q355
143 372 125ZM172 143T189 125T207 73V57Q207 14 195 -20T157 -93Q141 -118 128 -129T99 -140Q75 -140 57 -124Q92 -85 109 -60T131 -4H122Q94 -4 78 14T61 61V78Q61 107 78 125T124 143H142Q172 143 189 125Z" />
<glyph unicode="&#x2022;" glyph-name="bullet" horiz-adv-x="560" d="M228 197T187 220T123 284T100 377Q100 429 123 470T187 534T280 557Q332 557 373 534T437 470T460 377Q460 325 437 284T373 220T280 197Q228 197 187 220Z" />
<glyph unicode="&#x2039;" glyph-name="guilsinglleft" horiz-adv-x="340" d="M43 288L171 452H287L168 288L287 117H171L43 288Z" />
<glyph unicode="&#x203a;" glyph-name="guilsinglright" horiz-adv-x="340" d="M53 117L172 288L53 452H169L297 288L169 117H53Z" />
</font>
</defs>
</svg>
